<?xml version="1.0" encoding="utf-8"?>
<!-- Generator: Adobe Illustrator 16.0.0, SVG Export Plug-In . SVG Version: 6.00 Build 0)  -->
<!DOCTYPE svg PUBLIC "-//W3C//DTD SVG 1.1//EN" "http://www.w3.org/Graphics/SVG/1.1/DTD/svg11.dtd">
<svg version="1.1" id="Capa_1" xmlns="http://www.w3.org/2000/svg" xmlns:xlink="http://www.w3.org/1999/xlink" x="0px" y="0px"
	 width="128px" height="128px" viewBox="0 0 128 128" enable-background="new 0 0 128 128" xml:space="preserve">
<g>
	<g>
		<path d="M124.316,102.41H3.418c-1.569,0-2.835-1.294-2.835-2.845V8.813c0-1.56,1.266-2.835,2.835-2.835h120.898
			c1.569,0,2.845,1.275,2.845,2.835v90.752C127.161,101.116,125.886,102.41,124.316,102.41z M6.252,96.721h115.218V11.648H6.252
			V96.721z"/>
	</g>
	<g>
		<path d="M77.09,121.305H50.643c-1.569,0-2.825-1.274-2.825-2.846V99.565c0-1.569,1.256-2.845,2.825-2.845H77.09
			c1.569,0,2.826,1.275,2.826,2.845v18.894C79.916,120.03,78.659,121.305,77.09,121.305z M53.469,115.634h20.797V102.41H53.469
			V115.634z"/>
	</g>
	<g>
		<rect x="16.641" y="115.634" width="94.451" height="5.671"/>
	</g>
	<g>
		<path d="M111.092,19.212H16.641c-1.568,0-2.834,1.275-2.834,2.834v64.276c0,1.568,1.266,2.846,2.834,2.846h94.451
			c1.569,0,2.845-1.277,2.845-2.846V22.046C113.937,20.487,112.661,19.212,111.092,19.212z M88.548,74.864l-4.001,4.002
			l-20.681-20.67l-20.669,20.65l-4.002-4.022l20.669-20.64l-20.669-20.68l4.002-4.012l20.669,20.679l20.681-20.679l4.001,4.012
			l-20.679,20.68L88.548,74.864z"/>
	</g>
</g>
</svg>
