<?xml version="1.0" encoding="utf-8"?>
<!-- Generator: Adobe Illustrator 16.0.0, SVG Export Plug-In . SVG Version: 6.00 Build 0)  -->
<!DOCTYPE svg PUBLIC "-//W3C//DTD SVG 1.1//EN" "http://www.w3.org/Graphics/SVG/1.1/DTD/svg11.dtd">
<svg version="1.1" id="Capa_1" xmlns="http://www.w3.org/2000/svg" xmlns:xlink="http://www.w3.org/1999/xlink" x="0px" y="0px"
	 width="128px" height="128px" viewBox="0 0 128 128" enable-background="new 0 0 128 128" xml:space="preserve">
<path d="M64,0C28.654,0,0,28.654,0,64c0,35.347,28.654,64,64,64c35.347,0,64-28.653,64-64C128,28.654,99.347,0,64,0z
	 M72.542,104.992c-2.007,1.7-4.799,2.551-8.374,2.551c-3.664,0-6.499-0.832-8.504-2.494c-2.007-1.662-3.009-4.008-3.009-7.034
	c0-3.139,0.981-5.511,2.944-7.118c1.962-1.605,4.818-2.409,8.57-2.409c3.619,0,6.421,0.822,8.406,2.466
	c1.984,1.645,2.977,3.998,2.977,7.062C75.551,100.967,74.547,103.293,72.542,104.992z M72.215,78.847H56.252L52.916,24.09h22.635
	L72.215,78.847z"/>
</svg>
