<?xml version="1.0" encoding="utf-8"?>
<!-- Generator: Adobe Illustrator 16.0.0, SVG Export Plug-In . SVG Version: 6.00 Build 0)  -->
<!DOCTYPE svg PUBLIC "-//W3C//DTD SVG 1.1//EN" "http://www.w3.org/Graphics/SVG/1.1/DTD/svg11.dtd">
<svg version="1.1" id="Capa_1" xmlns="http://www.w3.org/2000/svg" xmlns:xlink="http://www.w3.org/1999/xlink" x="0px" y="0px"
	 width="128px" height="128px" viewBox="0 0 128 128" enable-background="new 0 0 128 128" xml:space="preserve">
<path fill="#010202" d="M124.834,119.65h-6.187V46.937c0-1.908-1.547-3.454-3.455-3.454l0,0H93.679V4.902
	c0-1.908-1.547-3.455-3.455-3.455l0,0H38.289c-1.908,0-3.454,1.546-3.454,3.455l0,0v8.494H13.333c-1.908,0-3.455,1.547-3.455,3.455
	l0,0V119.65H3.666c-1.904-0.115-3.543,1.333-3.659,3.238c-0.117,1.902,1.333,3.543,3.237,3.658c0.141,0.008,0.281,0.008,0.422,0
	h121.168c1.904-0.115,3.354-1.756,3.237-3.658C127.965,121.146,126.576,119.756,124.834,119.65z M84.59,54.465
	c0.008-0.868,0.706-1.571,1.574-1.585h5.902c0.883,0,1.599,0.715,1.599,1.599v5.904c0,0.882-0.716,1.598-1.599,1.598h-5.902
	c-0.883,0-1.599-0.716-1.599-1.598L84.59,54.465z M93.692,69.508v5.903c0,0.884-0.716,1.599-1.599,1.599h-5.93
	c-0.883,0-1.599-0.715-1.599-1.599v-5.903c-0.022-0.883,0.676-1.615,1.559-1.637c0.013-0.001,0.026-0.001,0.04-0.001h5.902
	c0.883-0.008,1.605,0.703,1.613,1.586c0,0.017,0,0.034-0.001,0.052H93.692z M84.59,84.536c0.008-0.867,0.706-1.57,1.574-1.584h5.902
	c0.883,0,1.599,0.717,1.599,1.599v5.903c0,0.883-0.716,1.599-1.599,1.599h-5.902c-0.883,0-1.599-0.716-1.599-1.599L84.59,84.536z
	 M68.904,69.508c-0.022-0.883,0.676-1.615,1.559-1.637c0.013-0.001,0.025-0.001,0.039-0.001h5.903c0.883,0,1.599,0.716,1.599,1.598
	l0,0v5.906c0,0.883-0.716,1.598-1.599,1.598l0,0h-5.903c-0.883,0-1.598-0.715-1.598-1.598l0,0V69.508z M34.847,24.392
	c-0.021-0.882,0.677-1.615,1.56-1.637c0.013,0,0.026,0,0.039,0h5.891c0.883,0,1.599,0.715,1.599,1.598l0,0v5.904
	c0.021,0.883-0.677,1.615-1.56,1.637c-0.013,0-0.026,0-0.039,0h-5.891c-0.883,0-1.598-0.716-1.598-1.599V24.392z M34.847,39.435
	c0-0.883,0.715-1.599,1.598-1.599h5.891c0.883,0,1.599,0.716,1.599,1.599l0,0v5.903c-0.007,0.878-0.721,1.585-1.599,1.585h-5.891
	c-0.883,0-1.598-0.715-1.598-1.598l0,0V39.435z M34.847,54.478c0-0.883,0.715-1.599,1.598-1.599l0,0h5.891
	c0.883,0,1.599,0.715,1.599,1.599l0,0v5.904c-0.007,0.877-0.721,1.585-1.599,1.585h-5.891c-0.883,0-1.598-0.715-1.598-1.598l0,0
	V54.478z M34.847,69.52c-0.028-0.881,0.664-1.62,1.546-1.648c0.018-0.001,0.035-0.001,0.052-0.001h5.891
	c0.883,0,1.599,0.716,1.599,1.598l0,0v5.906c0.014,0.883-0.69,1.607-1.572,1.622c-0.009,0-0.017,0-0.026,0h-5.891
	c-0.883,0-1.598-0.715-1.598-1.598l0,0V69.52z M34.847,84.563c0-0.883,0.715-1.598,1.598-1.598h5.891
	c0.883,0,1.599,0.715,1.599,1.598v5.903c-0.014,0.873-0.726,1.573-1.599,1.573h-5.891c-0.883,0-1.598-0.715-1.598-1.598V84.563z
	 M28.261,90.467c0,0.883-0.716,1.598-1.599,1.598h-5.904c-0.883,0.015-1.61-0.688-1.624-1.57c0-0.018,0-0.035,0-0.052v-5.906
	c0-0.882,0.715-1.597,1.598-1.597h5.904c0.882,0,1.599,0.715,1.599,1.597L28.261,90.467z M28.261,75.424
	c0,0.884-0.716,1.6-1.599,1.6l0,0h-5.904c-0.883,0.014-1.61-0.69-1.624-1.573c0-0.013,0-0.024,0-0.039v-5.903
	c-0.021-0.883,0.676-1.615,1.559-1.638c0.021,0,0.044,0,0.065,0h5.904c0.882,0,1.599,0.716,1.599,1.598l0,0V75.424z M28.261,60.382
	c0,0.882-0.716,1.598-1.599,1.598l0,0h-5.904c-0.883,0.014-1.61-0.69-1.624-1.572c0-0.013,0-0.026,0-0.039v-5.904
	c0-0.882,0.715-1.599,1.598-1.599l0,0h5.904c0.882,0,1.599,0.716,1.599,1.599l0,0L28.261,60.382z M28.261,45.338
	c0,0.883-0.716,1.598-1.599,1.598l0,0h-5.904c-0.883,0.015-1.61-0.689-1.624-1.572c0-0.008,0-0.017,0-0.026v-5.903
	c0-0.883,0.715-1.599,1.598-1.599h5.904c0.882,0,1.599,0.716,1.599,1.599L28.261,45.338z M28.261,30.295
	c0,0.883-0.716,1.599-1.599,1.599h-5.904c-0.883,0.014-1.61-0.69-1.624-1.573c0-0.009,0-0.017,0-0.026v-5.904
	c-0.021-0.882,0.676-1.615,1.559-1.637c0.021,0,0.044,0,0.065,0h5.904c0.882,0,1.599,0.715,1.599,1.598V30.295z M47.402,119.65
	H31.38V99.593c0-0.89,0.721-1.61,1.611-1.61h12.787c0.89,0,1.611,0.721,1.611,1.61L47.402,119.65z M59.622,90.442
	c0,0.883-0.715,1.598-1.598,1.598H52.12c-0.882,0-1.599-0.715-1.599-1.598v-5.906c0-0.882,0.716-1.597,1.599-1.597h5.904
	c0.883,0,1.598,0.715,1.598,1.597V90.442z M59.622,75.398c0,0.883-0.715,1.598-1.598,1.598l0,0H52.12
	c-0.882,0-1.599-0.715-1.599-1.598l0,0v-5.891c-0.021-0.883,0.677-1.615,1.56-1.637c0.013-0.001,0.026-0.001,0.039-0.001h5.904
	c0.883,0,1.598,0.716,1.598,1.598l0,0V75.398z M59.622,60.356c0,0.883-0.715,1.598-1.598,1.598l0,0H52.12
	c-0.882,0-1.599-0.715-1.599-1.598l0,0v-5.891c0-0.882,0.716-1.599,1.599-1.599l0,0h5.904c0.883,0,1.598,0.716,1.598,1.599l0,0
	V60.356z M59.622,45.313c0,0.882-0.715,1.598-1.598,1.598l0,0H52.12c-0.882,0-1.599-0.716-1.599-1.598l0,0v-5.878
	c0-0.883,0.716-1.599,1.599-1.599l0,0h5.904c0.883,0,1.598,0.716,1.598,1.599l0,0V45.313z M59.622,30.27
	c0,0.883-0.715,1.599-1.598,1.599l0,0H52.12c-0.882,0-1.599-0.716-1.599-1.599l0,0v-5.878c-0.021-0.882,0.677-1.615,1.56-1.637
	c0.013,0,0.026,0,0.039,0h5.904c0.883,0,1.598,0.715,1.598,1.598l0,0V30.27z M77.991,90.442c0,0.883-0.716,1.598-1.598,1.598h-5.892
	c-0.883,0-1.598-0.715-1.598-1.598v-5.906c0-0.882,0.715-1.597,1.598-1.597h5.903c0.883,0,1.599,0.715,1.599,1.597L77.991,90.442z
	 M77.991,60.369c0,0.883-0.716,1.598-1.598,1.598l0,0h-5.892c-0.883,0-1.598-0.715-1.598-1.598l0,0v-5.904
	c0-0.882,0.715-1.599,1.598-1.599l0,0h5.903c0.883,0,1.599,0.716,1.599,1.599l0,0L77.991,60.369z M97.133,119.663h-16.01v-20.07
	c0-0.89,0.721-1.61,1.611-1.61h12.787c0.89,0,1.611,0.721,1.611,1.61V119.663z M109.365,90.442c0,0.883-0.715,1.598-1.598,1.598
	h-5.903c-0.883,0-1.6-0.715-1.6-1.598v-5.906c0-0.882,0.717-1.597,1.6-1.597h5.903c0.883,0,1.598,0.715,1.598,1.597V90.442z
	 M109.365,75.398c0,0.883-0.715,1.598-1.598,1.598h-5.903c-0.883,0-1.6-0.715-1.6-1.598v-5.891
	c-0.021-0.883,0.678-1.615,1.561-1.637c0.012-0.001,0.025-0.001,0.039-0.001h5.903c0.883,0,1.598,0.716,1.598,1.598
	c0,0.014,0,0.027,0,0.04V75.398z M109.365,60.356c0,0.883-0.715,1.598-1.598,1.598h-5.903c-0.883,0-1.6-0.715-1.6-1.598v-5.891
	c0-0.882,0.717-1.599,1.6-1.599h5.903c0.883,0,1.598,0.716,1.598,1.599V60.356z"/>
</svg>
