<?xml version="1.0" encoding="utf-8"?>
<!-- Generator: Adobe Illustrator 16.0.0, SVG Export Plug-In . SVG Version: 6.00 Build 0)  -->
<!DOCTYPE svg PUBLIC "-//W3C//DTD SVG 1.1//EN" "http://www.w3.org/Graphics/SVG/1.1/DTD/svg11.dtd">
<svg version="1.1" id="Capa_1" xmlns="http://www.w3.org/2000/svg" xmlns:xlink="http://www.w3.org/1999/xlink" x="0px" y="0px"
	 width="128px" height="128px" viewBox="0 0 128 128" enable-background="new 0 0 128 128" xml:space="preserve">
<g transform="translate(0,-952.36218)">
	<path d="M119.116,970.855c-2.228,0.059-4.309,0.996-5.853,2.584c-20.97,21.016-45.327,45.299-66.864,66.878l-32.348-26.956
		c-3.609-3.015-8.986-2.555-12.015,1.055c-3.015,3.625-2.541,9,1.069,12.015c0.015,0.015,0.03,0.029,0.045,0.045l38.317,31.917
		c3.416,2.852,8.407,2.613,11.496-0.534c22.695-22.725,49.666-49.592,72.417-72.375c3.386-3.268,3.476-8.66,0.209-12.045
		C123.897,971.702,121.551,970.751,119.116,970.855z"/>
</g>
</svg>
