<?xml version="1.0" encoding="utf-8"?>
<!-- Generator: Adobe Illustrator 16.0.0, SVG Export Plug-In . SVG Version: 6.00 Build 0)  -->
<!DOCTYPE svg PUBLIC "-//W3C//DTD SVG 1.1//EN" "http://www.w3.org/Graphics/SVG/1.1/DTD/svg11.dtd">
<svg version="1.1" id="Capa_1" xmlns="http://www.w3.org/2000/svg" xmlns:xlink="http://www.w3.org/1999/xlink" x="0px" y="0px"
	 width="128px" height="128px" viewBox="0 0 128 128" enable-background="new 0 0 128 128" xml:space="preserve">
<path d="M127.358,54.013h-10.751c-1.354-7.099-4.112-13.688-7.994-19.498l6.845-6.844l0.766-0.767
	c-4.137-5.784-9.193-10.854-14.965-14.991l-7.61,7.623c-5.823-3.882-12.412-6.627-19.511-7.993V0.804
	C70.869,0.268,67.498,0,64.075,0c-3.78,0-7.508,0.332-11.135,0.983V11.76c-6.946,1.469-13.382,4.303-19.051,8.198l-6.832-6.832
	l-0.766-0.766c-5.733,4.201-10.739,9.322-14.812,15.157l0.766,0.779l6.87,6.857c-3.652,5.644-6.257,12.028-7.572,18.859H0.804
	C0.268,57.295,0,60.653,0,64.075c0,3.793,0.332,7.508,0.983,11.135H11.76c1.417,6.691,4.086,12.922,7.776,18.438l-7.623,7.61
	c4.137,5.771,9.207,10.828,14.991,14.965l0.767-0.766l6.844-6.845c5.503,3.678,11.735,6.36,18.426,7.764v10.778
	c3.626,0.663,7.355,0.995,11.135,0.995c3.423,0,6.794-0.281,10.063-0.792v-10.751c6.844-1.303,13.229-3.907,18.847-7.585l6.87,6.896
	l0.791,0.766c5.823-4.086,10.931-9.092,15.145-14.812l-0.767-0.766l-6.818-6.846c3.882-5.669,6.717-12.104,8.172-19.051h10.778
	c0.663-3.627,0.995-7.342,0.995-11.135C128.15,60.653,127.869,57.295,127.358,54.013z M88.005,74.086
	c-0.128,0.358-0.332,0.74-0.486,1.124c-2.732,5.72-7.507,10.317-13.381,12.77c-0.511,0.229-1.047,0.434-1.584,0.612
	c-2.656,0.919-5.517,1.43-8.479,1.43c-3.269,0-6.385-0.612-9.245-1.71c-0.665-0.229-1.277-0.486-1.89-0.793
	c-5.363-2.553-9.755-6.945-12.309-12.309c-0.307-0.613-0.562-1.227-0.817-1.877c-1.072-2.873-1.686-6.001-1.686-9.258
	c0-2.962,0.511-5.81,1.43-8.466c0.179-0.549,0.383-1.073,0.613-1.597c2.452-5.86,7.049-10.649,12.769-13.369
	c0.383-0.179,0.767-0.357,1.124-0.499c3.065-1.302,6.461-2.017,10.011-2.017c3.269,0,6.385,0.6,9.245,1.698
	c0.281,0.115,0.562,0.217,0.817,0.332c6.23,2.631,11.236,7.624,13.842,13.854c0.127,0.269,0.229,0.524,0.332,0.805
	c1.098,2.873,1.71,5.989,1.71,9.257C90.021,67.625,89.307,70.996,88.005,74.086z"/>
</svg>
