<?xml version="1.0" encoding="utf-8"?>
<!-- Generator: Adobe Illustrator 16.0.0, SVG Export Plug-In . SVG Version: 6.00 Build 0)  -->
<!DOCTYPE svg PUBLIC "-//W3C//DTD SVG 1.1//EN" "http://www.w3.org/Graphics/SVG/1.1/DTD/svg11.dtd">
<svg version="1.1" id="Capa_1" xmlns="http://www.w3.org/2000/svg" xmlns:xlink="http://www.w3.org/1999/xlink" x="0px" y="0px"
	 width="128px" height="128px" viewBox="0 0 128 128" enable-background="new 0 0 128 128" xml:space="preserve">
<g>
	<path fill="#010202" d="M59.371,17.688h-6.721v7.544h6.721V17.688z M67.15,17.688H60.55v7.544h6.601V17.688z M48.803,25.233h2.668
		v-7.544h-2.668c-2.087,0-3.783,1.687-3.783,3.772C45.021,23.548,46.717,25.233,48.803,25.233z M82.724,21.46
		c0-2.085-1.697-3.772-3.779-3.772h-2.6v7.544h2.6C81.026,25.233,82.724,23.548,82.724,21.46z M21.177,87.733v0.801
		c0,3.309,1.204,8.456,2.684,11.469l10.916,22.249c1.524,3.119,5.402,5.657,8.637,5.657h41.258c3.231,0,7.1-2.538,8.629-5.655
		l10.906-22.248c1.475-2.997,2.668-8.142,2.668-11.469v-0.891C99.156,92.36,86.536,95.6,64.041,95.6
		C41.049,95.6,28.778,92.398,21.177,87.733z M64.144,104.507c-1.645,0-2.982-1.333-2.982-2.981c0-0.661,0.22-1.279,0.588-1.777
		l4.208,4.146C65.458,104.279,64.827,104.507,64.144,104.507z M67.125,101.526c0,0.622-0.191,1.208-0.52,1.686l-4.18-4.114
		c0.485-0.35,1.078-0.549,1.721-0.549C65.789,98.548,67.125,99.88,67.125,101.526z M75.048,17.688h-6.603v7.544h6.603V17.688z
		 M48.803,26.838h30.144c2.989,0,5.418-2.432,5.418-5.424c0-2.992-2.431-5.425-5.418-5.425H48.803c-2.991,0-5.425,2.433-5.425,5.425
		C43.378,24.406,45.812,26.838,48.803,26.838z M48.803,16.809h30.144c2.54,0,4.601,2.064,4.601,4.605
		c0,2.543-2.061,4.603-4.601,4.603H48.803c-2.541,0-4.603-2.061-4.603-4.603C44.198,18.873,46.263,16.809,48.803,16.809z
		 M107.744,7.71C101.278,2.061,89.035,0,64.043,0c-25.046,0-37.3,2.045-43.701,7.603C14.059,13.061,13,23.585,13,45.115
		c0,21.55,1.053,32.078,7.295,37.514c6.383,5.556,18.658,8.979,43.749,8.979c25.04,0,37.297-3.442,43.745-9.088
		c6.248-5.471,7.3-15.962,7.3-37.407C115.088,23.686,114.033,13.201,107.744,7.71z M102.782,64.415
		c-0.596,6.457-1.731,10.296-3.576,12.085c-4.485,4.353-18.551,4.708-35.106,4.708c-16.599,0-30.699-0.347-35.124-4.616
		c-1.837-1.772-2.968-5.613-3.56-12.093c-0.48-5.238-0.578-11.615-0.578-19.577c0-7.955,0.097-14.325,0.583-19.563
		c0.6-6.473,1.741-10.319,3.591-12.101c4.442-4.275,18.516-4.624,35.086-4.624c16.523,0,30.565,0.355,35.068,4.714
		c1.86,1.799,3.006,5.646,3.609,12.096c0.485,5.216,0.585,11.559,0.585,19.477C103.361,52.847,103.264,59.195,102.782,64.415z
		 M70.805,73.803H57.366c-0.326,0-0.59,0.265-0.59,0.587v2.718c0,0.322,0.264,0.585,0.59,0.585h13.438
		c0.327,0,0.586-0.263,0.586-0.585V74.39C71.391,74.064,71.129,73.803,70.805,73.803z M73.662,43.93
		c0.097,0.142,0.262,0.223,0.428,0.223c0.067,0,0.135-0.014,0.203-0.039l4.995-2.174c0.185-0.083,0.31-0.266,0.31-0.47
		c0-0.202-0.125-0.387-0.31-0.468l-4.995-2.184c-0.221-0.097-0.491-0.022-0.629,0.184c-0.141,0.205-0.109,0.449,0.063,0.624
		l1.225,1.167H54.116l-2.293-1.285c-0.057-0.032-0.122-0.011-0.19-0.011h-2.986c-0.171,0-0.321,0.103-0.367,0.267
		c-0.041,0.166,0.03,0.334,0.178,0.42l2.231,1.284l-2.228,1.28c-0.151,0.084-0.222,0.282-0.181,0.448
		c0.044,0.168,0.195,0.305,0.367,0.305h2.986c0.067,0,0.134-0.037,0.19-0.069l2.305-1.344h20.824l-1.225,1.188
		C73.552,43.454,73.523,43.724,73.662,43.93z M55.48,69.674h3.418c0.36,0,0.648-0.284,0.648-0.647c0-0.36-0.289-0.646-0.648-0.646
		H55.48c-0.358,0-0.648,0.286-0.648,0.646C54.832,69.39,55.122,69.674,55.48,69.674z M91.029,47.48
		c-5.272,1.487-12.166,2.868-19.383,3.454c0,0-3.404,0.088-4.33,3.836c0,0-1.232,0.612-3.232,0.612h-0.027
		c-1.999,0-3.231-0.612-3.231-0.612c-0.926-3.746-4.33-3.836-4.33-3.836c-7.223-0.587-14.293-1.965-19.565-3.454
		c-1.235-0.35-3.326-0.294-3.615,2.154c-0.29,2.451,1.07,7.816,1.07,7.816c7.254,2.922,17.572,4.766,29.463,4.766h0.26
		c11.89,0,22.212-1.844,29.469-4.766c0,0,1.358-5.365,1.067-7.816C94.354,47.186,92.263,47.13,91.029,47.48z M35.438,56.242
		c-0.118-0.007-0.118-0.017-0.118-0.026v-1.267c0,0.009,0,0.02,0.118,0.03V56.242z M36.147,56.401
		c-0.118-0.008-0.118-0.019-0.118-0.028v-1.261c0,0.005,0,0.015,0.118,0.025V56.401z M36.971,56.579
		c-0.118-0.018-0.234-0.031-0.234-0.049v-1.262c0,0.019,0.116,0.035,0.234,0.053V56.579z M37.914,56.778
		c-0.118-0.026-0.236-0.048-0.354-0.074v-1.259c0.118,0.026,0.236,0.048,0.354,0.074V56.778z M38.857,56.966
		c-0.118-0.025-0.234-0.046-0.354-0.07V55.64c0.12,0.025,0.236,0.046,0.354,0.071V56.966z M39.918,57.17
		c-0.234-0.03-0.353-0.06-0.47-0.09v-1.255c0.118,0.03,0.236,0.06,0.47,0.091V57.17z M41.096,57.383
		c-0.236-0.032-0.47-0.071-0.588-0.104v-1.252c0.118,0.032,0.352,0.073,0.588,0.106V57.383z M42.279,57.591
		c-0.238-0.036-0.472-0.069-0.59-0.101v-1.251c0.118,0.032,0.352,0.065,0.59,0.102V57.591z M43.575,57.804
		c-0.235-0.036-0.475-0.075-0.708-0.114v-1.249c0.233,0.04,0.473,0.08,0.708,0.117V57.804z M44.989,58.023
		c-0.355-0.04-0.59-0.085-0.827-0.125v-1.249c0.237,0.043,0.472,0.087,0.827,0.128V58.023z M46.522,58.24
		c-0.354-0.041-0.708-0.087-0.941-0.131v-1.246c0.234,0.045,0.587,0.089,0.941,0.135V58.24z M48.171,58.461
		c-0.354-0.044-0.708-0.091-1.06-0.139v-1.245c0.354,0.048,0.708,0.095,1.06,0.141V58.461z M49.94,58.671
		c-0.473-0.045-0.826-0.091-1.178-0.139v-1.239c0.354,0.045,0.707,0.09,1.178,0.138V58.671z M51.944,58.883
		c-0.473-0.047-0.944-0.095-1.416-0.145v-1.241c0.474,0.053,0.944,0.103,1.416,0.147V58.883z M54.066,59.071
		c-0.591-0.041-1.062-0.085-1.535-0.136v-1.236c0.473,0.048,0.944,0.092,1.535,0.136V59.071z M56.305,59.238
		c-0.59-0.037-1.178-0.077-1.652-0.118v-1.235c0.474,0.043,1.062,0.082,1.652,0.118V59.238z M58.663,59.365
		c-0.588-0.029-1.178-0.06-1.769-0.093V58.04c0.59,0.032,1.18,0.065,1.769,0.092V59.365z M61.138,59.456
		c-0.708-0.019-1.296-0.037-1.884-0.063v-1.231c0.588,0.024,1.177,0.044,1.884,0.062V59.456z M63.731,59.489
		c-0.71,0-1.415-0.007-2.004-0.022v-1.232c0.589,0.011,1.294,0.02,2.004,0.024V59.489z M66.326,59.471
		c-0.713,0.013-1.418,0.02-2.003,0.022V58.26c0.585-0.001,1.291-0.009,2.003-0.022V59.471z M68.801,59.397
		c-0.705,0.025-1.293,0.042-1.887,0.059v-1.232c0.594-0.017,1.182-0.037,1.887-0.059V59.397z M71.159,59.281
		c-0.591,0.032-1.181,0.065-1.771,0.089v-1.233c0.59-0.026,1.18-0.058,1.771-0.091V59.281z M73.395,59.129
		c-0.587,0.042-1.173,0.081-1.647,0.113V58.01c0.475-0.034,1.061-0.077,1.647-0.117V59.129z M75.518,58.951
		c-0.588,0.046-1.055,0.091-1.531,0.134v-1.237c0.477-0.042,0.946-0.086,1.531-0.133V58.951z M77.521,58.749
		c-0.469,0.051-0.941,0.098-1.415,0.144v-1.236c0.474-0.045,0.946-0.097,1.415-0.146V58.749z M79.291,58.549
		c-0.47,0.045-0.823,0.091-1.181,0.136v-1.239c0.357-0.043,0.711-0.088,1.181-0.14V58.549z M80.945,58.339
		c-0.355,0.045-0.713,0.09-1.063,0.136v-1.24c0.354-0.047,0.711-0.091,1.063-0.139V58.339z M82.474,58.126
		c-0.353,0.046-0.704,0.088-0.943,0.133v-1.243c0.239-0.042,0.591-0.088,0.943-0.135V58.126z M83.889,57.917
		c-0.352,0.041-0.585,0.084-0.822,0.126v-1.245c0.237-0.042,0.471-0.084,0.822-0.125V57.917z M85.188,57.708
		c-0.239,0.038-0.472,0.078-0.71,0.116v-1.248c0.238-0.037,0.471-0.077,0.71-0.117V57.708z M86.364,57.511
		c-0.235,0.034-0.472,0.067-0.589,0.101v-1.249c0.117-0.036,0.354-0.068,0.589-0.103V57.511z M87.543,57.301
		c-0.236,0.034-0.471,0.069-0.587,0.106v-1.25c0.116-0.037,0.351-0.071,0.587-0.107V57.301z M88.601,57.104
		c-0.233,0.027-0.351,0.059-0.47,0.088V55.94c0.119-0.03,0.236-0.062,0.47-0.088V57.104z M89.549,56.92
		c-0.116,0.024-0.235,0.047-0.354,0.07v-1.255c0.119-0.026,0.238-0.049,0.354-0.07V56.92z M90.491,56.729
		c-0.118,0.025-0.239,0.049-0.356,0.075v-1.259c0.117-0.025,0.238-0.05,0.356-0.072V56.729z M91.316,56.555
		c-0.118,0.017-0.234,0.031-0.234,0.051v-1.259c0-0.018,0.116-0.035,0.234-0.051V56.555z M92.024,56.402
		c-0.119,0.009-0.119,0.019-0.119,0.027v-1.262c0-0.011,0-0.019,0.119-0.029V56.402z M92.729,56.242
		c-0.116,0.01-0.116,0.019-0.116,0.028v-1.265c0-0.01,0-0.018,0.116-0.027V56.242z M78.11,69.793H62.672
		c-0.36,0-0.651,0.29-0.651,0.647s0.291,0.65,0.651,0.65H78.11c0.361,0,0.65-0.293,0.65-0.65S78.472,69.793,78.11,69.793z
		 M57.132,30.656v5.304h13.909v-5.304H57.132z M66.499,47.324h-4.798c-0.182,0-0.346,0.093-0.439,0.246
		c-0.092,0.152-0.099,0.341-0.017,0.5l2.336,4.542c0.088,0.171,0.329,0.286,0.456,0.276c0.187,0,0.359-0.101,0.451-0.265
		l2.467-4.544c0.081-0.156,0.076-0.35-0.014-0.504C66.85,47.419,66.682,47.324,66.499,47.324z M52.412,68.499H42.157
		c-0.325,0-0.59,0.265-0.59,0.588v2.712c0,0.327,0.265,0.587,0.59,0.587h10.255c0.327,0,0.591-0.259,0.591-0.587v-2.713
		C53.003,68.764,52.741,68.499,52.412,68.499z M59.43,71.742c0-0.361-0.29-0.651-0.65-0.651h-3.3c-0.358,0-0.648,0.29-0.648,0.651
		c0,0.357,0.29,0.646,0.648,0.646h3.3C59.14,72.388,59.43,72.099,59.43,71.742z"/>
</g>
</svg>
