<?xml version="1.0" encoding="utf-8"?>
<!-- Generator: Adobe Illustrator 16.0.0, SVG Export Plug-In . SVG Version: 6.00 Build 0)  -->
<!DOCTYPE svg PUBLIC "-//W3C//DTD SVG 1.1//EN" "http://www.w3.org/Graphics/SVG/1.1/DTD/svg11.dtd">
<svg version="1.1" id="Capa_1" xmlns="http://www.w3.org/2000/svg" xmlns:xlink="http://www.w3.org/1999/xlink" x="0px" y="0px"
	 width="128px" height="128px" viewBox="0 0 128 128" enable-background="new 0 0 128 128" xml:space="preserve">
<path d="M72.401,63.998l53.362-53.361c2.317-2.321,2.317-6.08,0-8.401c-2.322-2.317-6.08-2.317-8.402,0L64,55.598L10.638,2.234
	c-2.321-2.317-6.08-2.317-8.401,0c-2.319,2.32-2.319,6.08,0,8.401l53.361,53.363L2.237,117.361c-2.319,2.319-2.319,6.08,0,8.4
	c1.159,1.158,2.681,1.742,4.2,1.742s3.041-0.584,4.201-1.742L64,72.4l53.361,53.361c1.161,1.158,2.683,1.742,4.201,1.742
	s3.041-0.584,4.201-1.742c2.317-2.32,2.317-6.081,0-8.4L72.401,63.998z"/>
</svg>
