<?xml version="1.0" encoding="utf-8"?>
<!-- Generator: Adobe Illustrator 16.0.0, SVG Export Plug-In . SVG Version: 6.00 Build 0)  -->
<!DOCTYPE svg PUBLIC "-//W3C//DTD SVG 1.1//EN" "http://www.w3.org/Graphics/SVG/1.1/DTD/svg11.dtd">
<svg version="1.1" id="Capa_1" xmlns="http://www.w3.org/2000/svg" xmlns:xlink="http://www.w3.org/1999/xlink" x="0px" y="0px"
	 width="128px" height="128px" viewBox="0 0 128 128" enable-background="new 0 0 128 128" xml:space="preserve">
<g>
	<path fill="#010202" d="M108.573,0H25.546C14.69,0,6.387,8.302,6.387,19.16v25.547H19.16V19.16c0-3.832,2.555-6.387,6.386-6.387
		h83.027c3.832,0,6.387,2.555,6.387,6.387v89.414c0,3.831-2.555,6.387-6.387,6.387H25.546c-3.832,0-6.386-2.556-6.386-6.387V83.027
		H6.387v25.546c0,10.857,8.303,19.16,19.16,19.16h83.027c10.857,0,19.16-8.303,19.16-19.16V19.16C127.733,8.302,119.431,0,108.573,0
		z"/>
	<polygon fill="#010202" points="48.539,86.22 58.119,95.8 89.414,63.867 58.119,31.934 48.539,41.513 65.144,57.48 0,57.48 
		0,70.254 65.144,70.254 	"/>
</g>
</svg>
