<?xml version="1.0" encoding="utf-8"?>
<!-- Generator: Adobe Illustrator 16.0.0, SVG Export Plug-In . SVG Version: 6.00 Build 0)  -->
<!DOCTYPE svg PUBLIC "-//W3C//DTD SVG 1.1//EN" "http://www.w3.org/Graphics/SVG/1.1/DTD/svg11.dtd">
<svg version="1.1" id="Capa_1" xmlns="http://www.w3.org/2000/svg" xmlns:xlink="http://www.w3.org/1999/xlink" x="0px" y="0px"
	 width="174.34px" height="128px" viewBox="0 0 174.34 128" enable-background="new 0 0 174.34 128" xml:space="preserve">
<path stroke="#000000" stroke-width="0.0801" stroke-linecap="round" stroke-linejoin="round" d="M65.992,83.654"/>
<path stroke="#000000" stroke-width="0.0801" stroke-linecap="round" stroke-linejoin="round" d="M66.865,81.163"/>
<g>
	<path d="M159.324,64.201c0,3.192-2.442,5.629-5.632,5.629H66.415c-2.252,6.569-8.633,11.263-15.954,11.263
		c-7.32,0-13.514-4.693-15.954-11.263h-12.2c-3.191,0-5.631-2.438-5.631-5.629c0-3.191,2.44-5.631,5.631-5.631h12.2
		C36.76,52,43.141,47.308,50.461,47.308c7.321,0,13.514,4.692,15.954,11.262h87.277C156.882,58.569,159.324,61.009,159.324,64.201z
		 M153.692,105.494h-49.738C101.701,98.925,95.321,94.231,88,94.231c-7.32,0-13.514,4.693-15.954,11.263H22.307
		c-3.191,0-5.631,2.438-5.631,5.629s2.44,5.632,5.631,5.632h49.739c2.253,6.569,8.634,11.261,15.954,11.261
		c7.321,0,13.515-4.691,15.954-11.261h49.738c3.189,0,5.632-2.44,5.632-5.632S156.882,105.494,153.692,105.494z M22.307,22.907
		h87.277c2.253,6.569,8.635,11.262,15.956,11.262c7.319,0,13.514-4.693,15.952-11.262h12.2c3.189,0,5.632-2.44,5.632-5.63
		c0-3.191-2.442-5.631-5.632-5.631h-12.2c-2.251-6.57-8.633-11.262-15.952-11.262c-7.321,0-13.515,4.692-15.956,11.262H22.307
		c-3.191,0-5.631,2.44-5.631,5.631C16.676,20.467,19.116,22.907,22.307,22.907z"/>
</g>
</svg>
