<?xml version="1.0" encoding="utf-8"?>
<!-- Generator: Adobe Illustrator 16.0.0, SVG Export Plug-In . SVG Version: 6.00 Build 0)  -->
<!DOCTYPE svg PUBLIC "-//W3C//DTD SVG 1.1//EN" "http://www.w3.org/Graphics/SVG/1.1/DTD/svg11.dtd">
<svg version="1.1" id="Capa_1" xmlns="http://www.w3.org/2000/svg" xmlns:xlink="http://www.w3.org/1999/xlink" x="0px" y="0px"
	 width="128px" height="128px" viewBox="0 0 128 128" enable-background="new 0 0 128 128" xml:space="preserve">
<g transform="matrix( 1, 0, 0, 1, 0,0) ">
	<g>
		<g id="b">
			<path fill="#010202" d="M19.201,64.368v53.188h30.658v-24.17h27.415v24.17h30.889V63.875L63.219,28.533L19.201,64.368
				 M35.032,16.377H19.356v21.782l15.676-12.578V16.377 M121.061,66.966l6.642-7.095L64.3,9L0.358,60.222l7.182,6.466L64.3,21.155
				L121.061,66.966z"/>
		</g>
	</g>
	<g>
		<path id="a" fill="none" stroke="#010202" stroke-linecap="round" stroke-linejoin="round" d="M7.541,66.688l-7.182-6.466L64.3,9
			l63.402,50.871l-6.642,7.095L64.3,21.155L7.541,66.688z M35.032,25.582v-9.204H19.356v21.782L35.032,25.582z M19.201,64.368
			l44.018-35.835l44.944,35.342v53.681H77.274v-24.17H49.859v24.17H19.201V64.368z"/>
	</g>
</g>
</svg>
