<?xml version="1.0" encoding="utf-8"?>
<!-- Generator: Adobe Illustrator 16.0.0, SVG Export Plug-In . SVG Version: 6.00 Build 0)  -->
<!DOCTYPE svg PUBLIC "-//W3C//DTD SVG 1.1//EN" "http://www.w3.org/Graphics/SVG/1.1/DTD/svg11.dtd">
<svg version="1.1" id="Capa_1" xmlns="http://www.w3.org/2000/svg" xmlns:xlink="http://www.w3.org/1999/xlink" x="0px" y="0px"
	 width="128px" height="128px" viewBox="0 0 128 128" enable-background="new 0 0 128 128" xml:space="preserve">
<g transform="translate(0,-952.36218)">
	<path fill="#010202" d="M64.135,956.377c0.598,0.05,1.178,0.292,1.635,0.68l60.994,52.282c1.152,0.998,1.294,2.955,0.297,4.107
		c-0.999,1.152-2.956,1.294-4.108,0.295l-59.089-50.647l-59.089,50.647c-1.152,0.999-3.109,0.857-4.107-0.295
		s-0.857-3.109,0.295-4.107l60.995-52.281C62.552,956.55,63.358,956.298,64.135,956.377L64.135,956.377z M36.27,956.467v18.744
		l-11.618,9.984v-28.728H36.27z M63.863,967.995l46.472,39.211v68.257H17.391v-68.257L63.863,967.995z M87.1,1014.468H66.768v20.332
		H87.1V1014.468z M60.959,1014.468H40.627v20.332h20.332V1014.468z M87.1,1040.608H66.768v20.332H87.1V1040.608z M60.959,1040.608
		H40.627v20.332h20.332V1040.608z"/>
</g>
</svg>
