<?xml version="1.0" encoding="utf-8"?>
<!-- Generator: Adobe Illustrator 16.0.0, SVG Export Plug-In . SVG Version: 6.00 Build 0)  -->
<!DOCTYPE svg PUBLIC "-//W3C//DTD SVG 1.1//EN" "http://www.w3.org/Graphics/SVG/1.1/DTD/svg11.dtd">
<svg version="1.1" id="Capa_1" xmlns="http://www.w3.org/2000/svg" xmlns:xlink="http://www.w3.org/1999/xlink" x="0px" y="0px"
	 width="128px" height="128px" viewBox="0 0 128 128" enable-background="new 0 0 128 128" xml:space="preserve">
<g>
	<path d="M94.842,79.191c7.685,1.426,14.929-3.684,16.338-11.349c1.405-7.662-3.703-14.899-11.349-16.326
		c-2.416-0.425-4.83-0.276-7.108,0.575l0.139,6.386l1.288,1.416c-0.416,0.287-0.854,0.712-1.128,1.138v2.129l2.534,0.425
		c1.285-2.692,2.852-5.535,6.535-4.822c2.97,0.564,4.97,2.98,4.672,6.95l2.417,0.427l-0.417,2.553l-2.278-0.563
		c-0.711,2.831-2.256,4.682-3.958,5.832l-2.576-2.575c1.289-0.851,2.415-2.127,3.129-3.832l-4.237-0.702
		c-1.149,2.407-2.416,4.811-5.268,4.971l0.279,7.245C94.149,79.07,94.426,79.191,94.842,79.191z"/>
	<path d="M93.296,65.715v1.703c0.438-0.138,0.854-0.713,1.268-1.563L93.296,65.715z"/>
	<path d="M91.734,16.884l0.988,30.098c2.555-0.712,5.249-0.851,8.101-0.286c10.356,1.842,17.167,11.782,15.326,22.14
		c-1.861,10.355-11.783,17.166-22.14,15.345l0,0l0.832,25.266l-14.336,0.417l30.532,5.524l16.754-91.83L91.734,16.884z"/>
	<path d="M102.091,62.597c-0.852-0.148-1.546,0.565-2.141,1.703l3.704,0.703C103.515,63.587,102.801,62.736,102.091,62.597z"/>
	<path d="M62.348,72.538c1.563,0.416,3.128,0.711,4.831,0.711c7.802-0.295,13.762-6.82,13.623-14.484
		c-0.296-7.812-6.81-13.771-14.475-13.634c-3.979,0.148-7.524,1.851-9.94,4.684l1.564,5.821c0.426-1.277,0.989-2.267,1.841-3.268
		l2.981,2.139c-0.851,0.99-1.416,2.268-1.703,3.406l3.832-0.149c0.573-2.84,1.563-6.098,5.386-6.098
		c2.99-0.149,5.406,1.841,5.979,5.821l2.535-0.149l0.159,2.555l-2.416,0.149c-0.138,2.831-1.149,5.109-2.694,6.523l-2.99-1.99
		c1.012-0.989,2.001-2.553,2.279-4.396l-4.396,0.139c-0.573,2.842-1.565,5.959-5.258,6.109c-0.852,0-1.842-0.149-2.554-0.574
		L62.348,72.538z"/>
	<path d="M64.053,60.32l-3.408,0.149c0.147,1.276,0.852,1.842,1.851,1.842C63.486,62.311,63.773,61.458,64.053,60.32z"/>
	<path d="M70.585,55.498c-0.852,0-1.287,0.852-1.703,2.129l3.703-0.139C72.29,56.211,71.436,55.498,70.585,55.498z"/>
	<path d="M87.476,11.924l-41.019,1.278l8.375,31.227c3.12-2.555,6.951-3.979,11.217-4.119c10.497-0.287,19.288,7.95,19.566,18.308
		c0.297,10.504-7.921,19.308-18.3,19.582c-1.146,0-2.413,0-3.542-0.274l7.386,27.82l19.444-0.573L87.476,11.924z"/>
	<path d="M36.655,58.904c-0.852,0.287-1.128,1.139-1.128,2.416l3.544-1C38.506,59.043,37.506,58.617,36.655,58.904z"/>
	<path d="M30.417,67.28c0.702-0.149,0.991-1.001,0.991-2.277l-3.268,0.852C28.714,67.131,29.565,67.557,30.417,67.28z"/>
	<path d="M0.042,24.131L24.17,114.26l43.287-11.505L43.329,12.488L0.042,24.131z M51.992,58.478
		c2.693,10.08-3.267,20.592-13.485,23.287c-10.08,2.692-20.584-3.286-23.278-13.495c-2.702-10.078,3.268-20.583,13.486-23.276
		C38.932,42.301,49.288,48.399,51.992,58.478z"/>
	<path d="M30.13,49.815c-7.525,1.99-11.92,9.653-9.931,17.177c1.979,7.524,9.644,11.922,17.168,9.94
		c7.524-1.98,11.92-9.652,9.94-17.178C45.317,52.231,37.506,47.834,30.13,49.815z M42.338,59.468l2.416-0.703l0.703,2.554
		l-2.406,0.564c0.564,2.842,0,5.108-1.138,6.952l-3.406-1.279c0.713-1.277,1.276-2.98,1.139-4.82l-4.268,1.137
		c0,2.981-0.14,6.099-3.833,7.089c-2.693,0.702-5.533-0.851-6.812-4.258l-2.405,0.713l-0.575-2.415l2.554-0.703
		c-0.277-2.277,0-4.257,1-5.96l3.258,1.416c-0.565,1.14-0.852,2.416-0.852,3.693l3.693-1c0-2.98,0.137-6.237,3.83-7.237
		C38.219,54.359,40.922,55.636,42.338,59.468z"/>
</g>
</svg>
