<?xml version="1.0" encoding="utf-8"?>
<!-- Generator: Adobe Illustrator 16.0.0, SVG Export Plug-In . SVG Version: 6.00 Build 0)  -->
<!DOCTYPE svg PUBLIC "-//W3C//DTD SVG 1.1//EN" "http://www.w3.org/Graphics/SVG/1.1/DTD/svg11.dtd">
<svg version="1.1" id="Capa_1" xmlns="http://www.w3.org/2000/svg" xmlns:xlink="http://www.w3.org/1999/xlink" x="0px" y="0px"
	 width="128px" height="128px" viewBox="0 0 128 128" enable-background="new 0 0 128 128" xml:space="preserve">
<path d="M44.375,72.271L1.648,109.512c-0.998-1.664-1.663-3.492-1.663-5.486V45.836c0-2.991,1.329-5.819,3.491-7.646L44.375,72.271z
	 M71.972,81.914c-4.654,3.822-11.304,3.822-15.959,0l-7.648-6.483L5.471,112.837C6.802,113.502,8.297,114,9.961,114h108.063
	c1.664,0,3.159-0.334,4.49-1.163l-42.896-37.24L71.972,81.914z M124.508,38.189L83.609,72.271l42.729,37.241
	c0.996-1.664,1.662-3.492,1.662-5.486V45.836C128,42.845,126.671,40.017,124.508,38.189z M70.975,74.267l53.368-36.244
	c-1.663-1.33-3.822-2.161-6.318-2.161H9.961c-2.328,0-4.49,0.831-6.318,2.161L57.01,74.267
	C61.167,77.259,66.818,77.259,70.975,74.267z"/>
</svg>
