<?xml version="1.0" encoding="utf-8"?>
<!-- Generator: Adobe Illustrator 22.1.0, SVG Export Plug-In . SVG Version: 6.00 Build 0)  -->
<svg version="1.1" id="Capa_1" xmlns="http://www.w3.org/2000/svg" xmlns:xlink="http://www.w3.org/1999/xlink" x="0px" y="0px"
	 viewBox="0 0 77.9 128" style="enable-background:new 0 0 77.9 128;" xml:space="preserve">
<style type="text/css">
	.st0{fill:#0060A8;}
	.st1{fill:#FFFFFF;}
</style>
<path class="st0" d="M38.9,0.4C17.4,0.4,0,17.8,0,39.3c0,35.4,38.9,88.5,38.9,88.5S77.9,73,77.9,39.3C77.9,17.8,60.4,0.4,38.9,0.4z"
	/>
<path class="st1" d="M61.8,62.4h-2.3V34.9c0-0.7-0.6-1.3-1.3-1.3l0,0H50V19.1c0-0.7-0.6-1.3-1.3-1.3l0,0H29c-0.7,0-1.3,0.6-1.3,1.3
	l0,0v3.2h-8.1c-0.7,0-1.3,0.6-1.3,1.3l0,0v38.9H16c-0.7,0-1.3,0.5-1.4,1.2c0,0.7,0.5,1.3,1.2,1.4c0.1,0,0.1,0,0.2,0h45.8
	c0.7,0,1.3-0.7,1.2-1.4C63,63,62.4,62.5,61.8,62.4z M46.6,37.8c0-0.3,0.3-0.6,0.6-0.6h2.2c0.3,0,0.6,0.3,0.6,0.6V40
	c0,0.3-0.3,0.6-0.6,0.6h-2.2c-0.3,0-0.6-0.3-0.6-0.6L46.6,37.8z M50,43.5v2.2c0,0.3-0.3,0.6-0.6,0.6h-2.2c-0.3,0-0.6-0.3-0.6-0.6
	v-2.2c0-0.3,0.3-0.6,0.6-0.6c0,0,0,0,0,0h2.2C49.7,42.9,50,43.1,50,43.5C50,43.5,50,43.5,50,43.5L50,43.5z M46.6,49.2
	c0-0.3,0.3-0.6,0.6-0.6h2.2c0.3,0,0.6,0.3,0.6,0.6v2.2c0,0.3-0.3,0.6-0.6,0.6h-2.2c-0.3,0-0.6-0.3-0.6-0.6L46.6,49.2z M40.6,43.5
	c0-0.3,0.3-0.6,0.6-0.6c0,0,0,0,0,0h2.2c0.3,0,0.6,0.3,0.6,0.6l0,0v2.2c0,0.3-0.3,0.6-0.6,0.6l0,0h-2.2c-0.3,0-0.6-0.3-0.6-0.6l0,0
	L40.6,43.5L40.6,43.5z M27.7,26.4c0-0.3,0.3-0.6,0.6-0.6c0,0,0,0,0,0h2.2c0.3,0,0.6,0.3,0.6,0.6l0,0v2.2c0,0.3-0.3,0.6-0.6,0.6
	c0,0,0,0,0,0h-2.2c-0.3,0-0.6-0.3-0.6-0.6L27.7,26.4L27.7,26.4z M27.7,32.1c0-0.3,0.3-0.6,0.6-0.6h2.2c0.3,0,0.6,0.3,0.6,0.6l0,0
	v2.2c0,0.3-0.3,0.6-0.6,0.6h-2.2c-0.3,0-0.6-0.3-0.6-0.6l0,0V32.1z M27.7,37.8c0-0.3,0.3-0.6,0.6-0.6l0,0h2.2c0.3,0,0.6,0.3,0.6,0.6
	l0,0V40c0,0.3-0.3,0.6-0.6,0.6h-2.2c-0.3,0-0.6-0.3-0.6-0.6l0,0V37.8z M27.7,43.5c0-0.3,0.3-0.6,0.6-0.6c0,0,0,0,0,0h2.2
	c0.3,0,0.6,0.3,0.6,0.6l0,0v2.2c0,0.3-0.3,0.6-0.6,0.6c0,0,0,0,0,0h-2.2c-0.3,0-0.6-0.3-0.6-0.6l0,0L27.7,43.5L27.7,43.5z
	 M27.7,49.2c0-0.3,0.3-0.6,0.6-0.6h2.2c0.3,0,0.6,0.3,0.6,0.6v2.2c0,0.3-0.3,0.6-0.6,0.6h-2.2c-0.3,0-0.6-0.3-0.6-0.6V49.2z
	 M25.3,51.4c0,0.3-0.3,0.6-0.6,0.6h-2.2c-0.3,0-0.6-0.3-0.6-0.6c0,0,0,0,0,0v-2.2c0-0.3,0.3-0.6,0.6-0.6h2.2c0.3,0,0.6,0.3,0.6,0.6
	L25.3,51.4z M25.3,45.7c0,0.3-0.3,0.6-0.6,0.6l0,0h-2.2c-0.3,0-0.6-0.3-0.6-0.6c0,0,0,0,0,0v-2.2c0-0.3,0.3-0.6,0.6-0.6c0,0,0,0,0,0
	h2.2c0.3,0,0.6,0.3,0.6,0.6l0,0C25.3,43.5,25.3,45.7,25.3,45.7z M25.3,40c0,0.3-0.3,0.6-0.6,0.6l0,0h-2.2c-0.3,0-0.6-0.3-0.6-0.6
	c0,0,0,0,0,0v-2.2c0-0.3,0.3-0.6,0.6-0.6l0,0h2.2c0.3,0,0.6,0.3,0.6,0.6l0,0L25.3,40z M25.3,34.3c0,0.3-0.3,0.6-0.6,0.6l0,0h-2.2
	c-0.3,0-0.6-0.3-0.6-0.6c0,0,0,0,0,0v-2.2c0-0.3,0.3-0.6,0.6-0.6h2.2c0.3,0,0.6,0.3,0.6,0.6L25.3,34.3z M25.3,28.7
	c0,0.3-0.3,0.6-0.6,0.6h-2.2c-0.3,0-0.6-0.3-0.6-0.6c0,0,0,0,0,0v-2.2c0-0.3,0.3-0.6,0.6-0.6c0,0,0,0,0,0h2.2c0.3,0,0.6,0.3,0.6,0.6
	C25.3,26.4,25.3,28.7,25.3,28.7z M32.5,62.4h-6.1v-7.6c0-0.3,0.3-0.6,0.6-0.6h4.8c0.3,0,0.6,0.3,0.6,0.6L32.5,62.4z M37.1,51.4
	c0,0.3-0.3,0.6-0.6,0.6h-2.2c-0.3,0-0.6-0.3-0.6-0.6v-2.2c0-0.3,0.3-0.6,0.6-0.6h2.2c0.3,0,0.6,0.3,0.6,0.6V51.4L37.1,51.4z
	 M37.1,45.7c0,0.3-0.3,0.6-0.6,0.6l0,0h-2.2c-0.3,0-0.6-0.3-0.6-0.6l0,0v-2.2c0-0.3,0.3-0.6,0.6-0.6c0,0,0,0,0,0h2.2
	c0.3,0,0.6,0.3,0.6,0.6l0,0V45.7z M37.1,40c0,0.3-0.3,0.6-0.6,0.6l0,0h-2.2c-0.3,0-0.6-0.3-0.6-0.6l0,0v-2.2c0-0.3,0.3-0.6,0.6-0.6
	l0,0h2.2c0.3,0,0.6,0.3,0.6,0.6l0,0V40L37.1,40z M37.1,34.3c0,0.3-0.3,0.6-0.6,0.6l0,0h-2.2c-0.3,0-0.6-0.3-0.6-0.6l0,0v-2.2
	c0-0.3,0.3-0.6,0.6-0.6l0,0h2.2c0.3,0,0.6,0.3,0.6,0.6l0,0V34.3L37.1,34.3z M37.1,28.6c0,0.3-0.3,0.6-0.6,0.6l0,0h-2.2
	c-0.3,0-0.6-0.3-0.6-0.6l0,0v-2.2c0-0.3,0.3-0.6,0.6-0.6c0,0,0,0,0,0h2.2c0.3,0,0.6,0.3,0.6,0.6l0,0V28.6z M44.1,51.4
	c0,0.3-0.3,0.6-0.6,0.6h-2.2c-0.3,0-0.6-0.3-0.6-0.6v-2.2c0-0.3,0.3-0.6,0.6-0.6h2.2c0.3,0,0.6,0.3,0.6,0.6L44.1,51.4z M44.1,40
	c0,0.3-0.3,0.6-0.6,0.6l0,0h-2.2c-0.3,0-0.6-0.3-0.6-0.6l0,0v-2.2c0-0.3,0.3-0.6,0.6-0.6l0,0h2.2c0.3,0,0.6,0.3,0.6,0.6l0,0L44.1,40
	z M51.3,62.4h-6.1v-7.6c0-0.3,0.3-0.6,0.6-0.6h4.8c0.3,0,0.6,0.3,0.6,0.6L51.3,62.4L51.3,62.4z M55.9,51.4c0,0.3-0.3,0.6-0.6,0.6
	h-2.2c-0.3,0-0.6-0.3-0.6-0.6v-2.2c0-0.3,0.3-0.6,0.6-0.6h2.2c0.3,0,0.6,0.3,0.6,0.6V51.4z M55.9,45.7c0,0.3-0.3,0.6-0.6,0.6h-2.2
	c-0.3,0-0.6-0.3-0.6-0.6v-2.2c0-0.3,0.3-0.6,0.6-0.6c0,0,0,0,0,0h2.2c0.3,0,0.6,0.3,0.6,0.6c0,0,0,0,0,0L55.9,45.7L55.9,45.7z
	 M55.9,40c0,0.3-0.3,0.6-0.6,0.6h-2.2c-0.3,0-0.6-0.3-0.6-0.6v-2.2c0-0.3,0.3-0.6,0.6-0.6h2.2c0.3,0,0.6,0.3,0.6,0.6V40z"/>
</svg>
