<?xml version="1.0" encoding="utf-8"?>
<!-- Generator: Adobe Illustrator 16.0.0, SVG Export Plug-In . SVG Version: 6.00 Build 0)  -->
<!DOCTYPE svg PUBLIC "-//W3C//DTD SVG 1.1//EN" "http://www.w3.org/Graphics/SVG/1.1/DTD/svg11.dtd">
<svg version="1.1" id="Capa_1" xmlns="http://www.w3.org/2000/svg" xmlns:xlink="http://www.w3.org/1999/xlink" x="0px" y="0px"
	 width="77.875px" height="128px" viewBox="25.563 0 77.875 128" enable-background="new 25.563 0 77.875 128" xml:space="preserve"
	>
<path fill="#5DB426" d="M64.506,0.394c-21.504,0-38.943,17.438-38.943,38.943c0,35.41,38.943,88.519,38.943,88.519
	s38.932-54.875,38.932-88.519C103.438,17.833,86.01,0.394,64.506,0.394z"/>
<g>
	<path fill="#FFFFFF" d="M62.674,21.908h-2.626v2.948h2.626V21.908z M65.715,21.908h-2.58v2.948h2.58V21.908L65.715,21.908z
		 M58.545,24.856h1.043v-2.947h-1.043c-0.815,0-1.478,0.659-1.478,1.474C57.069,24.198,57.73,24.856,58.545,24.856z M71.797,23.383
		c0-0.815-0.662-1.475-1.475-1.475h-1.016v2.948h1.016C71.135,24.856,71.797,24.198,71.797,23.383z M47.752,49.274v0.313
		c0,1.291,0.47,3.302,1.049,4.48l4.264,8.692c0.596,1.219,2.11,2.21,3.375,2.21h16.121c1.264,0,2.771-0.991,3.371-2.209l4.258-8.69
		c0.576-1.171,1.043-3.182,1.043-4.48v-0.348c-3.015,1.84-7.943,3.105-16.731,3.105C55.517,52.346,50.723,51.099,47.752,49.274z
		 M64.538,55.827c-0.644,0-1.164-0.521-1.164-1.165c0-0.259,0.085-0.5,0.229-0.693l1.644,1.619
		C65.052,55.739,64.807,55.827,64.538,55.827z M65.703,54.663c0,0.244-0.073,0.472-0.203,0.658l-1.632-1.607
		c0.191-0.136,0.421-0.216,0.672-0.216C65.184,53.498,65.703,54.02,65.703,54.663z M68.8,21.908h-2.579v2.948H68.8V21.908z
		 M58.545,25.484h11.777c1.168,0,2.115-0.95,2.115-2.12c0-1.169-0.947-2.12-2.115-2.12H58.545c-1.168,0-2.119,0.951-2.119,2.12
		C56.426,24.534,57.377,25.484,58.545,25.484z M58.545,21.565h11.777c0.99,0,1.798,0.805,1.798,1.799
		c0,0.993-0.808,1.798-1.798,1.798H58.545c-0.993,0-1.798-0.806-1.798-1.798C56.746,22.371,57.553,21.565,58.545,21.565z
		 M81.572,18.011c-2.526-2.208-7.309-3.012-17.072-3.012c-9.786,0-14.573,0.799-17.074,2.971c-2.454,2.132-2.868,6.243-2.868,14.654
		c0,8.419,0.412,12.532,2.85,14.658c2.495,2.17,7.29,3.506,17.092,3.506c9.782,0,14.57-1.343,17.09-3.55
		c2.439-2.137,2.854-6.236,2.854-14.615C84.441,24.252,84.029,20.156,81.572,18.011z M79.635,40.164
		c-0.232,2.522-0.677,4.022-1.396,4.721c-1.754,1.701-7.247,1.84-13.715,1.84c-6.485,0-11.995-0.137-13.724-1.804
		c-0.717-0.693-1.161-2.194-1.391-4.725c-0.187-2.047-0.226-4.538-0.226-7.648c0-3.108,0.038-5.597,0.228-7.643
		c0.234-2.529,0.68-4.03,1.404-4.729c1.734-1.669,7.233-1.806,13.707-1.806c6.455,0,11.941,0.139,13.699,1.842
		c0.729,0.703,1.176,2.206,1.41,4.726c0.189,2.037,0.229,4.516,0.229,7.609C79.859,35.645,79.822,38.125,79.635,40.164z
		 M67.143,43.832h-5.25c-0.128,0-0.232,0.103-0.232,0.229v1.061c0,0.126,0.104,0.229,0.232,0.229h5.25
		c0.127,0,0.229-0.103,0.229-0.229v-1.061C67.37,43.934,67.27,43.832,67.143,43.832z M68.258,32.161
		c0.038,0.056,0.104,0.086,0.168,0.086c0.025,0,0.053-0.004,0.08-0.015l1.95-0.848c0.069-0.034,0.119-0.105,0.119-0.185
		c0-0.078-0.05-0.151-0.119-0.182l-1.95-0.854c-0.089-0.038-0.191-0.008-0.246,0.072c-0.056,0.081-0.044,0.176,0.022,0.243
		l0.479,0.457H60.62l-0.896-0.503c-0.022-0.012-0.046-0.004-0.074-0.004h-1.166c-0.067,0-0.125,0.04-0.145,0.105
		c-0.016,0.064,0.012,0.13,0.071,0.164l0.871,0.5l-0.87,0.5c-0.06,0.033-0.088,0.109-0.072,0.175c0.018,0.065,0.077,0.12,0.145,0.12
		h1.166c0.028,0,0.053-0.015,0.074-0.027l0.901-0.525h8.137l-0.479,0.463C68.215,31.976,68.204,32.081,68.258,32.161z
		 M61.154,42.219h1.335c0.141,0,0.253-0.113,0.253-0.253c0-0.141-0.113-0.253-0.253-0.253h-1.335c-0.14,0-0.253,0.112-0.253,0.253
		C60.901,42.106,61.015,42.219,61.154,42.219z M75.043,33.547c-2.061,0.582-4.754,1.121-7.574,1.35c0,0-1.328,0.034-1.691,1.499
		c0,0-0.478,0.239-1.264,0.239h-0.006c-0.785,0-1.264-0.239-1.264-0.239c-0.363-1.464-1.693-1.499-1.693-1.499
		c-2.821-0.229-5.584-0.768-7.643-1.35c-0.483-0.135-1.3-0.115-1.413,0.842c-0.112,0.958,0.418,3.054,0.418,3.054
		c2.834,1.142,6.866,1.862,11.511,1.862h0.102c4.646,0,8.68-0.72,11.515-1.862c0,0,0.528-2.096,0.415-3.054
		C76.34,33.433,75.525,33.412,75.043,33.547z M53.324,36.972c-0.046-0.003-0.046-0.008-0.046-0.011v-0.495
		c0,0.003,0,0.008,0.046,0.01V36.972z M53.602,37.034c-0.046-0.004-0.046-0.007-0.046-0.012v-0.493c0,0.004,0,0.006,0.046,0.01
		V37.034z M53.923,37.103c-0.045-0.007-0.092-0.012-0.092-0.019V36.59c0,0.008,0.046,0.015,0.092,0.022V37.103z M54.292,37.18
		c-0.045-0.009-0.092-0.019-0.139-0.029V36.66c0.047,0.009,0.093,0.019,0.139,0.029V37.18z M54.66,37.254
		c-0.046-0.01-0.091-0.018-0.138-0.028v-0.49c0.046,0.01,0.092,0.018,0.138,0.028V37.254z M55.075,37.333
		c-0.092-0.012-0.138-0.023-0.185-0.035v-0.49c0.046,0.012,0.093,0.024,0.185,0.035V37.333z M55.535,37.417
		c-0.092-0.013-0.184-0.028-0.23-0.041v-0.489c0.046,0.012,0.138,0.028,0.23,0.042V37.417z M55.996,37.498
		c-0.092-0.014-0.184-0.026-0.23-0.039V36.97c0.046,0.012,0.138,0.025,0.23,0.039V37.498z M56.503,37.581
		c-0.091-0.014-0.186-0.029-0.277-0.044v-0.488c0.091,0.014,0.186,0.031,0.277,0.045V37.581z M57.056,37.667
		c-0.14-0.015-0.23-0.032-0.322-0.048V37.13c0.092,0.018,0.182,0.034,0.322,0.05V37.667z M57.654,37.753
		c-0.138-0.017-0.277-0.035-0.368-0.052v-0.487c0.092,0.018,0.229,0.035,0.368,0.053V37.753z M58.299,37.838
		c-0.139-0.018-0.276-0.036-0.416-0.054v-0.486c0.14,0.019,0.277,0.037,0.416,0.055V37.838z M58.989,37.92
		c-0.184-0.017-0.322-0.035-0.458-0.054v-0.484c0.137,0.017,0.275,0.036,0.458,0.053V37.92z M59.772,38.002
		c-0.184-0.018-0.368-0.037-0.554-0.057v-0.484c0.186,0.02,0.37,0.04,0.554,0.056V38.002z M60.602,38.076
		c-0.23-0.016-0.415-0.033-0.6-0.053V37.54c0.185,0.019,0.37,0.035,0.6,0.053V38.076z M61.477,38.142
		c-0.231-0.015-0.461-0.031-0.646-0.047v-0.482c0.185,0.017,0.415,0.031,0.646,0.046V38.142z M62.398,38.192
		c-0.229-0.013-0.46-0.025-0.692-0.038v-0.48c0.23,0.013,0.461,0.025,0.692,0.036V38.192z M63.364,38.227
		c-0.276-0.007-0.506-0.015-0.735-0.025v-0.481c0.229,0.01,0.459,0.017,0.735,0.024V38.227z M64.377,38.241
		c-0.277,0-0.553-0.003-0.784-0.01V37.75c0.23,0.004,0.507,0.008,0.784,0.01V38.241z M65.393,38.232
		c-0.279,0.006-0.555,0.009-0.783,0.009v-0.48c0.229,0,0.504-0.004,0.783-0.009V38.232z M66.357,38.204
		c-0.272,0.01-0.504,0.017-0.737,0.023v-0.482c0.233-0.007,0.465-0.014,0.737-0.022V38.204z M67.279,38.159
		c-0.23,0.012-0.463,0.024-0.692,0.035V37.71c0.229-0.008,0.462-0.021,0.692-0.035V38.159z M68.15,38.099
		c-0.228,0.017-0.455,0.032-0.645,0.045v-0.481c0.188-0.015,0.417-0.031,0.645-0.047V38.099z M68.982,38.029
		c-0.229,0.019-0.412,0.036-0.601,0.053v-0.484c0.188-0.016,0.37-0.033,0.601-0.051V38.029z M69.766,37.95
		c-0.184,0.02-0.365,0.039-0.554,0.057v-0.482c0.188-0.018,0.37-0.039,0.554-0.057V37.95z M70.458,37.873
		c-0.185,0.018-0.323,0.035-0.464,0.052v-0.483c0.141-0.017,0.279-0.035,0.464-0.054V37.873z M71.104,37.79
		c-0.14,0.017-0.277,0.035-0.416,0.053V37.36c0.141-0.018,0.277-0.036,0.416-0.055V37.79z M71.7,37.708
		c-0.138,0.018-0.274,0.034-0.366,0.052v-0.486c0.092-0.017,0.229-0.034,0.366-0.053V37.708z M72.251,37.625
		c-0.135,0.016-0.228,0.033-0.319,0.049v-0.487c0.092-0.016,0.187-0.032,0.319-0.049V37.625z M72.762,37.543
		c-0.095,0.015-0.187,0.031-0.279,0.046v-0.487c0.095-0.016,0.187-0.03,0.279-0.046V37.543z M73.219,37.467
		c-0.091,0.013-0.182,0.026-0.229,0.04v-0.489c0.047-0.014,0.138-0.026,0.229-0.04V37.467z M73.682,37.385
		c-0.094,0.013-0.184,0.026-0.229,0.042v-0.489c0.045-0.015,0.135-0.027,0.229-0.041V37.385z M74.094,37.308
		c-0.091,0.011-0.137,0.023-0.183,0.035v-0.489c0.046-0.012,0.092-0.024,0.183-0.035V37.308z M74.464,37.236
		c-0.045,0.01-0.092,0.018-0.139,0.027v-0.49c0.047-0.01,0.094-0.019,0.139-0.027V37.236z M74.832,37.161
		c-0.046,0.01-0.094,0.019-0.141,0.03v-0.492c0.047-0.01,0.095-0.02,0.141-0.029V37.161z M75.154,37.093
		c-0.047,0.007-0.092,0.012-0.092,0.02v-0.492c0-0.007,0.045-0.014,0.092-0.021V37.093z M75.434,37.034
		c-0.047,0.003-0.047,0.007-0.047,0.011v-0.494c0-0.004,0-0.008,0.047-0.011V37.034z M75.706,36.972
		c-0.045,0.004-0.045,0.007-0.045,0.011v-0.494c0-0.005,0-0.008,0.045-0.012V36.972z M69.994,42.267h-6.031
		c-0.14,0-0.253,0.113-0.253,0.251c0,0.14,0.113,0.255,0.253,0.255h6.031c0.143,0,0.254-0.116,0.254-0.255
		C70.248,42.38,70.137,42.267,69.994,42.267z M61.799,26.975v2.073h5.436v-2.073H61.799z M65.458,33.487h-1.874
		c-0.071,0-0.136,0.036-0.171,0.096c-0.037,0.06-0.04,0.135-0.007,0.196l0.913,1.775c0.036,0.066,0.127,0.111,0.178,0.107
		c0.073,0,0.14-0.04,0.175-0.104l0.965-1.774c0.032-0.062,0.031-0.138-0.006-0.197C65.596,33.524,65.533,33.487,65.458,33.487z
		 M59.956,41.759h-4.007c-0.125,0-0.229,0.104-0.229,0.23v1.061c0,0.125,0.104,0.228,0.229,0.228h4.007
		c0.127,0,0.231-0.099,0.231-0.228v-1.061C60.187,41.863,60.084,41.759,59.956,41.759z M62.698,43.026
		c0-0.141-0.114-0.253-0.253-0.253h-1.29c-0.14,0-0.253,0.113-0.253,0.253s0.114,0.251,0.253,0.251h1.29
		C62.584,43.277,62.698,43.167,62.698,43.026z"/>
</g>
</svg>
