<?xml version="1.0" encoding="utf-8"?>
<!-- Generator: Adobe Illustrator 22.1.0, SVG Export Plug-In . SVG Version: 6.00 Build 0)  -->
<svg version="1.1" id="Capa_1" xmlns="http://www.w3.org/2000/svg" xmlns:xlink="http://www.w3.org/1999/xlink" x="0px" y="0px"
	 viewBox="0 0 77.9 128" style="enable-background:new 0 0 77.9 128;" xml:space="preserve">
<style type="text/css">
	.st0{fill:#0060A8;}
	.st1{fill:#FFFFFF;}
</style>
<path class="st0" d="M38.9,0.4C17.4,0.4,0,17.8,0,39.3c0,35.4,38.9,88.5,38.9,88.5S77.9,73,77.9,39.3C77.9,17.8,60.4,0.4,38.9,0.4z"
	/>
<g>
	<path class="st1" d="M36,24.6L17.9,35v3h3v18.1h-3v3h-3v3h48.3v-3h-3v-3h-3V38h3v-3L39.1,22.9v-3h3v3h6v-6h-3v-3h-9
		C36,13.8,36,24.6,36,24.6z M30,56.1h-3V38h3V56.1z M42.1,56.1h-6V38h6V56.1z M51.1,56.1h-3V38h3V56.1z"/>
</g>
</svg>
