<?xml version="1.0" encoding="utf-8"?>
<!-- Generator: Adobe Illustrator 22.1.0, SVG Export Plug-In . SVG Version: 6.00 Build 0)  -->
<svg version="1.1" id="Capa_1" xmlns="http://www.w3.org/2000/svg" xmlns:xlink="http://www.w3.org/1999/xlink" x="0px" y="0px"
	 viewBox="0 0 77.9 128" style="enable-background:new 0 0 77.9 128;" xml:space="preserve">
<style type="text/css">
	.st0{fill:#0060A8;}
	.st1{fill:#FFFFFF;}
</style>
<path class="st0" d="M38.9,0.4C17.4,0.4,0,17.8,0,39.3c0,35.4,38.9,88.5,38.9,88.5S77.9,73,77.9,39.3C77.9,17.8,60.4,0.4,38.9,0.4z"
	/>
<g>
	<path class="st1" d="M37.1,21.9h-2.6v2.9h2.6V21.9z M40.2,21.9h-2.6v2.9h2.6V21.9L40.2,21.9z M33,24.9h1v-2.9h-1
		c-0.8,0-1.5,0.7-1.5,1.5C31.5,24.2,32.2,24.9,33,24.9z M46.2,23.4c0-0.8-0.7-1.5-1.5-1.5h-1v2.9h1C45.6,24.9,46.2,24.2,46.2,23.4z
		 M22.2,49.3v0.3c0,1.3,0.5,3.3,1,4.5l4.3,8.7c0.6,1.2,2.1,2.2,3.4,2.2H47c1.3,0,2.8-1,3.4-2.2l4.3-8.7c0.6-1.2,1-3.2,1-4.5v-0.3
		c-3,1.8-7.9,3.1-16.7,3.1C30,52.3,25.2,51.1,22.2,49.3z M39,55.8c-0.6,0-1.2-0.5-1.2-1.2c0-0.3,0.1-0.5,0.2-0.7l1.6,1.6
		C39.5,55.7,39.2,55.8,39,55.8z M40.1,54.7c0,0.2-0.1,0.5-0.2,0.7l-1.6-1.6c0.2-0.1,0.4-0.2,0.7-0.2C39.6,53.5,40.1,54,40.1,54.7z
		 M43.2,21.9h-2.6v2.9h2.6V21.9z M33,25.5h11.8c1.2,0,2.1-1,2.1-2.1c0-1.2-0.9-2.1-2.1-2.1H33c-1.2,0-2.1,1-2.1,2.1
		C30.9,24.5,31.8,25.5,33,25.5z M33,21.6h11.8c1,0,1.8,0.8,1.8,1.8c0,1-0.8,1.8-1.8,1.8H33c-1,0-1.8-0.8-1.8-1.8
		C31.2,22.4,32,21.6,33,21.6z M56,18c-2.5-2.2-7.3-3-17.1-3c-9.8,0-14.6,0.8-17.1,3c-2.5,2.1-2.9,6.2-2.9,14.7
		c0,8.4,0.4,12.5,2.8,14.7c2.5,2.2,7.3,3.5,17.1,3.5c9.8,0,14.6-1.3,17.1-3.5c2.4-2.1,2.9-6.2,2.9-14.6C58.9,24.3,58.5,20.2,56,18z
		 M54.1,40.2c-0.2,2.5-0.7,4-1.4,4.7c-1.8,1.7-7.2,1.8-13.7,1.8c-6.5,0-12-0.1-13.7-1.8c-0.7-0.7-1.2-2.2-1.4-4.7
		c-0.2-2-0.2-4.5-0.2-7.6c0-3.1,0-5.6,0.2-7.6c0.2-2.5,0.7-4,1.4-4.7c1.7-1.7,7.2-1.8,13.7-1.8c6.5,0,11.9,0.1,13.7,1.8
		c0.7,0.7,1.2,2.2,1.4,4.7c0.2,2,0.2,4.5,0.2,7.6C54.3,35.6,54.3,38.1,54.1,40.2z M41.6,43.8h-5.3c-0.1,0-0.2,0.1-0.2,0.2v1.1
		c0,0.1,0.1,0.2,0.2,0.2h5.3c0.1,0,0.2-0.1,0.2-0.2v-1.1C41.8,43.9,41.7,43.8,41.6,43.8z M42.7,32.2c0,0.1,0.1,0.1,0.2,0.1
		c0,0,0.1,0,0.1,0l1.9-0.8c0.1,0,0.1-0.1,0.1-0.2c0-0.1-0.1-0.2-0.1-0.2l-1.9-0.9c-0.1,0-0.2,0-0.2,0.1c-0.1,0.1,0,0.2,0,0.2
		l0.5,0.5h-8.1l-0.9-0.5c0,0,0,0-0.1,0h-1.2c-0.1,0-0.1,0-0.1,0.1c0,0.1,0,0.1,0.1,0.2l0.9,0.5l-0.9,0.5c-0.1,0-0.1,0.1-0.1,0.2
		c0,0.1,0.1,0.1,0.1,0.1h1.2c0,0,0.1,0,0.1,0l0.9-0.5h8.1l-0.5,0.5C42.7,32,42.6,32.1,42.7,32.2z M35.6,42.2h1.3
		c0.1,0,0.3-0.1,0.3-0.3c0-0.1-0.1-0.3-0.3-0.3h-1.3c-0.1,0-0.3,0.1-0.3,0.3C35.3,42.1,35.5,42.2,35.6,42.2z M49.5,33.5
		c-2.1,0.6-4.8,1.1-7.6,1.3c0,0-1.3,0-1.7,1.5c0,0-0.5,0.2-1.3,0.2h0c-0.8,0-1.3-0.2-1.3-0.2c-0.4-1.5-1.7-1.5-1.7-1.5
		c-2.8-0.2-5.6-0.8-7.6-1.3c-0.5-0.1-1.3-0.1-1.4,0.8c-0.1,1,0.4,3.1,0.4,3.1c2.8,1.1,6.9,1.9,11.5,1.9H39c4.6,0,8.7-0.7,11.5-1.9
		c0,0,0.5-2.1,0.4-3.1C50.8,33.4,50,33.4,49.5,33.5z M27.8,37C27.7,37,27.7,37,27.8,37l0-0.5c0,0,0,0,0,0V37z M28,37
		C28,37,28,37,28,37l0-0.5c0,0,0,0,0,0V37z M28.4,37.1C28.3,37.1,28.3,37.1,28.4,37.1l-0.1-0.5c0,0,0,0,0.1,0V37.1z M28.7,37.2
		c0,0-0.1,0-0.1,0v-0.5c0,0,0.1,0,0.1,0V37.2z M29.1,37.3c0,0-0.1,0-0.1,0v-0.5c0,0,0.1,0,0.1,0V37.3z M29.5,37.3
		c-0.1,0-0.1,0-0.2,0v-0.5c0,0,0.1,0,0.2,0V37.3z M30,37.4c-0.1,0-0.2,0-0.2,0v-0.5c0,0,0.1,0,0.2,0V37.4z M30.4,37.5
		c-0.1,0-0.2,0-0.2,0V37c0,0,0.1,0,0.2,0V37.5z M30.9,37.6c-0.1,0-0.2,0-0.3,0V37c0.1,0,0.2,0,0.3,0V37.6z M31.5,37.7
		c-0.1,0-0.2,0-0.3,0v-0.5c0.1,0,0.2,0,0.3,0V37.7z M32.1,37.8c-0.1,0-0.3,0-0.4-0.1v-0.5c0.1,0,0.2,0,0.4,0.1V37.8z M32.7,37.8
		c-0.1,0-0.3,0-0.4-0.1v-0.5c0.1,0,0.3,0,0.4,0.1V37.8z M33.4,37.9c-0.2,0-0.3,0-0.5-0.1v-0.5c0.1,0,0.3,0,0.5,0.1V37.9z M34.2,38
		c-0.2,0-0.4,0-0.6-0.1v-0.5c0.2,0,0.4,0,0.6,0.1V38z M35,38.1c-0.2,0-0.4,0-0.6-0.1v-0.5c0.2,0,0.4,0,0.6,0.1V38.1z M35.9,38.1
		c-0.2,0-0.5,0-0.6,0v-0.5c0.2,0,0.4,0,0.6,0V38.1z M36.8,38.2c-0.2,0-0.5,0-0.7,0v-0.5c0.2,0,0.5,0,0.7,0V38.2z M37.8,38.2
		c-0.3,0-0.5,0-0.7,0v-0.5c0.2,0,0.5,0,0.7,0V38.2z M38.8,38.2c-0.3,0-0.6,0-0.8,0v-0.5c0.2,0,0.5,0,0.8,0V38.2z M39.8,38.2
		c-0.3,0-0.6,0-0.8,0v-0.5c0.2,0,0.5,0,0.8,0V38.2z M40.8,38.2c-0.3,0-0.5,0-0.7,0v-0.5c0.2,0,0.5,0,0.7,0V38.2z M41.7,38.2
		c-0.2,0-0.5,0-0.7,0v-0.5c0.2,0,0.5,0,0.7,0V38.2z M42.6,38.1c-0.2,0-0.5,0-0.6,0v-0.5c0.2,0,0.4,0,0.6,0V38.1z M43.4,38
		c-0.2,0-0.4,0-0.6,0.1v-0.5c0.2,0,0.4,0,0.6-0.1V38z M44.2,38c-0.2,0-0.4,0-0.6,0.1v-0.5c0.2,0,0.4,0,0.6-0.1V38z M44.9,37.9
		c-0.2,0-0.3,0-0.5,0.1v-0.5c0.1,0,0.3,0,0.5-0.1V37.9z M45.5,37.8c-0.1,0-0.3,0-0.4,0.1v-0.5c0.1,0,0.3,0,0.4-0.1V37.8z M46.1,37.7
		c-0.1,0-0.3,0-0.4,0.1v-0.5c0.1,0,0.2,0,0.4-0.1V37.7z M46.7,37.6c-0.1,0-0.2,0-0.3,0v-0.5c0.1,0,0.2,0,0.3,0V37.6z M47.2,37.5
		c-0.1,0-0.2,0-0.3,0v-0.5c0.1,0,0.2,0,0.3,0V37.5z M47.7,37.5c-0.1,0-0.2,0-0.2,0V37c0,0,0.1,0,0.2,0V37.5z M48.1,37.4
		c-0.1,0-0.2,0-0.2,0v-0.5c0,0,0.1,0,0.2,0V37.4z M48.5,37.3c-0.1,0-0.1,0-0.2,0v-0.5c0,0,0.1,0,0.2,0V37.3z M48.9,37.2
		c0,0-0.1,0-0.1,0v-0.5c0,0,0.1,0,0.1,0V37.2z M49.3,37.2c0,0-0.1,0-0.1,0v-0.5c0,0,0.1,0,0.1,0V37.2z M49.6,37.1
		C49.5,37.1,49.5,37.1,49.6,37.1l-0.1-0.5c0,0,0,0,0.1,0V37.1z M49.9,37C49.8,37,49.8,37,49.9,37l0-0.5c0,0,0,0,0,0V37z M50.1,37
		C50.1,37,50.1,37,50.1,37l0-0.5c0,0,0,0,0,0V37z M44.4,42.3h-6c-0.1,0-0.3,0.1-0.3,0.3c0,0.1,0.1,0.3,0.3,0.3h6
		c0.1,0,0.3-0.1,0.3-0.3C44.7,42.4,44.6,42.3,44.4,42.3z M36.2,27V29h5.4V27H36.2z M39.9,33.5H38c-0.1,0-0.1,0-0.2,0.1
		c0,0.1,0,0.1,0,0.2l0.9,1.8c0,0.1,0.1,0.1,0.2,0.1c0.1,0,0.1,0,0.2-0.1l1-1.8c0-0.1,0-0.1,0-0.2C40,33.5,40,33.5,39.9,33.5z
		 M34.4,41.8h-4c-0.1,0-0.2,0.1-0.2,0.2V43c0,0.1,0.1,0.2,0.2,0.2h4c0.1,0,0.2-0.1,0.2-0.2V42C34.6,41.9,34.5,41.8,34.4,41.8z
		 M37.1,43c0-0.1-0.1-0.3-0.3-0.3h-1.3c-0.1,0-0.3,0.1-0.3,0.3s0.1,0.3,0.3,0.3h1.3C37,43.3,37.1,43.2,37.1,43z"/>
</g>
</svg>
