<?xml version="1.0" encoding="utf-8"?>
<!-- Generator: Adobe Illustrator 16.0.0, SVG Export Plug-In . SVG Version: 6.00 Build 0)  -->
<!DOCTYPE svg PUBLIC "-//W3C//DTD SVG 1.1//EN" "http://www.w3.org/Graphics/SVG/1.1/DTD/svg11.dtd">
<svg version="1.1" id="Capa_1" xmlns="http://www.w3.org/2000/svg" xmlns:xlink="http://www.w3.org/1999/xlink" x="0px" y="0px"
	 width="128px" height="128px" viewBox="0 0 128 128" enable-background="new 0 0 128 128" xml:space="preserve">
<g transform="translate(0,-952.36218)">
	<path d="M34.916,952.262c-4.235,0-7.649,3.414-7.649,7.649v4.587h76.466v-4.587c0-4.235-3.414-7.649-7.638-7.649H34.916z
		 M27.267,970.61v85.651h76.466V970.61H27.267z M27.267,1062.363v10.711c0,4.225,3.414,7.638,7.649,7.638h61.18
		c4.224,0,7.638-3.413,7.638-7.638v-10.711H27.267z M65.5,1066.972c2.539,0,4.588,2.049,4.588,4.566
		c0,2.561-2.049,4.607-4.588,4.607c-2.518,0-4.587-2.047-4.587-4.607C60.913,1069.02,62.982,1066.972,65.5,1066.972z"/>
</g>
</svg>
