<?xml version="1.0" encoding="utf-8"?>
<!-- Generator: Adobe Illustrator 16.0.0, SVG Export Plug-In . SVG Version: 6.00 Build 0)  -->
<!DOCTYPE svg PUBLIC "-//W3C//DTD SVG 1.1//EN" "http://www.w3.org/Graphics/SVG/1.1/DTD/svg11.dtd">
<svg version="1.1" id="Capa_1" xmlns="http://www.w3.org/2000/svg" xmlns:xlink="http://www.w3.org/1999/xlink" x="0px" y="0px"
	 width="128px" height="128px" viewBox="0 0 128 128" enable-background="new 0 0 128 128" xml:space="preserve">
<g transform="matrix(1,0,0,1,-334.059,-70)">
	<path fill="#010202" d="M418.984,181.555c0,0-14.08-14.079-14.102-14.104l0,0c-1.869-1.873-4.907-1.873-6.783,0l0,0
		c-1.876,1.875-1.876,4.913,0,6.783l0,0c0.016,0.019,10.831,10.834,22.275,22.271c1.869,1.876,4.907,1.876,6.783,0
		c10.938-10.938,20.552-20.552,22.247-22.244c1.873-1.876,1.873-4.914,0-6.786c-1.875-1.873-4.916-1.873-6.783,0l-14.043,14.039
		v-74.733c0-1.273-0.506-2.492-1.402-3.394c-0.903-0.9-2.123-1.404-3.395-1.404c-1.272,0-2.492,0.504-3.396,1.404
		c-0.896,0.901-1.402,2.12-1.402,3.394V181.555z M377.215,86.362l14.101,14.099c1.874,1.874,4.907,1.874,6.783,0l0,0
		c1.876-1.875,1.876-4.909,0-6.784L375.83,71.404c-1.875-1.871-4.912-1.871-6.787,0c-10.936,10.938-20.55,20.552-22.248,22.248
		c-1.874,1.874-1.874,4.912,0,6.787c1.875,1.871,4.912,1.871,6.787,0l14.037-14.04v74.732c0,1.275,0.506,2.495,1.408,3.395
		c0.898,0.9,2.117,1.406,3.39,1.406s2.495-0.506,3.393-1.406c0.9-0.899,1.405-2.119,1.405-3.395V86.362z"/>
</g>
</svg>
