<?xml version="1.0" encoding="utf-8"?>
<!-- Generator: Adobe Illustrator 16.0.0, SVG Export Plug-In . SVG Version: 6.00 Build 0)  -->
<!DOCTYPE svg PUBLIC "-//W3C//DTD SVG 1.1//EN" "http://www.w3.org/Graphics/SVG/1.1/DTD/svg11.dtd">
<svg version="1.1" id="Capa_1" xmlns="http://www.w3.org/2000/svg" xmlns:xlink="http://www.w3.org/1999/xlink" x="0px" y="0px"
	 width="128px" height="128px" viewBox="0 0 128 128" enable-background="new 0 0 128 128" xml:space="preserve">
<path d="M99.861,59.072V36.261C99.861,16.487,83.773,0.4,64,0.4S28.138,16.485,28.138,36.261v22.811h-9.733V128h91.191V59.072
	H99.861z M40.087,36.604c0-13.186,10.728-23.911,23.913-23.911c13.188,0,23.915,10.727,23.915,23.911v21.069H40.087V36.604z
	 M37,104.708c-4.809,0-8.708-3.899-8.708-8.708s3.899-8.708,8.708-8.708s8.708,3.899,8.708,8.708S41.81,104.708,37,104.708z
	 M64.001,104.708c-4.81,0-8.708-3.899-8.708-8.708s3.899-8.708,8.708-8.708c4.809,0,8.707,3.899,8.707,8.708
	S68.81,104.708,64.001,104.708z M91.001,104.708c-4.81,0-8.709-3.899-8.709-8.708s3.899-8.708,8.709-8.708
	c4.809,0,8.707,3.899,8.707,8.708S95.81,104.708,91.001,104.708z"/>
</svg>
