<?xml version="1.0" encoding="utf-8"?>
<!-- Generator: Adobe Illustrator 16.0.0, SVG Export Plug-In . SVG Version: 6.00 Build 0)  -->
<!DOCTYPE svg PUBLIC "-//W3C//DTD SVG 1.1//EN" "http://www.w3.org/Graphics/SVG/1.1/DTD/svg11.dtd">
<svg version="1.1" id="Capa_1" xmlns="http://www.w3.org/2000/svg" xmlns:xlink="http://www.w3.org/1999/xlink" x="0px" y="0px"
	 width="128px" height="128px" viewBox="0 0 128 128" enable-background="new 0 0 128 128" xml:space="preserve">
<path d="M103.521,62.087h8.27c0-25.107-20.419-45.537-45.525-45.537v8.28C86.797,24.831,103.521,41.541,103.521,62.087z"/>
<path d="M124.218,91.054L91.096,78.648L78.691,91.054C62.291,80.126,48.224,66.059,37.3,49.66l12.414-12.414L37.3,4.135h-2.322
	c-9.112,0-17.854,3.626-24.31,10.07l0,0C3.866,21.007,0.042,30.236,0.042,39.855l0,0c0,6.422,1.71,12.74,4.942,18.284
	c15.753,27.001,38.228,49.475,65.228,65.227c5.545,3.236,11.873,4.944,18.296,4.944c9.608,0,18.848-3.835,25.638-10.625l0,0
	c6.444-6.444,10.071-15.199,10.071-24.3V91.054z"/>
<path d="M66.266,0v8.269c29.681,0,53.815,24.15,53.815,53.819h8.271C128.352,27.845,100.518,0,66.266,0z"/>
</svg>
