<?xml version="1.0" encoding="utf-8"?>
<!-- Generator: Adobe Illustrator 16.0.0, SVG Export Plug-In . SVG Version: 6.00 Build 0)  -->
<!DOCTYPE svg PUBLIC "-//W3C//DTD SVG 1.1//EN" "http://www.w3.org/Graphics/SVG/1.1/DTD/svg11.dtd">
<svg version="1.1" id="Capa_1" xmlns="http://www.w3.org/2000/svg" xmlns:xlink="http://www.w3.org/1999/xlink" x="0px" y="0px"
	 width="128px" height="128px" viewBox="0 0 128 128" enable-background="new 0 0 128 128" xml:space="preserve">
<g>
	<rect x="29.468" y="86.09" fill="#010202" width="69.402" height="14.144"/>
	<path fill="#010202" d="M94.771,26.025c0.883,0.005,1.604-0.708,1.61-1.592c0.003-0.43-0.168-0.843-0.474-1.146L82.147,9.48
		c-0.624-0.629-1.638-0.633-2.264-0.01c-0.306,0.303-0.477,0.716-0.474,1.147v10.555c0,2.653,2.15,4.805,4.804,4.805L94.771,26.025z
		"/>
	<path fill="#010202" d="M24.422,119.198c0,3.538,2.868,6.407,6.406,6.407h66.215c3.537,0,6.406-2.869,6.406-6.407v-9.339H24.422
		V119.198z"/>
	<path fill="#010202" d="M66.612,2H30.829c-3.539,0-6.406,2.869-6.406,6.407v44.319h79.028V38.839c0-1.769-1.434-3.203-3.202-3.203
		H84.23c-7.961,0-14.416-6.454-14.416-14.415V5.203C69.814,3.435,68.381,2,66.612,2L66.612,2z"/>
	<path fill="#010202" d="M-0.068,65.54v31.507c0,1.769,1.435,3.201,3.203,3.201h16.723V81.286c0-2.655,2.151-4.806,4.805-4.806
		h79.014c2.652,0,4.805,2.15,4.805,4.806v18.962h16.706c1.769,0,3.203-1.433,3.203-3.201V65.54c0-1.769-1.435-3.203-3.203-3.203
		H3.135C1.366,62.337-0.068,63.771-0.068,65.54z M117.481,68.183c2.823,0,5.109,2.288,5.109,5.109s-2.286,5.109-5.109,5.109
		c-2.822,0-5.109-2.288-5.109-5.109S114.659,68.183,117.481,68.183c0.006,0,0.011,0,0.016,0H117.481z"/>
</g>
</svg>
