<?xml version="1.0" encoding="utf-8"?>
<!-- Generator: Adobe Illustrator 16.0.0, SVG Export Plug-In . SVG Version: 6.00 Build 0)  -->
<!DOCTYPE svg PUBLIC "-//W3C//DTD SVG 1.1//EN" "http://www.w3.org/Graphics/SVG/1.1/DTD/svg11.dtd">
<svg version="1.1" id="Capa_1" xmlns="http://www.w3.org/2000/svg" xmlns:xlink="http://www.w3.org/1999/xlink" x="0px" y="0px"
	 width="128px" height="128px" viewBox="0 0 128 128" enable-background="new 0 0 128 128" xml:space="preserve">
<g transform="translate(-1368.8514,-3424.231)">
	<path d="M1370.834,3487.968v-63.655h47.281h47.282l15.111,15.111l15.111,15.11v48.492v48.484l-62.394,0.069l-62.393,0.034V3487.968
		L1370.834,3487.968z M1478.035,3513.871v-23.569l-44.773-0.052l-44.741-0.055v23.591c0,12.967,0.035,23.622,0.07,23.658
		c0.051,0.052,20.193,0.07,44.775,0.033l44.669-0.033V3513.871z M1396.285,3524.022v-5.833h37.046h37.01l-0.032,5.78l-0.056,5.778
		l-36.992,0.055l-36.977,0.052V3524.022L1396.285,3524.022z M1396.285,3504.975v-5.831h37.046h37.01l-0.032,5.78l-0.056,5.78
		l-36.992,0.051l-36.977,0.052V3504.975z M1400.08,3459.775c3.342-0.871,5.919-3.465,6.806-6.833
		c1.271-4.831-1.827-9.932-6.806-11.229c-4.875-1.27-9.958,1.811-11.263,6.807C1387.093,3455.17,1393.43,3461.507,1400.08,3459.775z
		"/>
</g>
</svg>
