<?xml version="1.0" encoding="utf-8"?>
<!-- Generator: Adobe Illustrator 16.0.0, SVG Export Plug-In . SVG Version: 6.00 Build 0)  -->
<!DOCTYPE svg PUBLIC "-//W3C//DTD SVG 1.1//EN" "http://www.w3.org/Graphics/SVG/1.1/DTD/svg11.dtd">
<svg version="1.1" id="Capa_1" xmlns="http://www.w3.org/2000/svg" xmlns:xlink="http://www.w3.org/1999/xlink" x="0px" y="0px"
	 width="128px" height="128px" viewBox="0 0 128 128" enable-background="new 0 0 128 128" xml:space="preserve">
<path fill="#010202" d="M74.3,110.193l-10.299,10.302l-10.3-10.302c-1.249-1.247-3.121-1.247-4.37,0
	c-1.249,1.25-1.249,3.122,0,4.369l12.484,12.487c0.625,0.622,1.405,0.935,2.185,0.935s1.56-0.313,2.185-0.935l12.484-12.487
	c1.25-1.247,1.25-3.119,0-4.369C77.422,108.946,75.551,108.946,74.3,110.193z"/>
<path fill="#010202" d="M78.67,93.027c-1.248-1.247-3.119-1.247-4.37,0l-10.299,10.301l-10.3-10.301
	c-1.249-1.247-3.121-1.247-4.37,0c-1.249,1.249-1.249,3.122,0,4.37l12.484,12.484c0.625,0.624,1.405,0.937,2.185,0.937
	s1.56-0.313,2.185-0.937L78.67,97.397C79.92,96.149,79.92,94.276,78.67,93.027z"/>
<path fill="#010202" d="M92.091,56.198V28.107c0-15.45-12.64-28.091-28.09-28.091S35.91,12.657,35.91,28.107v28.091
	c0,15.45,12.641,28.09,28.091,28.09S92.091,71.648,92.091,56.198z M64.001,78.046c-12.017,0-21.848-9.831-21.848-21.848V28.107
	c0-12.017,9.832-21.848,21.848-21.848S85.85,16.091,85.85,28.107v28.091C85.85,68.215,76.018,78.046,64.001,78.046z"/>
<path fill="#010202" d="M64.001,17.183c-1.717,0-3.121,1.405-3.121,3.121v9.364c0,1.717,1.404,3.122,3.121,3.122
	c1.718,0,3.121-1.405,3.121-3.122v-9.364C67.122,18.588,65.719,17.183,64.001,17.183z"/>
</svg>
