<?xml version="1.0" encoding="utf-8"?>
<!-- Generator: Adobe Illustrator 16.0.0, SVG Export Plug-In . SVG Version: 6.00 Build 0)  -->
<!DOCTYPE svg PUBLIC "-//W3C//DTD SVG 1.1//EN" "http://www.w3.org/Graphics/SVG/1.1/DTD/svg11.dtd">
<svg version="1.1" id="Capa_1" xmlns="http://www.w3.org/2000/svg" xmlns:xlink="http://www.w3.org/1999/xlink" x="0px" y="0px"
	 width="128px" height="128px" viewBox="0 0 128 128" enable-background="new 0 0 128 128" xml:space="preserve">
<path d="M102.118,24.26c-4.174-6.999-9.759-15.075-13.191-23.555c-3.433,8.479-9.018,16.556-13.191,23.555
	c-2.893,4.914-5.316,7.875-5.316,13.865c0,10.162,8.278,18.441,18.508,18.441c10.23,0,18.509-8.279,18.509-18.441
	C107.436,32.135,105.013,29.107,102.118,24.26z M88.121,52.459c-7.135,0-12.991-5.788-12.991-12.988
	c0-2.759,0.673-4.577,1.751-6.461c0.672,8.951,8.682,17.431,20.256,15.749C94.782,51.046,91.619,52.459,88.121,52.459z"/>
<path d="M49.438,93.346v-17.38c0-2.302-1.872-4.341-4.174-4.341c-2.302,0-4.174,2.038-4.174,4.341v17.38
	c-5.011,1.768-8.348,6.459-8.348,11.807c0,6.906,5.617,12.523,12.522,12.523c6.905,0,12.522-5.615,12.522-12.523
	C57.785,99.805,54.449,95.113,49.438,93.346z"/>
<path d="M59.574,87.566v-72.55c0-7.892-6.42-14.311-14.311-14.311c-7.891,0-14.311,6.419-14.311,14.311v72.552
	c-5.248,4.265-8.348,10.748-8.348,17.588c0,12.492,10.165,22.658,22.659,22.658c12.494,0,22.659-10.166,22.659-22.658
	C67.922,98.316,64.822,91.832,59.574,87.566z M45.263,123.042c-9.863,0-17.89-8.024-17.89-17.89c0-5.729,2.752-11.144,7.362-14.479
	l0.986-0.715V15.016c0-5.261,4.28-9.541,9.542-9.541c5.26,0,9.541,4.279,9.541,9.541v74.945l0.986,0.713
	c4.609,3.336,7.362,8.749,7.362,14.48C63.152,115.018,55.126,123.042,45.263,123.042z"/>
</svg>
