<?xml version="1.0" encoding="utf-8"?>
<!-- Generator: Adobe Illustrator 16.0.0, SVG Export Plug-In . SVG Version: 6.00 Build 0)  -->
<!DOCTYPE svg PUBLIC "-//W3C//DTD SVG 1.1//EN" "http://www.w3.org/Graphics/SVG/1.1/DTD/svg11.dtd">
<svg version="1.1" id="Capa_1" xmlns="http://www.w3.org/2000/svg" xmlns:xlink="http://www.w3.org/1999/xlink" x="0px" y="0px"
	 width="128px" height="128px" viewBox="0 0 128 128" enable-background="new 0 0 128 128" xml:space="preserve">
<g>
	<path d="M125.344,86H95.402v-6.299l10.752-10.869c3.184-3.262,5.264-5.522,6.24-6.782s1.68-2.427,2.109-3.501
		c0.43-1.074,0.645-2.187,0.645-3.34c0-1.718-0.474-2.998-1.421-3.838c-0.948-0.839-2.212-1.26-3.794-1.26
		c-1.66,0-3.271,0.381-4.834,1.143s-3.193,1.846-4.893,3.252l-4.922-5.83c2.109-1.797,3.857-3.066,5.244-3.809
		c1.387-0.742,2.9-1.313,4.541-1.714c1.641-0.4,3.477-0.601,5.508-0.601c2.676,0,5.039,0.488,7.09,1.465
		c2.051,0.977,3.643,2.344,4.775,4.102s1.699,3.77,1.699,6.035c0,1.973-0.348,3.823-1.04,5.552
		c-0.693,1.729-1.769,3.501-3.223,5.317c-1.455,1.816-4.019,4.404-7.69,7.764l-5.508,5.186v0.41h18.662V86z"/>
</g>
<path fill="none" stroke="#000000" stroke-width="0.2551" stroke-linecap="round" stroke-linejoin="round" stroke-miterlimit="10" d="
	M46.841,103.12c0,5.014-4.054,9.064-9.072,9.064c-5.004,0-9.056-4.051-9.056-9.064V25.328c0-5.004,4.052-9.056,9.056-9.056
	c5.019,0,9.072,4.052,9.072,9.056V103.12z"/>
<path d="M46.841,103.12c0,5.014-4.054,9.064-9.072,9.064c-5.004,0-9.056-4.051-9.056-9.064V25.328c0-5.004,4.052-9.113,9.056-9.113
	c5.019,0,9.072,4.109,9.072,9.113V103.12L46.841,103.12z"/>
<path fill="none" stroke="#000000" stroke-width="0.2551" stroke-linecap="round" stroke-linejoin="round" stroke-miterlimit="10" d="
	M72.767,103.12c0,5.014-4.051,9.064-9.068,9.064c-5.005,0-9.065-4.051-9.065-9.064V25.328c0-5.004,4.061-9.056,9.065-9.056
	c5.017,0,9.068,4.052,9.068,9.056V103.12z"/>
<path d="M72.767,103.12c0,5.014-4.051,9.064-9.068,9.064c-5.005,0-9.065-4.051-9.065-9.064V25.328c0-5.004,4.061-9.113,9.065-9.113
	c5.017,0,9.068,4.109,9.068,9.113V103.12L72.767,103.12z"/>
<polygon points="23.24,26.904 23.24,42.448 2.527,38.551 "/>
<polygon points="23.24,26.904 2.527,38.551 2.527,30.801 "/>
</svg>
