<?xml version="1.0" encoding="utf-8"?>
<!-- Generator: Adobe Illustrator 16.0.0, SVG Export Plug-In . SVG Version: 6.00 Build 0)  -->
<!DOCTYPE svg PUBLIC "-//W3C//DTD SVG 1.1//EN" "http://www.w3.org/Graphics/SVG/1.1/DTD/svg11.dtd">
<svg version="1.1" id="Capa_1" xmlns="http://www.w3.org/2000/svg" xmlns:xlink="http://www.w3.org/1999/xlink" x="0px" y="0px"
	 width="128px" height="128px" viewBox="0 0 128 128" enable-background="new 0 0 128 128" xml:space="preserve">
<g>
	<path d="M120.785,86h-9.053V61.215l0.088-4.072l0.146-4.453c-1.504,1.504-2.549,2.49-3.135,2.959l-4.922,3.955l-4.365-5.449
		l13.799-10.986h7.441L120.785,86L120.785,86z"/>
</g>
<path fill="none" stroke="#000000" stroke-width="0.2551" stroke-linecap="round" stroke-linejoin="round" stroke-miterlimit="10" d="
	M51.841,103.12c0,5.014-4.054,9.063-9.072,9.063c-5.004,0-9.056-4.051-9.056-9.063V25.328c0-5.004,4.052-9.056,9.056-9.056
	c5.019,0,9.072,4.052,9.072,9.056V103.12z"/>
<path d="M51.841,103.12c0,5.014-4.054,9.063-9.072,9.063c-5.004,0-9.056-4.051-9.056-9.063V25.328c0-5.004,4.052-9.113,9.056-9.113
	c5.019,0,9.072,4.109,9.072,9.113V103.12L51.841,103.12z"/>
<path fill="none" stroke="#000000" stroke-width="0.2551" stroke-linecap="round" stroke-linejoin="round" stroke-miterlimit="10" d="
	M77.768,103.12c0,5.014-4.052,9.063-9.068,9.063c-5.005,0-9.065-4.051-9.065-9.063V25.328c0-5.004,4.061-9.056,9.065-9.056
	c5.017,0,9.068,4.052,9.068,9.056V103.12z"/>
<path d="M77.768,103.12c0,5.014-4.052,9.063-9.068,9.063c-5.005,0-9.065-4.051-9.065-9.063V25.328c0-5.004,4.061-9.113,9.065-9.113
	c5.017,0,9.068,4.109,9.068,9.113V103.12L77.768,103.12z"/>
<polygon points="28.24,26.904 28.24,42.448 7.527,38.551 "/>
<polygon points="28.24,26.904 7.527,38.551 7.527,30.801 "/>
</svg>
