<?xml version="1.0" encoding="utf-8"?>
<!-- Generator: Adobe Illustrator 16.0.0, SVG Export Plug-In . SVG Version: 6.00 Build 0)  -->
<!DOCTYPE svg PUBLIC "-//W3C//DTD SVG 1.1//EN" "http://www.w3.org/Graphics/SVG/1.1/DTD/svg11.dtd">
<svg version="1.1" id="Capa_1" xmlns="http://www.w3.org/2000/svg" xmlns:xlink="http://www.w3.org/1999/xlink" x="0px" y="0px"
	 width="128px" height="128px" viewBox="0 0 128 128" enable-background="new 0 0 128 128" xml:space="preserve">
<path fill="none" stroke="#000000" stroke-width="0.2551" stroke-linecap="round" stroke-linejoin="round" stroke-miterlimit="10" d="
	M64.162,114.856c0,6.521-5.272,11.788-11.799,11.788c-6.508,0-11.778-5.269-11.778-11.788V13.68c0-6.508,5.271-11.778,11.778-11.778
	c6.528,0,11.799,5.271,11.799,11.778V114.856z"/>
<path d="M64.162,114.856c0,6.521-5.272,11.788-11.799,11.788c-6.508,0-11.778-5.269-11.778-11.788V13.68
	c0-6.508,5.271-11.853,11.778-11.853c6.528,0,11.799,5.345,11.799,11.853V114.856L64.162,114.856z"/>
<polygon points="33.467,15.729 33.467,35.946 6.527,30.877 "/>
<polygon points="33.467,15.729 6.527,30.877 6.527,20.798 "/>
<path d="M121.17,84.09l-10.956-6.254l9.394-2.62c1.642-0.458,2.608-2.167,2.148-3.811c-0.372-1.332-1.597-2.264-2.979-2.264
	c-0.279,0-0.558,0.041-0.831,0.116l-15.29,4.264l-16.719-9.546l16.719-9.545l15.29,4.267c0.273,0.077,0.552,0.114,0.831,0.114
	c1.386,0,2.607-0.932,2.979-2.263c0.46-1.645-0.507-3.354-2.148-3.811l-9.394-2.622l10.956-6.255c1.481-0.846,2-2.741,1.152-4.218
	c0-0.002,0-0.004,0-0.004c-0.037-0.078-0.075-0.153-0.113-0.223c-0.555-0.954-1.582-1.548-2.684-1.548
	c-0.539,0-1.074,0.144-1.543,0.416l-10.81,6.24l2.405-9.164c0.432-1.649-0.556-3.343-2.203-3.776
	c-0.261-0.069-0.526-0.104-0.788-0.104c-1.406,0-2.633,0.949-2.99,2.309l-3.965,15.089l-16.87,9.742v-19.17l11.284-11.161
	c1.213-1.199,1.223-3.161,0.024-4.373c-0.588-0.593-1.368-0.919-2.201-0.919c-0.819,0-1.592,0.317-2.172,0.895l-6.936,6.857V17.95
	c0-1.707-1.391-3.094-3.097-3.094c-1.705,0-3.094,1.387-3.094,3.094v12.844l-0.003-0.002v8.667l0.003,0.002v19.159l-0.003-0.001
	v10.715v16.761v2.585v8.662v12.664c0,1.705,1.39,3.092,3.097,3.092c1.706,0,3.092-1.387,3.092-3.092v-12.62l6.938,6.858
	c0.581,0.577,1.354,0.895,2.174,0.895c0.832,0,1.614-0.325,2.201-0.919c0.579-0.586,0.895-1.365,0.893-2.193
	c-0.009-0.825-0.334-1.599-0.921-2.183L82.762,88.685V69.333l16.87,9.743l3.961,15.088c0.356,1.359,1.588,2.309,2.99,2.307
	c0.266,0,0.528-0.034,0.788-0.101c1.653-0.432,2.639-2.129,2.207-3.778l-2.405-9.167l10.81,6.243
	c0.469,0.275,1.003,0.415,1.541,0.415c1.104,0,2.134-0.593,2.682-1.546c0.041-0.07,0.079-0.145,0.116-0.224
	c0-0.002,0-0.002,0.001-0.002C123.17,86.83,122.651,84.938,121.17,84.09z"/>
</svg>
