<?xml version="1.0" encoding="utf-8"?>
<!-- Generator: Adobe Illustrator 16.0.0, SVG Export Plug-In . SVG Version: 6.00 Build 0)  -->
<!DOCTYPE svg PUBLIC "-//W3C//DTD SVG 1.1//EN" "http://www.w3.org/Graphics/SVG/1.1/DTD/svg11.dtd">
<svg version="1.1" id="Capa_1" xmlns="http://www.w3.org/2000/svg" xmlns:xlink="http://www.w3.org/1999/xlink" x="0px" y="0px"
	 width="128px" height="128px" viewBox="0 0 128 128" enable-background="new 0 0 128 128" xml:space="preserve">
<path d="M109.191,86.152l-11.93-6.809l10.227-2.855c1.789-0.498,2.838-2.358,2.339-4.146c-0.405-1.451-1.737-2.464-3.243-2.464
	c-0.303,0-0.609,0.043-0.906,0.124l-16.645,4.644L70.83,64.251l18.203-10.393l16.645,4.646c0.297,0.083,0.604,0.124,0.906,0.124
	c1.508,0,2.84-1.014,3.243-2.464c0.499-1.79-0.55-3.65-2.339-4.149l-10.227-2.853l11.93-6.812c1.61-0.921,2.174-2.983,1.253-4.592
	c0-0.002,0-0.003,0-0.004c-0.041-0.085-0.082-0.167-0.126-0.243c-0.601-1.039-1.718-1.686-2.92-1.686
	c-0.587,0-1.169,0.157-1.682,0.453L93.95,43.072l2.618-9.978c0.472-1.796-0.605-3.64-2.4-4.112c-0.28-0.075-0.57-0.112-0.856-0.112
	c-1.53,0-2.868,1.033-3.256,2.514l-4.313,16.429L67.369,58.419V37.548l12.288-12.152c1.32-1.306,1.333-3.441,0.025-4.762
	c-0.637-0.646-1.488-1.001-2.395-1.001c-0.892,0-1.732,0.346-2.367,0.974l-7.552,7.467V14.139c0-1.858-1.511-3.369-3.369-3.369
	c-1.856,0-3.369,1.511-3.369,3.369v13.984l-7.56-7.412c-0.633-0.62-1.472-0.963-2.358-0.963c-0.913,0-1.766,0.358-2.406,1.01
	c-1.299,1.328-1.278,3.463,0.048,4.763L60.631,37.56v20.86l-18.19-10.503L38.019,31.37c-0.392-1.47-1.73-2.5-3.251-2.5
	c-0.293,0-0.587,0.039-0.871,0.116c-0.87,0.232-1.595,0.787-2.046,1.567c-0.451,0.778-0.57,1.687-0.339,2.554l2.685,10.048
	l-11.912-6.877c-0.512-0.296-1.093-0.453-1.681-0.453c-1.188,0-2.297,0.632-2.901,1.653c-0.055,0.083-0.104,0.16-0.147,0.234
	c-0.92,1.612-0.358,3.674,1.257,4.595l12.145,6.935l-10.188,2.89c-1.788,0.507-2.828,2.374-2.322,4.16
	c0.409,1.441,1.742,2.449,3.238,2.449c0.311,0,0.619-0.043,0.921-0.127l16.54-4.693l18.098,10.33L39.146,74.585l-16.54-4.694
	c-0.301-0.086-0.611-0.13-0.921-0.13c-1.498,0-2.83,1.012-3.238,2.453c-0.246,0.864-0.139,1.773,0.3,2.56
	c0.437,0.787,1.154,1.354,2.022,1.601l10.187,2.89l-12.145,6.936c-1.614,0.919-2.177,2.98-1.257,4.592
	c0.041,0.073,0.087,0.146,0.143,0.228c0.602,1.023,1.714,1.658,2.904,1.658c0.589,0,1.169-0.153,1.682-0.45l11.913-6.877
	l-2.686,10.048c-0.231,0.869-0.111,1.775,0.339,2.554c0.45,0.779,1.177,1.338,2.046,1.567c0.284,0.077,0.578,0.115,0.87,0.115
	c1.522,0,2.859-1.025,3.252-2.498l4.421-16.548l18.192-10.503v21.063l-12.277,12.033c-1.325,1.303-1.346,3.439-0.048,4.766
	c0.64,0.652,1.494,1.01,2.406,1.01c0.888,0,1.725-0.342,2.358-0.961l7.56-7.416v13.787c0,1.858,1.512,3.369,3.368,3.369
	c1.857,0,3.366-1.511,3.366-3.369v-13.739l7.555,7.469c0.632,0.626,1.473,0.971,2.366,0.971c0.906,0,1.758-0.354,2.396-0.999
	c0.631-0.64,0.977-1.486,0.973-2.388c-0.008-0.899-0.362-1.741-1.001-2.376l-12.284-12.15V70.086l18.37,10.608l4.313,16.427
	c0.389,1.479,1.729,2.514,3.258,2.512c0.287,0,0.574-0.038,0.857-0.109c1.797-0.473,2.873-2.317,2.401-4.115l-2.62-9.979
	l11.769,6.797c0.512,0.297,1.094,0.45,1.68,0.45c1.205,0,2.322-0.644,2.92-1.683c0.045-0.076,0.086-0.157,0.127-0.243
	c0-0.002,0-0.002,0.001-0.002C111.367,89.135,110.804,87.074,109.191,86.152z"/>
</svg>
