<?xml version="1.0" encoding="utf-8"?>
<!-- Generator: Adobe Illustrator 16.0.0, SVG Export Plug-In . SVG Version: 6.00 Build 0)  -->
<!DOCTYPE svg PUBLIC "-//W3C//DTD SVG 1.1//EN" "http://www.w3.org/Graphics/SVG/1.1/DTD/svg11.dtd">
<svg version="1.1" id="Capa_1" xmlns="http://www.w3.org/2000/svg" xmlns:xlink="http://www.w3.org/1999/xlink" x="0px" y="0px"
	 width="128px" height="128px" viewBox="0 0 128 128" enable-background="new 0 0 128 128" xml:space="preserve">
<g>
	<g>
		<path fill="#010202" d="M33.021,21.353h48.042c1.474,0,2.67-1.196,2.67-2.669v-5.338c0-4.415-3.593-8.007-8.008-8.007h-9.469
			C64.372,2.082,60.875,0,57.042,0c-3.833,0-7.33,2.082-9.213,5.338h-9.47c-4.414,0-8.007,3.593-8.007,8.007v5.338
			C30.352,20.156,31.547,21.353,33.021,21.353z M103.756,65.173c0.822-0.476,1.329-1.356,1.329-2.307V18.683
			c0-4.415-3.592-8.007-8.008-8.007h-5.336c-1.474,0-2.67,1.196-2.67,2.669v5.338c0,4.415-3.594,8.007-8.008,8.007H33.021
			c-4.415,0-8.007-3.592-8.007-8.007v-5.338c0-1.473-1.196-2.669-2.669-2.669h-5.338C12.592,10.676,9,14.269,9,18.683v101.423
			c0,4.415,3.592,8.008,8.007,8.008h37.367c1.473,0,2.669-1.196,2.669-2.67v-10.676c0-2.108,0.854-4.17,2.343-5.663L102.091,66.4
			C102.523,65.975,103.052,65.583,103.756,65.173z M120.321,80.851l-10.678-10.676c-1.041-1.041-2.733-1.041-3.774,0l-8.787,8.787
			l14.452,14.448l8.787-8.785C121.361,83.584,121.361,81.896,120.321,80.851z M63.16,112.879c-0.497,0.502-0.78,1.18-0.78,1.89
			v10.676c0,1.474,1.196,2.67,2.669,2.67h10.676c0.71,0,1.388-0.283,1.89-0.779l30.139-30.14L93.305,82.746L63.16,112.879z"/>
	</g>
</g>
</svg>
