<?xml version="1.0" encoding="utf-8"?>
<!-- Generator: Adobe Illustrator 16.0.0, SVG Export Plug-In . SVG Version: 6.00 Build 0)  -->
<!DOCTYPE svg PUBLIC "-//W3C//DTD SVG 1.1//EN" "http://www.w3.org/Graphics/SVG/1.1/DTD/svg11.dtd">
<svg version="1.1" id="Capa_1" xmlns="http://www.w3.org/2000/svg" xmlns:xlink="http://www.w3.org/1999/xlink" x="0px" y="0px"
	 width="128px" height="128px" viewBox="0 0 128 128" enable-background="new 0 0 128 128" xml:space="preserve">
<path d="M49.753,56.167H6.415C2.947,56.167,0,53.219,0,49.753V6.414C0,2.947,2.947,0,6.415,0h43.34c3.467,0,6.414,2.947,6.414,6.414
	v43.339C56.167,53.219,53.22,56.167,49.753,56.167z"/>
<path d="M121.586,56.167h-43.34c-3.467,0-6.414-2.948-6.414-6.413V6.414C71.832,2.947,74.779,0,78.246,0h43.34
	C125.053,0,128,2.947,128,6.414v43.338C127.999,53.219,125.053,56.167,121.586,56.167z"/>
<path d="M49.754,128H6.414C2.947,128,0,125.052,0,121.587V78.246c0-3.467,2.947-6.413,6.414-6.413h43.34
	c3.467,0,6.414,2.946,6.414,6.413v43.339C56.167,125.052,53.221,128,49.754,128z"/>
<path d="M121.586,128h-43.34c-3.467,0-6.414-2.948-6.414-6.413V78.246c0-3.467,2.947-6.413,6.414-6.413h43.34
	c3.467,0,6.414,2.946,6.414,6.413v43.339C127.999,125.052,125.053,128,121.586,128z"/>
</svg>
