<?xml version="1.0" encoding="utf-8"?>
<!-- Generator: Adobe Illustrator 16.0.0, SVG Export Plug-In . SVG Version: 6.00 Build 0)  -->
<!DOCTYPE svg PUBLIC "-//W3C//DTD SVG 1.1//EN" "http://www.w3.org/Graphics/SVG/1.1/DTD/svg11.dtd">
<svg version="1.1" id="Capa_1" xmlns="http://www.w3.org/2000/svg" xmlns:xlink="http://www.w3.org/1999/xlink" x="0px" y="0px"
	 width="174.34px" height="128px" viewBox="-20.652 0 174.34 128" enable-background="new -20.652 0 174.34 128"
	 xml:space="preserve">
<rect x="-0.059" y="39.993" width="133.541" height="23.259"/>
<path d="M148.628,0h-164.22c-2.795,0-5.06,2.287-5.06,5.107v117.785c0,2.821,2.265,5.107,5.06,5.107h164.22
	c2.795,0,5.06-2.286,5.06-5.107V5.107C153.688,2.287,151.423,0,148.628,0z M29.786,10.92c3.119,0,5.647,2.551,5.647,5.701
	c0,3.15-2.528,5.702-5.647,5.702c-3.12,0-5.648-2.552-5.648-5.702C24.138,13.471,26.667,10.92,29.786,10.92z M14.899,10.92
	c3.12,0,5.648,2.551,5.648,5.701c0,3.15-2.528,5.702-5.648,5.702c-3.119,0-5.647-2.552-5.647-5.702
	C9.252,13.471,11.776,10.92,14.899,10.92z M-0.655,10.92c3.12,0,5.647,2.551,5.647,5.701c0,3.15-2.527,5.702-5.647,5.702
	c-3.121,0-5.648-2.552-5.648-5.702C-6.303,13.471-3.775,10.92-0.655,10.92z M143.119,119.112h-10.391v-48.58H71.961v48.58H60.705
	v-48.58H-0.059v48.58h-10.028V32h153.207V119.112z"/>
<path stroke="#000000" stroke-width="0.0801" stroke-linecap="round" stroke-linejoin="round" d="M65.992,83.654"/>
<path stroke="#000000" stroke-width="0.0801" stroke-linecap="round" stroke-linejoin="round" d="M66.865,81.163"/>
</svg>
