<?xml version="1.0" encoding="utf-8"?>
<!-- Generator: Adobe Illustrator 16.0.0, SVG Export Plug-In . SVG Version: 6.00 Build 0)  -->
<!DOCTYPE svg PUBLIC "-//W3C//DTD SVG 1.1//EN" "http://www.w3.org/Graphics/SVG/1.1/DTD/svg11.dtd">
<svg version="1.1" id="Capa_1" xmlns="http://www.w3.org/2000/svg" xmlns:xlink="http://www.w3.org/1999/xlink" x="0px" y="0px"
	 width="128px" height="128px" viewBox="0 0 128 128" enable-background="new 0 0 128 128" xml:space="preserve">
<g>
	<path d="M113.06,40.531c3.22,0,5.782-2.555,5.782-5.758V20.694c0-3.204-2.563-5.766-5.782-5.766H74.028V6.396
		c0-3.625-2.782-6.398-6.407-6.398c-3.625,0-6.391,2.773-6.391,6.398v8.532H27.097c-0.43,0-1.07,0.219-1.281,0.429L13.018,26.022
		c-0.641,0.43-0.859,1.071-0.859,1.711c0,0.641,0.219,1.282,0.859,1.704l12.797,10.672c0.211,0.211,0.852,0.422,1.281,0.422H61.23
		v12.805H17.925c-3.204,0-5.766,2.555-5.766,5.758v14.281c0,3,2.563,5.563,5.766,5.563H61.23v36.268
		c-5.984,0-10.672,4.688-10.672,10.672c0,1.281,0.859,2.125,2.141,2.125h29.859c1.282,0,2.142-0.844,2.142-2.125
		c0-5.984-4.704-10.672-10.672-10.672V78.938h29.876c0.421,0,1.063-0.219,1.28-0.438l12.782-10.663
		c0.438-0.423,0.875-1.063,0.875-1.704s-0.219-1.281-0.875-1.703l-12.782-10.672c-0.218-0.211-0.859-0.422-1.28-0.422H74.028V40.531
		H113.06z M84.7,25.601h19.204c1.28,0,2.125,0.852,2.125,2.132c0,1.282-0.845,2.133-2.125,2.133H84.7
		c-1.281,0-2.142-0.852-2.142-2.133C82.559,26.452,83.419,25.601,84.7,25.601z M50.559,29.866H29.229
		c-1.281,0-2.133-0.852-2.133-2.133c0-1.281,0.852-2.132,2.133-2.132h21.329c1.281,0,2.141,0.852,2.141,2.132
		C52.699,29.015,51.84,29.866,50.559,29.866z M82.559,64h19.204c1.282,0,2.142,0.852,2.142,2.133s-0.859,2.133-2.142,2.133H82.559
		c-1.28,0-2.125-0.852-2.125-2.133S81.278,64,82.559,64z M65.496,6.396c0-1.281,0.844-2.132,2.125-2.132
		c1.282,0,2.141,0.851,2.141,2.132v8.532h-4.266V6.396z M48.426,68.266H27.097c-1.281,0-2.133-0.852-2.133-2.133
		S25.815,64,27.097,64h21.329c1.289,0,2.133,0.852,2.133,2.133S49.715,68.266,48.426,68.266z M69.762,115.205h-4.266V78.938h4.266
		V115.205z M69.762,68.266H61.23c-1.281,0-2.141-0.852-2.141-2.133S59.949,64,61.23,64h8.531c1.282,0,2.142,0.852,2.142,2.133
		S71.044,68.266,69.762,68.266z M65.496,53.335V40.531h4.266v12.805H65.496z M71.903,29.866h-8.532
		c-1.281,0-2.141-0.852-2.141-2.133c0-1.281,0.86-2.132,2.141-2.132h8.532c1.28,0,2.125,0.852,2.125,2.132
		C74.028,29.015,73.184,29.866,71.903,29.866z"/>
</g>
</svg>
