<?xml version="1.0" encoding="utf-8"?>
<!-- Generator: Adobe Illustrator 16.0.0, SVG Export Plug-In . SVG Version: 6.00 Build 0)  -->
<!DOCTYPE svg PUBLIC "-//W3C//DTD SVG 1.1//EN" "http://www.w3.org/Graphics/SVG/1.1/DTD/svg11.dtd">
<svg version="1.1" id="Capa_1" xmlns="http://www.w3.org/2000/svg" xmlns:xlink="http://www.w3.org/1999/xlink" x="0px" y="0px"
	 width="128px" height="128px" viewBox="0 0 128 128" enable-background="new 0 0 128 128" xml:space="preserve">
<g>
	<g>
		<path fill="#010202" d="M33.052,21.357h47.972c1.472,0,2.666-1.195,2.666-2.666v-5.33c0-4.408-3.587-7.995-7.996-7.995h-9.455
			c-1.889-3.251-5.379-5.33-9.2-5.33c-3.822,0-7.313,2.079-9.2,5.33h-9.456c-4.408,0-7.995,3.587-7.995,7.995v5.33
			C30.387,20.163,31.581,21.357,33.052,21.357z M91.685,69.329c-16.167,0-29.316,13.148-29.316,29.316
			c0,8.074,3.284,15.398,8.582,20.708c0.01,0.01,0.01,0.026,0.021,0.036c0.054,0.054,0.123,0.09,0.182,0.148
			c1.279,1.26,2.67,2.411,4.163,3.418c0.166,0.112,0.342,0.202,0.512,0.309c1.423,0.922,2.915,1.738,4.492,2.404
			c0.182,0.074,0.369,0.128,0.556,0.202c1.599,0.635,3.251,1.157,4.973,1.503c0.101,0.021,0.208,0.027,0.309,0.048
			c1.791,0.342,3.636,0.539,5.528,0.539c1.892,0,3.736-0.197,5.532-0.539c0.103-0.021,0.208-0.026,0.31-0.048
			c1.722-0.353,3.374-0.868,4.973-1.509c0.181-0.073,0.373-0.127,0.554-0.202c1.579-0.666,3.07-1.481,4.494-2.403
			c0.171-0.107,0.347-0.198,0.512-0.311c1.492-1.006,2.878-2.158,4.164-3.416c0.052-0.054,0.121-0.09,0.18-0.148
			c0.01-0.011,0.01-0.026,0.022-0.038c5.292-5.303,8.575-12.627,8.575-20.701C121,82.478,107.85,69.329,91.685,69.329z
			 M111.124,112.588c-2.463-4.227-6.188-7.483-10.592-9.385c2.729-2.442,4.478-5.949,4.478-9.89c0-7.344-5.98-13.324-13.325-13.324
			c-7.347,0-13.327,5.98-13.327,13.324c0,3.94,1.75,7.447,4.478,9.89c-4.401,1.901-8.127,5.158-10.589,9.385
			c-2.83-3.938-4.549-8.731-4.549-13.942c0-13.225,10.763-23.986,23.987-23.986c13.224,0,23.985,10.762,23.985,23.986
			C115.67,103.856,113.955,108.649,111.124,112.588z M57.038,98.646c0-19.104,15.542-34.647,34.646-34.647
			c3.326,0,6.656,0.489,9.896,1.456c0.812,0.25,1.687,0.09,2.353-0.416c0.681-0.501,1.076-1.295,1.076-2.137V18.691
			c0-4.408-3.587-7.995-7.996-7.995h-5.329c-1.471,0-2.665,1.194-2.665,2.665v5.33c0,4.409-3.588,7.996-7.996,7.996H33.052
			c-4.408,0-7.995-3.587-7.995-7.996v-5.33c0-1.471-1.194-2.665-2.665-2.665h-5.33c-4.408,0-7.995,3.587-7.995,7.995v101.274
			c0,4.407,3.587,7.995,7.995,7.995h48.53c0.039,0,0.08,0.005,0.107,0c1.471,0,2.664-1.194,2.664-2.665
			c0-0.97-0.516-1.812-1.283-2.281C60.599,116.479,57.038,107.844,57.038,98.646z"/>
	</g>
</g>
</svg>
