<?xml version="1.0" encoding="utf-8"?>
<!-- Generator: Adobe Illustrator 16.0.0, SVG Export Plug-In . SVG Version: 6.00 Build 0)  -->
<!DOCTYPE svg PUBLIC "-//W3C//DTD SVG 1.1//EN" "http://www.w3.org/Graphics/SVG/1.1/DTD/svg11.dtd">
<svg version="1.1" id="Capa_1" xmlns="http://www.w3.org/2000/svg" xmlns:xlink="http://www.w3.org/1999/xlink" x="0px" y="0px"
	 width="128px" height="128px" viewBox="0 0 128 128" enable-background="new 0 0 128 128" xml:space="preserve">
<g>
	<path fill="#9EA1A2" d="M63.914,0.755C28.917,0.755,0.667,29.005,0.667,64c0,2.248,0.14,4.357,0.281,6.465
		c0.14,0.982,0.282,1.969,0.422,2.951c0,0.281,0.141,0.702,0.141,0.982c0.14,0.703,0.281,1.267,0.281,1.969
		c0.14,0.422,0.14,0.845,0.281,1.265c0.14,0.563,0.281,1.125,0.421,1.687c0.141,0.424,0.282,0.846,0.422,1.267
		c0.141,0.563,0.282,0.983,0.422,1.547c0.141,0.421,0.281,0.983,0.422,1.405c0.14,0.42,0.281,0.982,0.421,1.402
		c0.141,0.424,0.281,0.984,0.563,1.406c0.14,0.424,0.281,0.844,0.421,1.266c0.141,0.563,0.422,0.984,0.563,1.547
		c0.141,0.281,0.281,0.701,0.422,0.982c0.281,0.563,0.563,1.125,0.703,1.688c0.141,0.281,0.281,0.422,0.422,0.703
		c1.546,3.093,3.372,6.044,5.34,8.855l0,0c0.563,0.7,0.983,1.403,1.546,1.967c0,0.141,0.14,0.141,0.14,0.279
		c0.563,0.563,0.984,1.266,1.546,1.828c0.141,0.141,0.141,0.141,0.282,0.281c0.563,0.563,1.124,1.265,1.687,1.826
		c0.14,0.142,0.14,0.142,0.281,0.281c0.562,0.563,1.124,1.125,1.686,1.687c0,0,0,0,0.141,0.142l0,0
		c11.384,10.822,26.845,17.566,43.992,17.566c17.145,0,32.465-6.744,43.85-17.708l0,0c0,0,0,0,0.141-0.14
		c0.563-0.563,1.123-1.125,1.687-1.688c0.142-0.143,0.142-0.143,0.281-0.281c0.563-0.563,1.123-1.125,1.687-1.828
		c0.143-0.14,0.143-0.14,0.281-0.279c0.563-0.563,0.983-1.266,1.547-1.827c0-0.142,0.141-0.142,0.141-0.281
		c0.563-0.702,0.982-1.265,1.546-1.968l0,0c1.969-2.811,3.794-5.764,5.34-8.715c0.144-0.28,0.28-0.422,0.423-0.702
		c0.28-0.562,0.561-1.124,0.703-1.687c0.141-0.281,0.281-0.703,0.421-0.984c0.282-0.561,0.421-0.983,0.563-1.545
		c0.141-0.422,0.283-0.844,0.422-1.266c0.139-0.423,0.42-0.984,0.563-1.406c0.141-0.42,0.281-0.983,0.422-1.403
		c0.139-0.423,0.28-0.983,0.42-1.405c0.143-0.563,0.282-0.984,0.424-1.547c0.14-0.421,0.279-0.843,0.422-1.266
		c0.14-0.563,0.281-1.123,0.421-1.688c0.143-0.42,0.143-0.843,0.28-1.265c0.14-0.702,0.281-1.265,0.281-1.968
		c0-0.281,0.141-0.703,0.141-0.983c0.143-0.983,0.281-1.968,0.424-2.951c0.277-2.106,0.277-4.218,0.277-6.465
		C127.158,29.005,98.768,0.755,63.914,0.755z M63.914,118.814c-14.899,0-28.391-5.903-38.229-15.603
		c3.514-3.093,7.589-5.34,12.087-6.746l9.979-2.95c3.373-0.984,5.2-4.64,4.075-8.013c-0.281-0.702-0.562-1.265-1.124-1.827
		l-6.747-7.59c-4.919-5.621-7.168-13.07-6.043-20.519l1.545-10.26c1.125-6.887,4.919-12.93,10.682-16.865
		c8.292-5.623,19.114-5.763,27.548-0.282h0.139c6.324,4.076,10.54,10.682,11.385,18.13l1.123,9.838
		c0.846,7.167-1.404,14.194-6.184,19.536l-7.168,8.011c-0.422,0.563-0.844,1.265-1.123,1.827c-1.123,3.373,0.701,7.027,4.076,8.012
		l9.978,2.951c4.498,1.406,8.715,3.653,12.087,6.746C92.162,112.911,78.671,118.814,63.914,118.814z"/>
</g>
</svg>
