<?xml version="1.0" encoding="utf-8"?>
<!-- Generator: Adobe Illustrator 16.0.0, SVG Export Plug-In . SVG Version: 6.00 Build 0)  -->
<!DOCTYPE svg PUBLIC "-//W3C//DTD SVG 1.1//EN" "http://www.w3.org/Graphics/SVG/1.1/DTD/svg11.dtd">
<svg version="1.1" id="Capa_1" xmlns="http://www.w3.org/2000/svg" xmlns:xlink="http://www.w3.org/1999/xlink" x="0px" y="0px"
	 width="128px" height="128px" viewBox="0 0 128 128" enable-background="new 0 0 128 128" xml:space="preserve">
<g>
	<path d="M10.075,128.226h108.174c6.677,0,11.52-6.679,9.183-13.022l-4.509-12.687c-4.84-9.015-13.019-15.693-22.702-18.697
		l-15.025-4.507c-4.34-1.336-6.844-6.01-5.342-10.35c0.333-0.836,0.835-1.67,1.336-2.504l9.515-15.025
		c4.007-6.176,5.51-13.688,4.174-21.034l-1.001-5.842C92.541,16.878,88.201,9.866,81.856,5.36C71.173-2.32,56.817-2.152,46.3,5.86
		l0,0c-5.51,4.174-9.516,10.351-11.018,17.195l-1.502,6.677c-1.836,7.846-0.333,15.859,3.839,22.703l9.015,14.357
		c0.667,0.667,1.169,1.503,1.335,2.503c1.503,4.342-0.834,9.015-5.342,10.351l-15.023,4.507c-9.85,3.005-18.029,9.682-22.704,18.697
		l-4.508,12.687C-1.443,121.547,3.397,128.226,10.075,128.226z"/>
</g>
</svg>
