<?xml version="1.0" encoding="utf-8"?>
<!-- Generator: Adobe Illustrator 16.0.0, SVG Export Plug-In . SVG Version: 6.00 Build 0)  -->
<!DOCTYPE svg PUBLIC "-//W3C//DTD SVG 1.1//EN" "http://www.w3.org/Graphics/SVG/1.1/DTD/svg11.dtd">
<svg version="1.1" id="Capa_1" xmlns="http://www.w3.org/2000/svg" xmlns:xlink="http://www.w3.org/1999/xlink" x="0px" y="0px"
	 width="128px" height="128px" viewBox="0 0 128 128" enable-background="new 0 0 128 128" xml:space="preserve">
<g>
	<circle fill="#010202" cx="64" cy="64.2" r="10.11"/>
	<path fill="#010202" d="M109.282,18.917C97.18,6.813,81.088,0.12,64,0.12S30.821,6.813,18.717,18.917
		C6.613,31.021-0.08,47.112-0.08,64.2s6.693,33.179,18.797,45.284C30.821,121.587,46.912,128.279,64,128.279
		s33.18-6.692,45.282-18.795C121.388,97.379,128.08,81.288,128.08,64.2S121.388,31.021,109.282,18.917z M108.715,66.052
		C107.859,67.048,88.635,91.968,64,91.968c-24.635,0-44.001-24.777-44.714-25.916c-1.281-1.567-1.139-3.845,0.143-5.412
		c0.854-0.997,20.079-24.208,44.714-24.208c24.635,0,43.859,23.211,44.713,24.208C109.853,62.207,109.995,64.485,108.715,66.052z"/>
</g>
</svg>
