<?xml version="1.0" encoding="utf-8"?>
<!-- Generator: Adobe Illustrator 16.0.0, SVG Export Plug-In . SVG Version: 6.00 Build 0)  -->
<!DOCTYPE svg PUBLIC "-//W3C//DTD SVG 1.1//EN" "http://www.w3.org/Graphics/SVG/1.1/DTD/svg11.dtd">
<svg version="1.1" id="Capa_1" xmlns="http://www.w3.org/2000/svg" xmlns:xlink="http://www.w3.org/1999/xlink" x="0px" y="0px"
	 width="128px" height="128px" viewBox="0 0 128 128" enable-background="new 0 0 128 128" xml:space="preserve">
<path fill="#010202" d="M90.856,81.383L84.853,76.8l-16.909,31.446l-1.265-15.012h-4.583l-1.422,15.012L43.765,76.8l-5.847,4.583
	C21.8,81.383,9,94.341,9,110.458V128h110.616v-17.542C119.616,94.341,106.815,81.383,90.856,81.383z"/>
<path fill="#010202" d="M93.858,43.772c0-0.157,0-0.315,0-0.474c-8.06,2.055-18.488,3.318-29.55,3.318
	c-11.062,0-21.491-1.264-29.551-3.318c0,0.158,0,0.316,0,0.474c0,16.435,13.274,37.769,29.551,37.769
	C80.584,81.541,93.858,60.049,93.858,43.772z"/>
<path fill="#010202" d="M29.069,41.086h70.479c0.946,0,1.106-0.474,1.106-1.58v-0.948c0-0.948,0-2.212-1.106-2.212H96.23
	c0-14.222-9.799-25.758-22.439-29.866v8.849c0,3.951-3.004,6.795-6.954,6.795h-4.741c-3.951,0-7.427-2.845-7.427-6.795V6.321
	c-12.642,3.951-22.439,15.803-22.439,30.024h-3.318c-0.949,0-2.529,1.265-2.529,2.212v0.948
	C26.382,40.612,27.962,41.086,29.069,41.086z"/>
<path fill="#010202" d="M72.209,5.847C72.209,2.687,69.681,0,66.362,0h-4.267c-3.16,0-5.846,2.529-5.846,5.847v9.008
	c0,3.16,2.528,5.846,5.846,5.846h4.267c3.16,0,5.847-2.528,5.847-5.846V5.847z"/>
</svg>
