<?xml version="1.0" encoding="utf-8"?>
<!-- Generator: Adobe Illustrator 16.0.0, SVG Export Plug-In . SVG Version: 6.00 Build 0)  -->
<!DOCTYPE svg PUBLIC "-//W3C//DTD SVG 1.1//EN" "http://www.w3.org/Graphics/SVG/1.1/DTD/svg11.dtd">
<svg version="1.1" id="Capa_1" xmlns="http://www.w3.org/2000/svg" xmlns:xlink="http://www.w3.org/1999/xlink" x="0px" y="0px"
	 width="128px" height="128px" viewBox="0 0 128 128" enable-background="new 0 0 128 128" xml:space="preserve">
<g>
	<path d="M4.913,123.088c-6.551-6.549-6.551-17.117,0-23.666l31.274-31.063l7.818,7.818l43.108-43.108V17.221l31.695-15.849
		l8.033,7.819l-15.851,31.696h-15.85L51.824,83.997l7.817,7.817L28.58,123.088C22.029,129.638,11.464,129.638,4.913,123.088z
		 M106.133,111.679L70.209,75.543l-5.916,5.917l37.188,37.191c4.651,4.649,12.047,4.649,16.485,0c4.646-4.649,4.646-12.046,0-16.482
		L80.772,64.978l-5.916,5.916l36.135,36.136c1.268,1.268,1.268,3.38,0,4.858C109.725,112.946,107.611,112.946,106.133,111.679z
		 M29.425,53.779c4.226-0.423,8.452,1.267,11.622,4.438l5.495,5.494l5.917-5.917l-7.396-7.396c-1.268-1.268-1.268-3.38,0-4.859
		c1.267-1.27,3.38-1.27,4.86,0l7.396,7.396l5.917-5.917l-4.649-4.651c-3.169-3.169-4.859-7.817-4.437-12.466
		c0.844-7.819-1.691-16.061-7.607-22.188C39.568,0.739,29.425-1.586,20.55,0.951c-1.057,0.21-1.479,1.69-0.634,2.535l10.565,10.566
		c3.17,3.169,3.17,8.453,0,11.833l-5.071,5.283c-3.169,3.17-8.452,3.17-11.833,0l-9.931-9.932c-0.846-0.845-2.325-0.422-2.537,0.635
		c-1.69,8.452,0.634,17.75,7.185,24.3C14.21,51.876,22.029,54.414,29.425,53.779z"/>
</g>
</svg>
