<?xml version="1.0" encoding="utf-8"?>
<!-- Generator: Adobe Illustrator 16.0.0, SVG Export Plug-In . SVG Version: 6.00 Build 0)  -->
<!DOCTYPE svg PUBLIC "-//W3C//DTD SVG 1.1//EN" "http://www.w3.org/Graphics/SVG/1.1/DTD/svg11.dtd">
<svg version="1.1" id="Capa_1" xmlns="http://www.w3.org/2000/svg" xmlns:xlink="http://www.w3.org/1999/xlink" x="0px" y="0px"
	 width="7px" height="2.465px" viewBox="0 3.768 7 2.465" enable-background="new 0 3.768 7 2.465" xml:space="preserve">
<title>EMI h</title>
<g id="_x34_c36526a-72e2-4225-a26a-b3a9e752cbce" opacity="0.8">
	<g id="_x32_c48edaf-8dac-49e9-8a0f-24e7dc8b0043">
		<path d="M4.182,4.965l0.031,0.027C4.184,5.03,4.138,5.052,4.09,5.051c-0.027,0-0.054-0.006-0.078-0.019
			C3.991,5.02,3.973,5.002,3.96,4.98c-0.013-0.023-0.02-0.049-0.019-0.076c0-0.026,0.005-0.052,0.018-0.075
			c0.012-0.021,0.03-0.04,0.052-0.052c0.024-0.013,0.05-0.019,0.077-0.019c0.068-0.004,0.127,0.048,0.131,0.117c0,0,0,0.001,0,0.001
			L4.002,4.948c0.006,0.018,0.019,0.034,0.035,0.044c0.016,0.011,0.036,0.017,0.057,0.017C4.128,5.009,4.161,4.993,4.182,4.965z
			 M4.02,4.827C4.001,4.848,3.992,4.875,3.993,4.902v0.007l0.176-0.057C4.156,4.818,4.123,4.797,4.088,4.8
			C4.063,4.798,4.037,4.809,4.02,4.827L4.02,4.827z"/>
		<path d="M4.499,4.788C4.52,4.81,4.529,4.84,4.528,4.87v0.178H4.477V4.884C4.48,4.845,4.451,4.81,4.413,4.806
			c-0.005,0-0.01,0-0.015,0c-0.023,0-0.047,0.009-0.063,0.026c-0.018,0.017-0.027,0.04-0.027,0.063V5.05H4.256V4.76h0.053v0.061
			c0.02-0.042,0.063-0.067,0.109-0.063C4.447,4.756,4.477,4.767,4.499,4.788z"/>
		<path d="M4.729,5.03C4.709,5.043,4.686,5.05,4.662,5.051C4.641,5.052,4.619,5.043,4.605,5.027C4.59,5.007,4.582,4.982,4.584,4.958
			V4.692h0.052V4.77h0.089v0.039H4.636v0.14c0,0.037,0.012,0.056,0.036,0.056c0.016,0,0.031-0.005,0.044-0.014L4.729,5.03z"/>
		<path d="M4.956,4.777c0.021,0.012,0.04,0.03,0.052,0.052c0.025,0.048,0.025,0.104,0,0.152c-0.012,0.022-0.03,0.04-0.052,0.052
			c-0.049,0.025-0.106,0.025-0.155,0C4.779,5.02,4.761,5.002,4.749,4.98c-0.025-0.047-0.025-0.104,0-0.152
			c0.012-0.022,0.03-0.04,0.052-0.052C4.85,4.751,4.907,4.751,4.956,4.777L4.956,4.777z M4.828,4.816
			C4.814,4.825,4.803,4.837,4.794,4.852C4.786,4.868,4.781,4.886,4.781,4.904c0,0.019,0.004,0.037,0.013,0.054
			c0.008,0.015,0.021,0.028,0.034,0.036c0.016,0.009,0.034,0.014,0.053,0.013c0.018,0,0.034-0.004,0.049-0.013
			c0.016-0.008,0.027-0.021,0.035-0.036c0.008-0.017,0.013-0.035,0.012-0.054c0-0.018-0.004-0.036-0.012-0.052
			C4.957,4.837,4.945,4.825,4.93,4.816C4.915,4.807,4.898,4.802,4.881,4.803C4.862,4.802,4.844,4.806,4.828,4.816L4.828,4.816z"/>
		<path d="M5.162,4.775c0.02-0.011,0.041-0.017,0.063-0.017v0.049C5.174,4.801,5.127,4.838,5.121,4.889c0,0.002,0,0.005,0,0.007
			v0.152H5.069V4.76h0.052v0.063C5.129,4.802,5.145,4.786,5.162,4.775z"/>
		<path d="M5.492,4.788C5.514,4.81,5.523,4.84,5.521,4.87v0.178H5.471V4.884C5.475,4.845,5.445,4.81,5.406,4.806
			c-0.004,0-0.01,0-0.014,0c-0.023,0-0.047,0.009-0.063,0.026C5.314,4.849,5.305,4.871,5.305,4.894v0.155H5.252V4.76h0.053v0.061
			c0.02-0.042,0.063-0.067,0.109-0.063C5.443,4.756,5.472,4.768,5.492,4.788z"/>
		<path d="M5.782,4.777c0.021,0.012,0.04,0.03,0.052,0.052c0.025,0.048,0.025,0.104,0,0.152c-0.012,0.022-0.03,0.04-0.052,0.052
			c-0.049,0.025-0.106,0.025-0.155,0C5.605,5.02,5.588,5.002,5.575,4.98c-0.025-0.047-0.025-0.104,0-0.152
			c0.013-0.022,0.03-0.04,0.052-0.052C5.676,4.751,5.733,4.751,5.782,4.777L5.782,4.777z M5.654,4.816
			C5.641,4.825,5.629,4.837,5.62,4.852C5.612,4.868,5.607,4.886,5.608,4.904C5.607,4.922,5.611,4.941,5.62,4.958
			c0.008,0.015,0.021,0.028,0.034,0.036C5.67,5.002,5.688,5.007,5.707,5.006c0.018,0,0.034-0.004,0.049-0.013
			c0.016-0.008,0.027-0.021,0.035-0.036c0.008-0.017,0.013-0.035,0.012-0.054c0-0.018-0.004-0.036-0.012-0.052
			c-0.008-0.015-0.02-0.027-0.035-0.036C5.741,4.807,5.725,4.802,5.707,4.803C5.688,4.802,5.67,4.806,5.654,4.816L5.654,4.816z"/>
		<path d="M4.239,5.181v0.405H4.188V5.527c-0.01,0.019-0.025,0.034-0.044,0.045c-0.02,0.01-0.042,0.016-0.063,0.016
			c-0.025,0-0.051-0.006-0.073-0.02C3.986,5.557,3.969,5.539,3.958,5.518C3.946,5.493,3.94,5.466,3.94,5.439
			c0-0.026,0.006-0.052,0.018-0.075c0.011-0.021,0.028-0.04,0.049-0.052c0.022-0.013,0.047-0.019,0.072-0.019
			c0.022,0,0.045,0.004,0.065,0.015c0.018,0.01,0.033,0.025,0.043,0.044V5.181H4.239z M4.141,5.531
			C4.156,5.523,4.168,5.51,4.176,5.495c0.009-0.016,0.014-0.034,0.013-0.052C4.189,5.425,4.185,5.406,4.176,5.39
			c-0.008-0.015-0.02-0.028-0.035-0.037C4.125,5.344,4.107,5.339,4.09,5.34c-0.019,0-0.037,0.004-0.053,0.014
			C4.023,5.362,4.012,5.375,4.003,5.39c-0.017,0.034-0.017,0.073,0,0.106c0.009,0.015,0.021,0.028,0.034,0.037
			c0.032,0.018,0.07,0.018,0.102,0L4.141,5.531z"/>
		<path d="M4.526,5.502l0.03,0.027c-0.029,0.037-0.074,0.06-0.123,0.059c-0.027,0-0.053-0.006-0.077-0.02
			c-0.022-0.012-0.04-0.029-0.052-0.051c-0.014-0.024-0.02-0.05-0.02-0.077s0.006-0.052,0.019-0.075
			c0.013-0.022,0.03-0.04,0.052-0.052c0.023-0.013,0.051-0.02,0.078-0.019c0.068-0.004,0.127,0.048,0.131,0.117c0,0,0,0.001,0,0.001
			L4.347,5.484c0.007,0.019,0.019,0.034,0.035,0.045c0.017,0.012,0.036,0.017,0.057,0.016C4.473,5.545,4.506,5.529,4.526,5.502z
			 M4.363,5.364C4.345,5.385,4.336,5.412,4.338,5.438v0.007l0.176-0.058C4.501,5.355,4.468,5.333,4.433,5.336
			C4.406,5.335,4.381,5.345,4.363,5.364z"/>
		<path d="M5.17,5.325c0.02,0.022,0.029,0.052,0.028,0.082v0.179H5.146V5.421C5.148,5.4,5.141,5.379,5.127,5.363
			C5.111,5.349,5.092,5.342,5.072,5.343c-0.025,0-0.049,0.01-0.064,0.029C4.991,5.393,4.982,5.418,4.984,5.444v0.142H4.932V5.421
			C4.934,5.4,4.926,5.379,4.912,5.363C4.898,5.349,4.878,5.341,4.857,5.343c-0.025,0-0.049,0.01-0.064,0.029
			C4.776,5.392,4.768,5.417,4.77,5.443v0.143H4.717V5.297H4.77v0.061c0.019-0.042,0.063-0.066,0.107-0.063
			C4.9,5.293,4.924,5.3,4.943,5.314c0.018,0.013,0.031,0.032,0.035,0.053C4.996,5.32,5.042,5.291,5.092,5.294
			C5.121,5.293,5.149,5.304,5.17,5.325z"/>
		<path d="M5.474,5.502l0.03,0.027C5.475,5.566,5.43,5.588,5.382,5.588c-0.026,0-0.054-0.006-0.077-0.02
			c-0.021-0.012-0.04-0.029-0.053-0.051C5.24,5.494,5.233,5.467,5.234,5.441C5.233,5.415,5.24,5.389,5.252,5.366
			c0.012-0.022,0.029-0.04,0.052-0.052c0.024-0.013,0.05-0.02,0.077-0.019c0.068-0.003,0.127,0.05,0.131,0.118c0,0,0,0,0,0.001
			L5.293,5.485c0.008,0.018,0.02,0.034,0.035,0.044c0.018,0.012,0.037,0.018,0.057,0.017C5.42,5.545,5.453,5.529,5.474,5.502z
			 M5.311,5.364C5.293,5.385,5.283,5.412,5.285,5.438v0.007l0.176-0.058C5.448,5.355,5.415,5.333,5.38,5.336
			C5.354,5.335,5.328,5.345,5.311,5.364z"/>
		<path d="M5.819,5.181v0.405H5.768V5.527c-0.01,0.019-0.025,0.034-0.044,0.045c-0.02,0.01-0.042,0.016-0.063,0.016
			c-0.026,0-0.051-0.006-0.073-0.02C5.566,5.557,5.549,5.539,5.538,5.518C5.525,5.493,5.52,5.466,5.521,5.439
			C5.52,5.413,5.525,5.387,5.538,5.364c0.011-0.021,0.028-0.04,0.049-0.052c0.022-0.013,0.047-0.019,0.071-0.019
			c0.023,0,0.045,0.004,0.065,0.015c0.019,0.01,0.034,0.025,0.044,0.044V5.181H5.819z M5.721,5.531
			C5.736,5.523,5.748,5.51,5.756,5.495c0.008-0.016,0.013-0.034,0.013-0.052C5.77,5.425,5.765,5.406,5.756,5.39
			c-0.008-0.015-0.02-0.028-0.035-0.037C5.705,5.344,5.688,5.339,5.67,5.34c-0.019,0-0.037,0.004-0.053,0.014
			C5.604,5.362,5.591,5.375,5.583,5.39c-0.017,0.034-0.017,0.073,0,0.106c0.008,0.015,0.021,0.028,0.034,0.037
			c0.031,0.018,0.07,0.018,0.102,0L5.721,5.531z"/>
		<path d="M5.941,5.191c0.013,0.014,0.013,0.034,0,0.047c-0.012,0.012-0.032,0.012-0.045,0c-0.012-0.014-0.012-0.034,0-0.047
			C5.909,5.179,5.93,5.179,5.941,5.191z M5.895,5.297h0.051v0.289H5.895V5.297z"/>
		<path d="M6.137,5.341c-0.018,0-0.035,0.004-0.052,0.013C6.07,5.362,6.059,5.374,6.051,5.389C6.042,5.405,6.037,5.422,6.037,5.44
			S6.041,5.476,6.05,5.492c0.008,0.016,0.02,0.027,0.034,0.035c0.015,0.01,0.031,0.014,0.049,0.014s0.035-0.003,0.051-0.01
			c0.014-0.006,0.027-0.014,0.037-0.025L6.25,5.535C6.236,5.552,6.219,5.564,6.199,5.572c-0.021,0.01-0.045,0.014-0.068,0.014
			c-0.025,0-0.052-0.006-0.074-0.019c-0.021-0.012-0.04-0.03-0.053-0.052c-0.023-0.047-0.023-0.104,0-0.151
			c0.013-0.022,0.031-0.04,0.053-0.052C6.08,5.3,6.105,5.293,6.133,5.294c0.021,0,0.045,0.003,0.065,0.011
			c0.019,0.007,0.035,0.018,0.049,0.033L6.219,5.373C6.197,5.352,6.168,5.34,6.137,5.341z"/>
		<path d="M6.344,5.191c0.012,0.014,0.012,0.034,0,0.047c-0.012,0.012-0.032,0.012-0.045,0c-0.012-0.014-0.012-0.034,0-0.047
			C6.312,5.179,6.332,5.179,6.344,5.191z M6.297,5.297h0.051v0.289H6.297V5.297z"/>
		<path d="M6.615,5.314c0.022,0.012,0.04,0.03,0.053,0.052c0.025,0.047,0.025,0.104,0,0.152c-0.013,0.021-0.03,0.039-0.053,0.051
			c-0.049,0.025-0.105,0.025-0.154,0c-0.021-0.012-0.04-0.029-0.053-0.051c-0.024-0.048-0.024-0.105,0-0.152
			c0.013-0.022,0.031-0.04,0.053-0.052C6.51,5.288,6.566,5.288,6.615,5.314L6.615,5.314z M6.488,5.353
			C6.474,5.361,6.462,5.374,6.454,5.389C6.445,5.405,6.441,5.422,6.441,5.44c0,0.019,0.004,0.037,0.013,0.054
			C6.462,5.51,6.474,5.521,6.488,5.53C6.504,5.539,6.521,5.544,6.54,5.543c0.018,0,0.034-0.004,0.05-0.013S6.617,5.51,6.625,5.494
			C6.633,5.478,6.637,5.459,6.637,5.44c0-0.018-0.004-0.036-0.012-0.052C6.617,5.374,6.605,5.361,6.59,5.353
			C6.575,5.344,6.558,5.339,6.54,5.339C6.521,5.339,6.504,5.343,6.488,5.353z M6.568,5.175l0.053,0.023L6.553,5.251L6.51,5.246
			L6.568,5.175z"/>
		<path d="M6.971,5.325C6.991,5.347,7.002,5.377,7,5.407v0.179H6.948V5.421c0.004-0.039-0.024-0.074-0.063-0.078
			c-0.005,0-0.01,0-0.014,0c-0.023,0-0.047,0.009-0.063,0.026s-0.026,0.04-0.028,0.063v0.156H6.729V5.297h0.051v0.061
			C6.8,5.315,6.845,5.29,6.891,5.294C6.921,5.293,6.949,5.304,6.971,5.325z"/>
		<path d="M4.028,5.717c0.008,0.009,0.013,0.02,0.012,0.031c0,0.011-0.004,0.021-0.012,0.029c-0.016,0.016-0.042,0.017-0.058,0l0,0
			C3.963,5.77,3.959,5.759,3.959,5.748c0-0.012,0.004-0.022,0.012-0.031C3.986,5.701,4.012,5.701,4.028,5.717L4.028,5.717z
			 M3.964,5.83h0.073v0.293H3.965L3.964,5.83z"/>
		<path d="M4.365,5.858c0.02,0.022,0.031,0.053,0.029,0.083v0.182H4.322V5.961c0.001-0.018-0.006-0.035-0.018-0.049
			C4.292,5.9,4.275,5.895,4.258,5.895c-0.021,0-0.043,0.008-0.057,0.024s-0.021,0.038-0.02,0.06v0.145H4.109V5.83h0.072v0.055
			c0.02-0.037,0.061-0.061,0.104-0.057C4.315,5.826,4.344,5.838,4.365,5.858z"/>
		<path d="M4.612,6.105C4.591,6.119,4.566,6.126,4.541,6.126C4.517,6.127,4.494,6.117,4.478,6.1C4.459,6.081,4.45,6.056,4.451,6.029
			V5.762h0.072v0.081h0.083v0.052H4.523v0.123c0,0.03,0.01,0.045,0.03,0.045c0.015,0,0.028-0.004,0.041-0.012L4.612,6.105z"/>
		<path d="M4.827,6.059c0.015-0.008,0.027-0.018,0.038-0.031l0.041,0.039c-0.031,0.039-0.08,0.061-0.13,0.059
			C4.748,6.127,4.721,6.119,4.697,6.107s-0.042-0.03-0.055-0.053c-0.014-0.023-0.02-0.05-0.02-0.077
			c0-0.026,0.006-0.054,0.019-0.077c0.013-0.021,0.03-0.04,0.052-0.053c0.024-0.012,0.052-0.02,0.08-0.018
			c0.036-0.003,0.072,0.01,0.1,0.033c0.025,0.025,0.039,0.061,0.039,0.096L4.705,6.018c0.006,0.016,0.017,0.029,0.03,0.038
			c0.015,0.009,0.03,0.014,0.048,0.013C4.799,6.068,4.813,6.065,4.827,6.059z M4.719,5.906C4.703,5.924,4.695,5.947,4.696,5.971
			l0.147-0.043C4.834,5.9,4.807,5.882,4.776,5.884C4.755,5.883,4.733,5.891,4.719,5.906z"/>
		<path d="M5.029,6.053c0.006,0.006,0.012,0.009,0.02,0.008c0.01,0,0.021-0.003,0.029-0.008l0.008,0.059
			c-0.017,0.01-0.035,0.015-0.055,0.015C5.01,6.127,4.988,6.118,4.975,6.103C4.958,6.084,4.95,6.059,4.951,6.034V5.718h0.07v0.311
			C5.021,6.037,5.023,6.046,5.029,6.053z"/>
		<path d="M5.181,5.717c0.008,0.009,0.012,0.02,0.011,0.031C5.192,5.759,5.188,5.77,5.181,5.777c-0.017,0.016-0.042,0.017-0.058,0
			l0,0C5.115,5.77,5.111,5.759,5.111,5.748c0-0.012,0.004-0.022,0.012-0.031C5.139,5.701,5.164,5.701,5.181,5.717L5.181,5.717z
			 M5.117,5.83h0.07v0.293h-0.07V5.83z"/>
		<path d="M5.529,5.83v0.266c0,0.025-0.006,0.05-0.02,0.072C5.498,6.188,5.479,6.205,5.457,6.215
			c-0.025,0.012-0.053,0.018-0.08,0.018c-0.045,0-0.088-0.014-0.124-0.039l0.028-0.053C5.308,6.161,5.34,6.172,5.373,6.172
			c0.022,0.001,0.045-0.006,0.063-0.021c0.016-0.014,0.023-0.034,0.023-0.056V6.063C5.449,6.077,5.436,6.089,5.42,6.097
			C5.402,6.105,5.385,6.109,5.365,6.108C5.342,6.109,5.318,6.103,5.298,6.09c-0.02-0.012-0.035-0.029-0.046-0.049
			C5.241,6.018,5.236,5.992,5.236,5.967c0-0.024,0.005-0.049,0.016-0.072c0.012-0.02,0.027-0.037,0.047-0.049
			s0.043-0.018,0.067-0.018c0.019,0,0.038,0.004,0.054,0.012s0.029,0.02,0.039,0.035V5.83H5.529z M5.437,6.029
			c0.028-0.035,0.028-0.086,0-0.121c-0.03-0.031-0.079-0.031-0.11-0.002c0,0-0.001,0.002-0.002,0.002
			c-0.029,0.035-0.029,0.086,0,0.121C5.355,6.061,5.406,6.061,5.437,6.029L5.437,6.029L5.437,6.029z"/>
		<path d="M5.775,6.059c0.014-0.008,0.027-0.018,0.037-0.031l0.041,0.039C5.822,6.105,5.775,6.127,5.725,6.125
			C5.697,6.127,5.67,6.119,5.645,6.107c-0.021-0.012-0.041-0.03-0.054-0.053c-0.013-0.023-0.021-0.05-0.02-0.077
			C5.57,5.951,5.577,5.924,5.59,5.9c0.012-0.021,0.03-0.04,0.052-0.053c0.024-0.012,0.052-0.02,0.079-0.018
			c0.037-0.003,0.072,0.01,0.1,0.033c0.025,0.025,0.04,0.061,0.04,0.096L5.653,6.018C5.66,6.033,5.67,6.047,5.684,6.056
			c0.016,0.009,0.031,0.014,0.049,0.013C5.747,6.068,5.762,6.064,5.775,6.059z M5.666,5.906C5.651,5.924,5.644,5.947,5.645,5.971
			l0.147-0.043C5.782,5.9,5.755,5.882,5.725,5.884C5.703,5.883,5.682,5.891,5.666,5.906z"/>
		<path d="M6.16,5.858c0.02,0.022,0.03,0.053,0.029,0.083v0.182H6.117V5.961C6.118,5.943,6.111,5.926,6.1,5.912
			C6.087,5.9,6.07,5.895,6.052,5.895c-0.021,0-0.042,0.008-0.056,0.024s-0.021,0.038-0.021,0.06v0.145H5.904V5.83h0.072v0.055
			c0.02-0.037,0.061-0.061,0.104-0.057C6.11,5.826,6.139,5.838,6.16,5.858z"/>
		<path d="M6.407,6.105C6.385,6.119,6.36,6.126,6.335,6.126C6.312,6.127,6.289,6.117,6.271,6.1c-0.018-0.019-0.026-0.044-0.025-0.07
			V5.762h0.071v0.081H6.4v0.052H6.318v0.123c0,0.03,0.011,0.045,0.031,0.045c0.015,0,0.028-0.004,0.041-0.012L6.407,6.105z"/>
		<path d="M6.621,6.059C6.637,6.051,6.649,6.041,6.66,6.027l0.041,0.039C6.67,6.105,6.622,6.127,6.572,6.125
			c-0.028,0.002-0.056-0.006-0.08-0.018c-0.023-0.012-0.041-0.03-0.055-0.053c-0.014-0.023-0.02-0.05-0.02-0.077
			c0-0.026,0.006-0.054,0.02-0.077c0.012-0.021,0.029-0.04,0.051-0.053c0.025-0.012,0.053-0.02,0.08-0.018
			c0.036-0.003,0.072,0.01,0.1,0.033c0.025,0.025,0.039,0.061,0.039,0.096L6.5,6.018c0.006,0.016,0.018,0.029,0.031,0.038
			s0.031,0.014,0.047,0.013C6.594,6.068,6.608,6.064,6.621,6.059z M6.513,5.906C6.498,5.924,6.49,5.947,6.491,5.971l0.147-0.043
			C6.629,5.9,6.602,5.883,6.572,5.885C6.551,5.883,6.528,5.891,6.513,5.906z"/>
		<path d="M1.958,5.158C1.859,5.016,1.697,4.931,1.524,4.929C1.417,4.93,1.313,4.972,1.234,5.045
			C1.256,5.006,1.282,4.97,1.312,4.938C1.413,4.833,1.55,4.77,1.696,4.762c0.187-0.016,0.341,0.052,0.461,0.203
			c0.3-0.104,0.543,0.074,0.603,0.133c0,0,0,0.001,0,0.002c-0.042-0.04-0.099-0.061-0.157-0.06C2.526,5.039,2.45,5.068,2.392,5.121
			C2.335,5.169,2.303,5.24,2.306,5.314v0.661c0,0.081-0.066,0.147-0.148,0.148l0,0c-0.082,0-0.149-0.066-0.149-0.149v-0.66
			C2.01,5.258,1.992,5.203,1.958,5.158L1.958,5.158z"/>
		<path d="M1.524,5.128C1.473,5.192,1.447,5.271,1.449,5.353v0.475c0,0.162-0.132,0.295-0.295,0.295l0,0V5.372
			C1.151,5.257,1.179,5.144,1.234,5.043c0.079-0.073,0.182-0.115,0.29-0.116c0.173,0.002,0.335,0.087,0.435,0.229l0,0
			C1.948,5.143,1.937,5.131,1.924,5.12C1.866,5.066,1.789,5.038,1.71,5.039C1.638,5.037,1.568,5.07,1.524,5.128z"/>
		<path d="M2.862,5.553c0,0.178,0.122,0.332,0.294,0.372V5.374c0-0.181-0.052-0.327-0.155-0.436c-0.1-0.106-0.237-0.169-0.383-0.176
			C2.435,4.746,2.277,4.814,2.158,4.965l0,0c0.3-0.104,0.543,0.074,0.603,0.133c0,0,0,0.001,0,0.002
			c0.01,0.009,0.019,0.018,0.027,0.028c0.05,0.064,0.076,0.144,0.073,0.225L2.862,5.553z"/>
		<path d="M2.762,5.1L2.762,5.1z"/>
		<path d="M3.476,5.096c-0.054,0-0.106-0.018-0.147-0.052v0.879C3.5,5.885,3.623,5.73,3.623,5.553V5.044
			C3.581,5.078,3.529,5.096,3.476,5.096z"/>
		<path d="M3.623,5.553c0,0.211-0.17,0.381-0.38,0.381s-0.38-0.17-0.38-0.381l0,0v0.299l0,0c0,0.21,0.17,0.381,0.38,0.381
			s0.38-0.171,0.38-0.381l0,0V5.553z"/>
		<path d="M0.543,6.1c-0.166,0-0.322-0.076-0.425-0.205c0.031,0.047,0.067,0.09,0.107,0.129C0.243,6.041,0.261,6.057,0.28,6.072
			c0.125,0.104,0.282,0.16,0.444,0.16h0.01C0.822,6.23,0.91,6.215,0.992,6.182V5.869L0.986,5.873C0.883,6.016,0.719,6.1,0.543,6.1z"
			/>
		<path d="M0.835,5.004c-0.035,0-0.071,0.003-0.105,0.009c-0.034,0.006-0.067,0.015-0.1,0.026L0.606,5.048
			C0.551,5.071,0.5,5.102,0.455,5.139c0.079-0.063,0.177-0.099,0.278-0.099c0.191,0.001,0.36,0.122,0.423,0.303H0.311
			C0.28,5.43,0.276,5.523,0.299,5.613h1.15C1.445,5.276,1.172,5.005,0.835,5.004z"/>
		<path d="M1.25,4.991c-0.126-0.136-0.3-0.218-0.485-0.23C0.557,4.749,0.376,4.819,0.221,4.972C0.073,5.111-0.007,5.308,0,5.511
			c0.001,0.138,0.042,0.272,0.12,0.386c0.188,0.234,0.53,0.271,0.764,0.084c0.039-0.03,0.072-0.066,0.101-0.106
			C0.964,5.889,0.941,5.902,0.917,5.912C0.746,5.991,0.543,5.953,0.413,5.816C0.361,5.766,0.323,5.703,0.304,5.633V5.631V5.629
			C0.276,5.535,0.279,5.436,0.311,5.344l0,0c0.026-0.078,0.073-0.146,0.137-0.198l0.009-0.007c0.108-0.087,0.242-0.134,0.38-0.134
			c0.335,0.002,0.607,0.272,0.612,0.608V5.464C1.449,5.29,1.382,5.13,1.25,4.991z"/>
		<path d="M4.053,4.278c-0.034-0.076-0.124-0.109-0.2-0.075C3.805,4.226,3.771,4.272,3.766,4.325l0,0
			C3.744,4.438,3.631,4.58,3.496,4.56l0,0C3.465,4.558,3.434,4.562,3.404,4.573l0,0c-0.104,0-0.173-0.063-0.185-0.139
			c0.019-0.02,0.044-0.031,0.07-0.031h0.018c0.026,0.003,0.05,0.013,0.071,0.028c0.049,0.047,0.127,0.045,0.174-0.005
			c0.035-0.036,0.043-0.09,0.023-0.135C3.565,4.267,3.547,4.248,3.524,4.235l0,0c-0.05-0.034-0.052-0.147,0-0.205l0,0
			C3.586,3.974,3.59,3.879,3.535,3.817C3.479,3.755,3.383,3.75,3.322,3.806C3.279,3.845,3.262,3.905,3.278,3.96l0,0
			c0.016,0.063-0.084,0.259-0.214,0.285l0,0c-0.083,0.001-0.149,0.07-0.148,0.154C2.918,4.481,2.987,4.548,3.07,4.546
			c0.006,0,0.013-0.001,0.019-0.001l0,0c0.1,0,0.185,0.096,0.185,0.217l0,0c0,0.03,0.006,0.059,0.018,0.086
			C3.338,4.951,3.459,4.997,3.563,4.95c0.069-0.031,0.115-0.098,0.12-0.173l0,0C3.676,4.634,3.785,4.504,3.899,4.493l0,0
			c0.083,0.009,0.157-0.051,0.167-0.133C4.068,4.332,4.064,4.305,4.053,4.28V4.278z M3.35,4.293L3.35,4.293
			C3.318,4.335,3.264,4.335,3.21,4.31C3.237,4.215,3.3,4.134,3.386,4.084c0.029,0.052,0.028,0.13-0.003,0.165l0,0
			C3.369,4.261,3.357,4.276,3.35,4.293z"/>
		<polygon points="2.863,5.341 2.863,5.341 2.863,5.341 		"/>
	</g>
</g>
</svg>
