<svg xmlns="http://www.w3.org/2000/svg" xmlns:xlink="http://www.w3.org/1999/xlink" viewBox="0 0 270.53 95.23"><defs><style>.\32 f2d5113-2497-497e-a0a0-4ece0ff0446d{fill:#005cb9;}.f577e5b1-4bde-4d05-a81f-78f1125284ea{fill:url(#e276003f-a061-4427-a34c-ae3f73059d48);}.c8f1c9eb-5d4c-4ec0-afb0-74a7af12f2dc{fill:url(#ef4c3420-7c2e-4051-b41d-ab29b3442361);}.\36 a810c11-c54d-4d05-b6b8-250618b38b3c{fill:url(#28b43e25-932e-41be-97b8-646fe678c065);}.eece2845-e186-40c6-927a-59c0191b70f3{fill:url(#1c049874-9b4a-4b56-aab7-ab95a8872ca6);}.\38 29bf1f1-6813-4378-b469-ba17e3b0ade8{fill:url(#46d0dbb2-d5bc-44d9-a1a9-f6e24327fe84);}.\33 670ad16-8b86-4645-8fd3-d0f7f754a42e{fill:url(#a26cc197-0507-441d-ba84-aa76c65440e8);}.\37 5bce6b4-2a14-439c-aa6a-22fe4160bed2{fill:url(#a077efd8-6626-4237-ac74-30155771f9e2);}.\31 81493b6-05ec-4fd4-963d-e6c0556b5018{fill:url(#4bf5f197-d8a5-4acd-a7be-f81f9588b260);}.ced95868-035c-41c4-b245-6a46ad367cb2{fill:#1d1d1b;}</style><linearGradient id="e276003f-a061-4427-a34c-ae3f73059d48" x1="45.8" y1="56.45" x2="101.41" y2="71.35" gradientUnits="userSpaceOnUse"><stop offset="0" stop-color="gold"/><stop offset="0.06" stop-color="#f9d601"/><stop offset="0.15" stop-color="#e9d205"/><stop offset="0.24" stop-color="#cfcd0b"/><stop offset="0.34" stop-color="#aac513"/><stop offset="0.44" stop-color="#7abb1d"/><stop offset="0.55" stop-color="#41ae29"/><stop offset="0.56" stop-color="#3fae2a"/><stop offset="0.81" stop-color="#157888"/><stop offset="0.96" stop-color="#005cb9"/></linearGradient><linearGradient id="ef4c3420-7c2e-4051-b41d-ab29b3442361" x1="36.22" y1="76.56" x2="75.71" y2="53.76" gradientUnits="userSpaceOnUse"><stop offset="0" stop-color="gold"/><stop offset="0.29" stop-color="#fdd701"/><stop offset="0.44" stop-color="#f5d502"/><stop offset="0.55" stop-color="#e7d205"/><stop offset="0.65" stop-color="#d4ce09"/><stop offset="0.74" stop-color="#bcc90f"/><stop offset="0.83" stop-color="#9dc215"/><stop offset="0.9" stop-color="#79ba1d"/><stop offset="0.97" stop-color="#50b226"/><stop offset="1" stop-color="#3fae2a"/></linearGradient><linearGradient id="28b43e25-932e-41be-97b8-646fe678c065" x1="81.75" y1="55.55" x2="125.56" y2="63.27" gradientUnits="userSpaceOnUse"><stop offset="0" stop-color="gold"/><stop offset="0.3" stop-color="#3fae2a"/><stop offset="0.39" stop-color="#3cab30"/><stop offset="0.52" stop-color="#35a141"/><stop offset="0.67" stop-color="#28905e"/><stop offset="0.83" stop-color="#177a85"/><stop offset="0.99" stop-color="#015db7"/><stop offset="1" stop-color="#005cb9"/></linearGradient><linearGradient id="1c049874-9b4a-4b56-aab7-ab95a8872ca6" x1="106.73" y1="51.49" x2="106.74" y2="51.49" xlink:href="#28b43e25-932e-41be-97b8-646fe678c065"/><linearGradient id="46d0dbb2-d5bc-44d9-a1a9-f6e24327fe84" x1="111.94" y1="86.75" x2="140.67" y2="70.17" gradientUnits="userSpaceOnUse"><stop offset="0" stop-color="#3fae2a"/><stop offset="0.15" stop-color="#2b9458"/><stop offset="0.31" stop-color="#187c82"/><stop offset="0.46" stop-color="#0b6aa0"/><stop offset="0.59" stop-color="#0360b2"/><stop offset="0.68" stop-color="#005cb9"/></linearGradient><linearGradient id="a26cc197-0507-441d-ba84-aa76c65440e8" x1="4.56" y1="88.22" x2="38.32" y2="88.22" gradientUnits="userSpaceOnUse"><stop offset="0.1" stop-color="#ff671b"/><stop offset="1" stop-color="gold"/></linearGradient><radialGradient id="a077efd8-6626-4237-ac74-30155771f9e2" cx="11.3" cy="65.17" r="39.76" gradientUnits="userSpaceOnUse"><stop offset="0" stop-color="#e2231a"/><stop offset="0.11" stop-color="#e32b19"/><stop offset="0.28" stop-color="#e74116"/><stop offset="0.49" stop-color="#ed6510"/><stop offset="0.73" stop-color="#f59709"/><stop offset="1" stop-color="#ffd600"/><stop offset="1" stop-color="gold"/></radialGradient><linearGradient id="4bf5f197-d8a5-4acd-a7be-f81f9588b260" y1="64.22" x2="56" y2="64.22" gradientUnits="userSpaceOnUse"><stop offset="0" stop-color="#e2231a"/><stop offset="1" stop-color="#ff671b"/></linearGradient></defs><title>EMI h</title><g id="4c36526a-72e2-4225-a26a-b3a9e752cbce" data-name="Capa 2"><g id="2c48edaf-8dac-49e9-8a0f-24e7dc8b0043" data-name="Líneas"><path class="2f2d5113-2497-497e-a0a0-4ece0ff0446d" d="M161.63,46.25l1.18,1.06a5.8,5.8,0,0,1-4.75,2.26,6,6,0,0,1-3-.72,5.16,5.16,0,0,1-2-2,5.85,5.85,0,0,1-.73-2.95A6,6,0,0,1,153,41a5,5,0,0,1,2-2,6,6,0,0,1,3-.72,4.8,4.8,0,0,1,5.07,4.58l-8.42,2.74A3.58,3.58,0,0,0,156,47.32a3.81,3.81,0,0,0,2.19.63A4.32,4.32,0,0,0,161.63,46.25Zm-6.31-5.31a4,4,0,0,0-1,2.88v.27l6.8-2.22a3.06,3.06,0,0,0-3.12-2A3.52,3.52,0,0,0,155.31,40.94Z"/><path class="2f2d5113-2497-497e-a0a0-4ece0ff0446d" d="M173.87,39.41A4.37,4.37,0,0,1,175,42.59v6.9h-2V43.12a2.74,2.74,0,0,0-3-3,3.37,3.37,0,0,0-2.44,1,3.77,3.77,0,0,0-1.07,2.44v6h-2V38.33h2v2.36a4.31,4.31,0,0,1,4.24-2.43A4.1,4.1,0,0,1,173.87,39.41Z"/><path class="2f2d5113-2497-497e-a0a0-4ece0ff0446d" d="M182.74,48.76a4.75,4.75,0,0,1-2.58.82,2.79,2.79,0,0,1-2.18-.93,3.88,3.88,0,0,1-.83-2.68V35.71h2v3h3.44v1.5h-3.44v5.41q0,2.15,1.39,2.15a3.52,3.52,0,0,0,1.71-.53Z"/><path class="2f2d5113-2497-497e-a0a0-4ece0ff0446d" d="M191.53,39a5.16,5.16,0,0,1,2,2,6.26,6.26,0,0,1,0,5.86,5.14,5.14,0,0,1-2,2,6.53,6.53,0,0,1-6,0,5.16,5.16,0,0,1-2-2,6.28,6.28,0,0,1,0-5.87,5.16,5.16,0,0,1,2-2,6.53,6.53,0,0,1,6,0Zm-4.92,1.5a3.5,3.5,0,0,0-1.33,1.4,4.29,4.29,0,0,0-.47,2,4.4,4.4,0,0,0,.47,2.07,3.41,3.41,0,0,0,1.33,1.4,3.82,3.82,0,0,0,2,.5,3.78,3.78,0,0,0,1.93-.5,3.41,3.41,0,0,0,1.33-1.4,4.39,4.39,0,0,0,.48-2.07,4.28,4.28,0,0,0-.48-2,3.5,3.5,0,0,0-1.33-1.4,3.72,3.72,0,0,0-1.93-.51A3.76,3.76,0,0,0,186.61,40.48Z"/><path class="2f2d5113-2497-497e-a0a0-4ece0ff0446d" d="M199.5,38.91a4.64,4.64,0,0,1,2.41-.64v1.9a3.59,3.59,0,0,0-4,3.44V49.5h-2V38.33h2v2.41A4,4,0,0,1,199.5,38.91Z"/><path class="2f2d5113-2497-497e-a0a0-4ece0ff0446d" d="M212.28,39.41a4.37,4.37,0,0,1,1.12,3.18v6.9h-2V43.12a2.74,2.74,0,0,0-3-3,3.37,3.37,0,0,0-2.44,1A3.77,3.77,0,0,0,205,43.52v6h-2V38.33h2v2.36a4.31,4.31,0,0,1,4.24-2.43A4.1,4.1,0,0,1,212.28,39.41Z"/><path class="2f2d5113-2497-497e-a0a0-4ece0ff0446d" d="M223.46,39a5.16,5.16,0,0,1,2,2,6.26,6.26,0,0,1,0,5.86,5.14,5.14,0,0,1-2,2,6.53,6.53,0,0,1-6,0,5.16,5.16,0,0,1-2-2,6.28,6.28,0,0,1,0-5.87,5.16,5.16,0,0,1,2-2,6.53,6.53,0,0,1,6,0Zm-4.92,1.5a3.5,3.5,0,0,0-1.33,1.4,4.29,4.29,0,0,0-.47,2,4.4,4.4,0,0,0,.47,2.07,3.41,3.41,0,0,0,1.33,1.4,3.82,3.82,0,0,0,2,.5,3.78,3.78,0,0,0,1.93-.5,3.41,3.41,0,0,0,1.33-1.4,4.39,4.39,0,0,0,.48-2.07,4.28,4.28,0,0,0-.48-2,3.5,3.5,0,0,0-1.33-1.4,3.72,3.72,0,0,0-1.93-.51A3.76,3.76,0,0,0,218.54,40.48Z"/><path class="2f2d5113-2497-497e-a0a0-4ece0ff0446d" d="M163.84,54.59V70.26h-2V68a4.44,4.44,0,0,1-1.7,1.72,5,5,0,0,1-2.48.6,5.34,5.34,0,0,1-2.8-.73,5,5,0,0,1-1.89-2,6.34,6.34,0,0,1-.68-3,6.16,6.16,0,0,1,.68-2.92,5,5,0,0,1,1.89-2,5.36,5.36,0,0,1,2.78-.72,5.14,5.14,0,0,1,2.51.59,4.21,4.21,0,0,1,1.69,1.71V54.59Zm-3.79,13.58a3.55,3.55,0,0,0,1.34-1.42,4.27,4.27,0,0,0,.49-2,4.31,4.31,0,0,0-.49-2.07,3.55,3.55,0,0,0-1.34-1.42,3.76,3.76,0,0,0-2-.51,3.7,3.7,0,0,0-2,.52,3.63,3.63,0,0,0-1.34,1.43,4.56,4.56,0,0,0,0,4.1,3.55,3.55,0,0,0,1.34,1.42,4,4,0,0,0,3.91,0Z"/><path class="2f2d5113-2497-497e-a0a0-4ece0ff0446d" d="M174.93,67l1.18,1.06a5.8,5.8,0,0,1-4.75,2.26,6,6,0,0,1-3-.72,5.16,5.16,0,0,1-2-2,5.85,5.85,0,0,1-.73-2.95,6,6,0,0,1,.7-2.91,5,5,0,0,1,2-2,6,6,0,0,1,3-.72,4.8,4.8,0,0,1,5.07,4.58l-8.42,2.74a3.58,3.58,0,0,0,1.36,1.73,3.81,3.81,0,0,0,2.19.63A4.32,4.32,0,0,0,174.93,67Zm-6.31-5.31a4,4,0,0,0-1,2.88v.27l6.8-2.22a3.06,3.06,0,0,0-3.12-2A3.52,3.52,0,0,0,168.62,61.69Z"/><path class="2f2d5113-2497-497e-a0a0-4ece0ff0446d" d="M199.8,60.18a4.43,4.43,0,0,1,1.1,3.17v6.9h-2V63.88a3.07,3.07,0,0,0-.77-2.22,2.81,2.81,0,0,0-2.12-.8A3.2,3.2,0,0,0,193.53,62a4.14,4.14,0,0,0-.91,2.77v5.51h-2V63.88a3.1,3.1,0,0,0-.76-2.22,2.8,2.8,0,0,0-2.13-.8,3.24,3.24,0,0,0-2.5,1.12,4.11,4.11,0,0,0-.92,2.77v5.51h-2V59.09h2v2.34A4.22,4.22,0,0,1,188.48,59a4.27,4.27,0,0,1,2.57.74,3.62,3.62,0,0,1,1.38,2.07A4.24,4.24,0,0,1,196.78,59,4,4,0,0,1,199.8,60.18Z"/><path class="2f2d5113-2497-497e-a0a0-4ece0ff0446d" d="M211.54,67l1.18,1.06A5.8,5.8,0,0,1,208,70.32a6,6,0,0,1-3-.72,5.16,5.16,0,0,1-2-2,5.85,5.85,0,0,1-.73-2.95,6,6,0,0,1,.7-2.91,5,5,0,0,1,2-2,6,6,0,0,1,3-.72A4.8,4.8,0,0,1,213,63.61l-8.42,2.74a3.58,3.58,0,0,0,1.36,1.73,3.81,3.81,0,0,0,2.19.63A4.32,4.32,0,0,0,211.54,67Zm-6.31-5.31a4,4,0,0,0-1,2.88v.27l6.8-2.22a3.06,3.06,0,0,0-3.12-2A3.52,3.52,0,0,0,205.23,61.69Z"/><path class="2f2d5113-2497-497e-a0a0-4ece0ff0446d" d="M224.9,54.59V70.26h-2V68a4.44,4.44,0,0,1-1.7,1.72,5,5,0,0,1-2.48.6,5.34,5.34,0,0,1-2.8-.73,5,5,0,0,1-1.89-2,6.34,6.34,0,0,1-.68-3,6.16,6.16,0,0,1,.68-2.92,5,5,0,0,1,1.89-2,5.36,5.36,0,0,1,2.78-.72,5.14,5.14,0,0,1,2.51.59,4.21,4.21,0,0,1,1.69,1.71V54.59Zm-3.79,13.58a3.55,3.55,0,0,0,1.34-1.42,4.27,4.27,0,0,0,.49-2,4.31,4.31,0,0,0-.49-2.07,3.55,3.55,0,0,0-1.34-1.42,3.76,3.76,0,0,0-2-.51,3.7,3.7,0,0,0-2,.52,3.63,3.63,0,0,0-1.34,1.43,4.56,4.56,0,0,0,0,4.1,3.55,3.55,0,0,0,1.34,1.42,4,4,0,0,0,3.91,0Z"/><path class="2f2d5113-2497-497e-a0a0-4ece0ff0446d" d="M229.64,55a1.36,1.36,0,0,1,0,1.82,1.25,1.25,0,0,1-1.75,0,1.36,1.36,0,0,1,0-1.82,1.25,1.25,0,0,1,1.75,0Zm-1.85,4.1h2V70.26h-2Z"/><path class="2f2d5113-2497-497e-a0a0-4ece0ff0446d" d="M237.17,60.78a3.88,3.88,0,0,0-2,.49,3.45,3.45,0,0,0-1.34,1.37,4.19,4.19,0,0,0-.49,2,4.27,4.27,0,0,0,.47,2,3.49,3.49,0,0,0,1.31,1.38,3.67,3.67,0,0,0,1.91.5,5,5,0,0,0,1.94-.36,3.7,3.7,0,0,0,1.44-1l1.12,1.14a4.94,4.94,0,0,1-1.93,1.46,6.61,6.61,0,0,1-2.65.51,5.76,5.76,0,0,1-2.89-.72,5.08,5.08,0,0,1-2-2,6.42,6.42,0,0,1,0-5.86,5.06,5.06,0,0,1,2-2A5.76,5.76,0,0,1,237,59a7.08,7.08,0,0,1,2.54.43,4.92,4.92,0,0,1,1.89,1.26l-1.08,1.35A4.42,4.42,0,0,0,237.17,60.78Z"/><path class="2f2d5113-2497-497e-a0a0-4ece0ff0446d" d="M245.18,55a1.36,1.36,0,0,1,0,1.82,1.25,1.25,0,0,1-1.75,0,1.36,1.36,0,0,1,0-1.82,1.25,1.25,0,0,1,1.75,0Zm-1.85,4.1h2V70.26h-2Z"/><path class="2f2d5113-2497-497e-a0a0-4ece0ff0446d" d="M255.68,59.74a5.16,5.16,0,0,1,2,2,6.26,6.26,0,0,1,0,5.86,5.14,5.14,0,0,1-2,2,6.53,6.53,0,0,1-6,0,5.16,5.16,0,0,1-2-2,6.28,6.28,0,0,1,0-5.87,5.16,5.16,0,0,1,2-2,6.53,6.53,0,0,1,6,0Zm-4.92,1.5a3.5,3.5,0,0,0-1.33,1.4,4.29,4.29,0,0,0-.47,2,4.4,4.4,0,0,0,.47,2.07,3.41,3.41,0,0,0,1.33,1.4,3.82,3.82,0,0,0,2,.5,3.78,3.78,0,0,0,1.93-.5,3.41,3.41,0,0,0,1.33-1.4,4.39,4.39,0,0,0,.48-2.07,4.28,4.28,0,0,0-.48-2,3.5,3.5,0,0,0-1.33-1.4,3.72,3.72,0,0,0-1.93-.51A3.76,3.76,0,0,0,250.76,61.24Zm3.11-6.86,2,.89-2.62,2.07-1.67-.21Z"/><path class="2f2d5113-2497-497e-a0a0-4ece0ff0446d" d="M269.41,60.17a4.37,4.37,0,0,1,1.12,3.18v6.9h-2V63.88a2.74,2.74,0,0,0-3-3,3.37,3.37,0,0,0-2.44,1,3.77,3.77,0,0,0-1.07,2.44v6h-2V59.09h2v2.36A4.31,4.31,0,0,1,266.33,59,4.1,4.1,0,0,1,269.41,60.17Z"/><path class="2f2d5113-2497-497e-a0a0-4ece0ff0446d" d="M155.69,75.33a1.64,1.64,0,0,1,.44,1.18,1.61,1.61,0,0,1-.44,1.16,1.58,1.58,0,0,1-2.24,0,1.61,1.61,0,0,1-.44-1.16,1.64,1.64,0,0,1,.44-1.18,1.58,1.58,0,0,1,2.24,0Zm-2.47,4.39H156V91h-2.75Z"/><path class="2f2d5113-2497-497e-a0a0-4ece0ff0446d" d="M168.7,80.79A4.41,4.41,0,0,1,169.82,84V91h-2.77V84.76a2.55,2.55,0,0,0-.68-1.87,2.46,2.46,0,0,0-1.84-.69,2.78,2.78,0,0,0-2.16.93,3.4,3.4,0,0,0-.79,2.32V91h-2.75V79.72h2.75v2.11a4.28,4.28,0,0,1,4.05-2.22A4,4,0,0,1,168.7,80.79Z"/><path class="2f2d5113-2497-497e-a0a0-4ece0ff0446d" d="M178.26,90.32a5.44,5.44,0,0,1-2.79.82,3.25,3.25,0,0,1-2.43-1,3.76,3.76,0,0,1-1-2.74V77.08h2.75v3.1h3.23v2h-3.23v4.75q0,1.77,1.2,1.77a3.91,3.91,0,0,0,1.58-.46Z"/><path class="2f2d5113-2497-497e-a0a0-4ece0ff0446d" d="M186.55,88.52A4.55,4.55,0,0,0,188,87.34l1.6,1.48a6.16,6.16,0,0,1-5,2.3,6.45,6.45,0,0,1-3.09-.72,5.19,5.19,0,0,1-2.09-2,5.91,5.91,0,0,1-.75-3,6.07,6.07,0,0,1,.72-3,5.09,5.09,0,0,1,2-2,6.25,6.25,0,0,1,3.07-.73A5.24,5.24,0,0,1,188.31,81a5.18,5.18,0,0,1,1.54,3.68l-8,2.28A3.19,3.19,0,0,0,183,88.41a3.3,3.3,0,0,0,1.85.52A3.79,3.79,0,0,0,186.55,88.52Zm-4.21-5.87a3.52,3.52,0,0,0-.84,2.47l5.68-1.63a2.54,2.54,0,0,0-2.58-1.71A3,3,0,0,0,182.34,82.65Z"/><path class="2f2d5113-2497-497e-a0a0-4ece0ff0446d" d="M194.37,88.31a1,1,0,0,0,.76.32,2.64,2.64,0,0,0,1.12-.34l.32,2.3a4.75,4.75,0,0,1-2.13.55,2.89,2.89,0,0,1-2.2-.92,3.69,3.69,0,0,1-.87-2.63V75.35h2.72v12A1.42,1.42,0,0,0,194.37,88.31Z"/><path class="2f2d5113-2497-497e-a0a0-4ece0ff0446d" d="M200.22,75.33a1.64,1.64,0,0,1,.44,1.18,1.61,1.61,0,0,1-.44,1.16,1.58,1.58,0,0,1-2.24,0,1.61,1.61,0,0,1-.44-1.16,1.64,1.64,0,0,1,.44-1.18,1.58,1.58,0,0,1,2.24,0Zm-2.47,4.39h2.75V91h-2.75Z"/><path class="2f2d5113-2497-497e-a0a0-4ece0ff0446d" d="M213.69,79.72V89.94a5.26,5.26,0,0,1-.73,2.8,4.8,4.8,0,0,1-2.07,1.84,7.11,7.11,0,0,1-3.11.64,8.29,8.29,0,0,1-4.77-1.5l1.1-2a5.81,5.81,0,0,0,3.53,1.18,3.56,3.56,0,0,0,2.42-.78,2.68,2.68,0,0,0,.9-2.13V88.67A3.75,3.75,0,0,1,209.47,90a4.65,4.65,0,0,1-2.11.45,5,5,0,0,1-2.62-.69A4.69,4.69,0,0,1,203,87.84a6.14,6.14,0,0,1-.63-2.84,6,6,0,0,1,.63-2.8,4.65,4.65,0,0,1,1.77-1.89,5,5,0,0,1,2.62-.67,4.59,4.59,0,0,1,2.1.46,3.87,3.87,0,0,1,1.49,1.31V79.72Zm-3.58,7.67a3.68,3.68,0,0,0,0-4.67,3,3,0,0,0-4.33,0,3.59,3.59,0,0,0,0,4.66,3.06,3.06,0,0,0,4.33,0Z"/><path class="2f2d5113-2497-497e-a0a0-4ece0ff0446d" d="M223.18,88.52a4.55,4.55,0,0,0,1.47-1.18l1.6,1.48a6.16,6.16,0,0,1-5,2.3,6.45,6.45,0,0,1-3.09-.72,5.19,5.19,0,0,1-2.09-2,5.91,5.91,0,0,1-.75-3,6.07,6.07,0,0,1,.72-3,5.09,5.09,0,0,1,2-2,6.25,6.25,0,0,1,3.07-.73A5.24,5.24,0,0,1,224.95,81a5.18,5.18,0,0,1,1.54,3.68l-8,2.28a3.19,3.19,0,0,0,1.19,1.45,3.3,3.3,0,0,0,1.85.52A3.79,3.79,0,0,0,223.18,88.52ZM219,82.65a3.52,3.52,0,0,0-.84,2.47l5.68-1.63a2.54,2.54,0,0,0-2.58-1.71A3,3,0,0,0,219,82.65Z"/><path class="2f2d5113-2497-497e-a0a0-4ece0ff0446d" d="M238.06,80.79A4.41,4.41,0,0,1,239.18,84V91h-2.77V84.76a2.55,2.55,0,0,0-.68-1.87,2.46,2.46,0,0,0-1.84-.69,2.78,2.78,0,0,0-2.16.93,3.4,3.4,0,0,0-.79,2.32V91H228.2V79.72h2.75v2.11A4.28,4.28,0,0,1,235,79.61,4,4,0,0,1,238.06,80.79Z"/><path class="2f2d5113-2497-497e-a0a0-4ece0ff0446d" d="M247.62,90.32a5.44,5.44,0,0,1-2.79.82,3.25,3.25,0,0,1-2.43-1,3.76,3.76,0,0,1-1-2.74V77.08h2.75v3.1h3.23v2H244.2v4.75q0,1.77,1.2,1.77a3.91,3.91,0,0,0,1.58-.46Z"/><path class="2f2d5113-2497-497e-a0a0-4ece0ff0446d" d="M255.91,88.52a4.55,4.55,0,0,0,1.47-1.18l1.6,1.48a6.16,6.16,0,0,1-5,2.3,6.45,6.45,0,0,1-3.09-.72,5.19,5.19,0,0,1-2.09-2,5.91,5.91,0,0,1-.75-3,6.07,6.07,0,0,1,.72-3,5.09,5.09,0,0,1,2-2,6.25,6.25,0,0,1,3.07-.73A5.24,5.24,0,0,1,257.67,81a5.18,5.18,0,0,1,1.54,3.68l-8,2.28a3.19,3.19,0,0,0,1.19,1.45,3.3,3.3,0,0,0,1.85.52A3.79,3.79,0,0,0,255.91,88.52Zm-4.21-5.87a3.52,3.52,0,0,0-.84,2.47l5.68-1.63A2.54,2.54,0,0,0,254,81.79,3,3,0,0,0,251.7,82.65Z"/><path class="f577e5b1-4bde-4d05-a81f-78f1125284ea" d="M75.7,53.73a20.77,20.77,0,0,0-16.8-8.86A16.69,16.69,0,0,0,47.7,49.36a21,21,0,0,1,3-4.14A22.3,22.3,0,0,1,65.56,38.4c7.23-.6,13.19,2,17.83,7.85,11.59-4,21,2.88,23.31,5.15,0,0,0,.07,0,.09a8.58,8.58,0,0,0-6.06-2.3,11.73,11.73,0,0,0-8.19,3.11,9.35,9.35,0,0,0-3.35,7.44V85.27A5.75,5.75,0,0,1,83.39,91h0a5.75,5.75,0,0,1-5.75-5.75V59.74a9.58,9.58,0,0,0-1.95-6Z"/><path class="c8f1c9eb-5d4c-4ec0-afb0-74a7af12f2dc" d="M58.89,52.56a13.48,13.48,0,0,0-2.9,8.7V79.6A11.42,11.42,0,0,1,44.57,91h0v-29a25.22,25.22,0,0,1,3.13-12.7,16.69,16.69,0,0,1,11.19-4.49,20.77,20.77,0,0,1,16.8,8.86h0a10.88,10.88,0,0,0-1.32-1.44,12.1,12.1,0,0,0-8.27-3.11A8.84,8.84,0,0,0,58.89,52.56Z"/><path class="6a810c11-c54d-4d05-b6b8-250618b38b3c" d="M110.62,69A14.7,14.7,0,0,0,122,83.35V62.06c0-7-2-12.63-6-16.84A21.81,21.81,0,0,0,101.2,38.4c-7.11-.61-13.19,2.05-17.82,7.85h0c11.59-4,21,2.88,23.31,5.15,0,0,0,.07,0,.09a10.27,10.27,0,0,1,1.06,1.07,13.31,13.31,0,0,1,2.81,8.7Z"/><path class="eece2845-e186-40c6-927a-59c0191b70f3" d="M106.74,51.49h0Z"/><path class="2f2d5113-2497-497e-a0a0-4ece0ff0446d" d="M134.32,51.34a9.09,9.09,0,0,1-5.7-2v34A14.7,14.7,0,0,0,140,69V49.32A9.09,9.09,0,0,1,134.32,51.34Z"/><path class="829bf1f1-6813-4378-b469-ba17e3b0ade8" d="M140,69a14.7,14.7,0,0,1-29.4,0V80.52h0a14.7,14.7,0,1,0,29.4,0h0Z"/><path class="3670ad16-8b86-4645-8fd3-d0f7f754a42e" d="M21,90.12A21,21,0,0,1,4.56,82.18a31.57,31.57,0,0,0,4.15,5q1,1,2.13,1.89A26.56,26.56,0,0,0,28,95.23h.38a28.29,28.29,0,0,0,9.95-1.93V81.21l-.24.17A21,21,0,0,1,21,90.12Z"/><path class="75bce6b4-2a14-439c-aa6a-22fe4160bed2" d="M32.27,47.78a23.62,23.62,0,0,0-4.08.35,23.27,23.27,0,0,0-3.85,1l-.92.35A23.35,23.35,0,0,0,17.57,53,17.11,17.11,0,0,1,28.3,49.18,17.38,17.38,0,0,1,44.65,60.88H12a17.93,17.93,0,0,0-.44,10.43H56A23.78,23.78,0,0,0,32.27,47.78Z"/><path class="181493b6-05ec-4fd4-963d-e6c0556b5018" d="M48.3,47.26a28,28,0,0,0-18.77-8.89c-8-.48-15,2.27-21,8.15A27.35,27.35,0,0,0,0,67.35,26.82,26.82,0,0,0,4.63,82.26a21,21,0,0,0,33.44-.86,14.26,14.26,0,0,1-2.63,1.48,17.14,17.14,0,0,1-19.5-3.7,15.94,15.94,0,0,1-4.2-7.09l0-.08,0-.09a17.93,17.93,0,0,1,.27-11h0a16.25,16.25,0,0,1,5.3-7.65l.36-.27a23.31,23.31,0,0,1,14.7-5.18A23.78,23.78,0,0,1,56,71.31V65.57C56,58.81,53.41,52.65,48.3,47.26Z"/><path class="2f2d5113-2497-497e-a0a0-4ece0ff0446d" d="M156.64,19.72a5.83,5.83,0,0,0-11.1,1.81h0c-.85,4.35-5.22,9.84-10.42,9.08h0a8.38,8.38,0,0,0-3.56.51h0c-4,0-6.7-2.44-7.14-5.37a3.88,3.88,0,0,1,2.72-1.22l.68,0a5.8,5.8,0,0,1,2.74,1.1,4.77,4.77,0,0,0,7.63-5.42,4.71,4.71,0,0,0-2-2.17h0c-1.92-1.32-2-5.7,0-7.91h0a5.83,5.83,0,1,0-9.51-2.71h0c.61,2.46-3.24,10-8.26,11h0a5.83,5.83,0,1,0,.94,11.6h0c3.87,0,7.15,3.71,7.15,8.38h0a7.82,7.82,0,0,0,.7,3.33A7.92,7.92,0,0,0,142.33,39h0c-.28-5.52,3.94-10.56,8.38-11h0a5.82,5.82,0,0,0,5.93-8.2Zm-27.16.58h0c-1.23,1.64-3.35,1.64-5.43.66a15,15,0,0,1,6.8-8.73c1.14,2,1.09,5.05-.13,6.36h0A4.71,4.71,0,0,0,129.48,20.3Z"/><polygon class="ced95868-035c-41c4-b245-6a46ad367cb2" points="110.63 60.78 110.63 60.78 110.63 60.78 110.63 60.78"/></g></g></svg>