<svg xmlns="http://www.w3.org/2000/svg" viewBox="0 0 241.44 84.58"><defs><style>.\31 8f95486-e71a-4f41-a72b-83de9e0868ef,.a871e6d5-3439-4fbb-8ff7-92262c83399c{fill:#fff;}.a871e6d5-3439-4fbb-8ff7-92262c83399c{stroke:#fff;stroke-linejoin:round;stroke-width:2px;}</style></defs><title>EMI blanco h</title><g id="e117b12b-06ac-4b2a-914f-e088d2e5473c" data-name="Capa 2"><g id="b7ea04d2-5763-4017-aa97-a11d0a3a1be6" data-name="Líneas"><path class="18f95486-e71a-4f41-a72b-83de9e0868ef" d="M144,40.75l1.06.94a5.19,5.19,0,0,1-4.25,2,5.39,5.39,0,0,1-2.65-.64,4.62,4.62,0,0,1-1.81-1.79,5.23,5.23,0,0,1-.65-2.64,5.39,5.39,0,0,1,.62-2.61,4.43,4.43,0,0,1,1.78-1.79,5.37,5.37,0,0,1,2.66-.64,4.3,4.3,0,0,1,4.53,4.1l-7.54,2.46A3.21,3.21,0,0,0,139,41.72a3.42,3.42,0,0,0,2,.57A3.86,3.86,0,0,0,144,40.75ZM138.34,36a3.59,3.59,0,0,0-.89,2.58v.25l6.08-2a2.74,2.74,0,0,0-2.8-1.78A3.15,3.15,0,0,0,138.34,36Z"/><path class="18f95486-e71a-4f41-a72b-83de9e0868ef" d="M155,34.64a3.91,3.91,0,0,1,1,2.84v6.18H154.2V38a2.67,2.67,0,0,0-.71-2,2.65,2.65,0,0,0-2-.71,3,3,0,0,0-2.18.86,3.37,3.37,0,0,0-1,2.18v5.35h-1.76v-10h1.76v2.12a3.86,3.86,0,0,1,3.8-2.17A3.67,3.67,0,0,1,155,34.64Z"/><path class="18f95486-e71a-4f41-a72b-83de9e0868ef" d="M162.89,43a4.25,4.25,0,0,1-2.3.74,2.5,2.5,0,0,1-2-.83,3.47,3.47,0,0,1-.75-2.4V31.33h1.76V34h3.08v1.34h-3.08v4.84q0,1.93,1.25,1.93a3.14,3.14,0,0,0,1.53-.47Z"/><path class="18f95486-e71a-4f41-a72b-83de9e0868ef" d="M170.76,34.26A4.62,4.62,0,0,1,172.57,36a5.19,5.19,0,0,1,.65,2.62,5.24,5.24,0,0,1-.65,2.63,4.61,4.61,0,0,1-1.81,1.79,5.85,5.85,0,0,1-5.33,0,4.62,4.62,0,0,1-1.81-1.79,5.62,5.62,0,0,1,0-5.25,4.62,4.62,0,0,1,1.81-1.79,5.84,5.84,0,0,1,5.33,0Zm-4.4,1.34a3.14,3.14,0,0,0-1.19,1.26,3.84,3.84,0,0,0-.42,1.82,3.94,3.94,0,0,0,.42,1.85,3.06,3.06,0,0,0,1.19,1.26,3.42,3.42,0,0,0,1.75.44,3.38,3.38,0,0,0,1.73-.44A3.06,3.06,0,0,0,171,40.53a3.94,3.94,0,0,0,.42-1.85,3.84,3.84,0,0,0-.42-1.82,3.14,3.14,0,0,0-1.19-1.26,3.32,3.32,0,0,0-1.73-.45A3.36,3.36,0,0,0,166.35,35.6Z"/><path class="18f95486-e71a-4f41-a72b-83de9e0868ef" d="M177.89,34.19a4.16,4.16,0,0,1,2.15-.58v1.7a3.21,3.21,0,0,0-3.55,3.08v5.27h-1.76v-10h1.76v2.15A3.61,3.61,0,0,1,177.89,34.19Z"/><path class="18f95486-e71a-4f41-a72b-83de9e0868ef" d="M189.32,34.64a3.91,3.91,0,0,1,1,2.84v6.18h-1.76V38a2.67,2.67,0,0,0-.71-2,2.65,2.65,0,0,0-2-.71,3,3,0,0,0-2.18.86,3.37,3.37,0,0,0-1,2.18v5.35H181v-10h1.76v2.12a3.86,3.86,0,0,1,3.8-2.17A3.67,3.67,0,0,1,189.32,34.64Z"/><path class="18f95486-e71a-4f41-a72b-83de9e0868ef" d="M199.32,34.26A4.62,4.62,0,0,1,201.13,36a5.19,5.19,0,0,1,.65,2.62,5.24,5.24,0,0,1-.65,2.63,4.61,4.61,0,0,1-1.81,1.79,5.85,5.85,0,0,1-5.33,0,4.62,4.62,0,0,1-1.81-1.79,5.62,5.62,0,0,1,0-5.25A4.62,4.62,0,0,1,194,34.26a5.84,5.84,0,0,1,5.33,0Zm-4.4,1.34a3.14,3.14,0,0,0-1.19,1.26,3.84,3.84,0,0,0-.42,1.82,3.94,3.94,0,0,0,.42,1.85,3.06,3.06,0,0,0,1.19,1.26,3.42,3.42,0,0,0,1.75.44,3.38,3.38,0,0,0,1.73-.44,3.06,3.06,0,0,0,1.19-1.26,3.94,3.94,0,0,0,.42-1.85,3.84,3.84,0,0,0-.42-1.82,3.14,3.14,0,0,0-1.19-1.26,3.32,3.32,0,0,0-1.73-.45A3.36,3.36,0,0,0,194.92,35.6Z"/><path class="18f95486-e71a-4f41-a72b-83de9e0868ef" d="M146,48.22v14h-1.76v-2a4,4,0,0,1-1.52,1.54,4.45,4.45,0,0,1-2.22.54,4.77,4.77,0,0,1-2.5-.65,4.47,4.47,0,0,1-1.69-1.81,5.66,5.66,0,0,1-.6-2.65,5.51,5.51,0,0,1,.6-2.62A4.44,4.44,0,0,1,138,52.81a4.79,4.79,0,0,1,2.48-.64,4.6,4.6,0,0,1,2.25.53,3.77,3.77,0,0,1,1.51,1.53v-6Zm-3.39,12.15a3.19,3.19,0,0,0,1.2-1.27,3.82,3.82,0,0,0,.43-1.83,3.86,3.86,0,0,0-.43-1.85,3.19,3.19,0,0,0-1.2-1.27,3.36,3.36,0,0,0-1.75-.45,3.31,3.31,0,0,0-1.75.46,3.25,3.25,0,0,0-1.2,1.28,4.08,4.08,0,0,0,0,3.67,3.18,3.18,0,0,0,1.2,1.27,3.59,3.59,0,0,0,3.5,0Z"/><path class="18f95486-e71a-4f41-a72b-83de9e0868ef" d="M155.9,59.33l1.06.94a5.19,5.19,0,0,1-4.25,2,5.39,5.39,0,0,1-2.65-.64,4.62,4.62,0,0,1-1.81-1.79,5.23,5.23,0,0,1-.65-2.64,5.39,5.39,0,0,1,.62-2.61A4.43,4.43,0,0,1,150,52.83a5.37,5.37,0,0,1,2.66-.64,4.3,4.3,0,0,1,4.53,4.1l-7.54,2.46a3.21,3.21,0,0,0,1.22,1.55,3.42,3.42,0,0,0,2,.57A3.86,3.86,0,0,0,155.9,59.33Zm-5.65-4.75a3.59,3.59,0,0,0-.89,2.58v.25l6.08-2a2.74,2.74,0,0,0-2.8-1.78A3.15,3.15,0,0,0,150.25,54.58Z"/><path class="18f95486-e71a-4f41-a72b-83de9e0868ef" d="M178.15,53.23a4,4,0,0,1,1,2.83v6.18h-1.78V56.53a2.75,2.75,0,0,0-.69-2,2.51,2.51,0,0,0-1.9-.72,2.87,2.87,0,0,0-2.23,1,3.71,3.71,0,0,0-.81,2.48v4.93H170V56.53a2.77,2.77,0,0,0-.68-2,2.5,2.5,0,0,0-1.91-.72,2.9,2.9,0,0,0-2.24,1,3.68,3.68,0,0,0-.82,2.48v4.93h-1.76v-10h1.76v2.1A3.78,3.78,0,0,1,168,52.19a3.82,3.82,0,0,1,2.3.66,3.25,3.25,0,0,1,1.24,1.85,3.79,3.79,0,0,1,3.89-2.51A3.54,3.54,0,0,1,178.15,53.23Z"/><path class="18f95486-e71a-4f41-a72b-83de9e0868ef" d="M188.66,59.33l1.06.94a5.19,5.19,0,0,1-4.25,2,5.39,5.39,0,0,1-2.65-.64A4.62,4.62,0,0,1,181,59.87a5.23,5.23,0,0,1-.65-2.64,5.39,5.39,0,0,1,.62-2.61,4.43,4.43,0,0,1,1.78-1.79,5.37,5.37,0,0,1,2.66-.64,4.3,4.3,0,0,1,4.53,4.1l-7.54,2.46a3.21,3.21,0,0,0,1.22,1.55,3.42,3.42,0,0,0,2,.57A3.86,3.86,0,0,0,188.66,59.33ZM183,54.58a3.59,3.59,0,0,0-.89,2.58v.25l6.08-2a2.74,2.74,0,0,0-2.8-1.78A3.15,3.15,0,0,0,183,54.58Z"/><path class="18f95486-e71a-4f41-a72b-83de9e0868ef" d="M200.62,48.22v14h-1.76v-2a4,4,0,0,1-1.52,1.54,4.45,4.45,0,0,1-2.22.54,4.77,4.77,0,0,1-2.5-.65,4.47,4.47,0,0,1-1.69-1.81,5.66,5.66,0,0,1-.6-2.65,5.51,5.51,0,0,1,.6-2.62,4.44,4.44,0,0,1,1.69-1.79,4.79,4.79,0,0,1,2.48-.64,4.6,4.6,0,0,1,2.25.53,3.77,3.77,0,0,1,1.51,1.53v-6Zm-3.39,12.15a3.19,3.19,0,0,0,1.2-1.27,3.82,3.82,0,0,0,.43-1.83,3.86,3.86,0,0,0-.43-1.85,3.19,3.19,0,0,0-1.2-1.27,3.36,3.36,0,0,0-1.75-.45,3.31,3.31,0,0,0-1.75.46,3.25,3.25,0,0,0-1.2,1.28,4.08,4.08,0,0,0,0,3.67,3.18,3.18,0,0,0,1.2,1.27,3.59,3.59,0,0,0,3.5,0Z"/><path class="18f95486-e71a-4f41-a72b-83de9e0868ef" d="M204.86,48.58a1.21,1.21,0,0,1,0,1.63,1.12,1.12,0,0,1-1.57,0,1.21,1.21,0,0,1,0-1.62,1.12,1.12,0,0,1,1.57,0Zm-1.65,3.67H205v10H203.2Z"/><path class="18f95486-e71a-4f41-a72b-83de9e0868ef" d="M211.59,53.76a3.48,3.48,0,0,0-1.75.43,3.09,3.09,0,0,0-1.2,1.23,3.75,3.75,0,0,0-.43,1.83,3.82,3.82,0,0,0,.42,1.83,3.12,3.12,0,0,0,1.17,1.24,3.28,3.28,0,0,0,1.71.44,4.5,4.5,0,0,0,1.74-.32,3.3,3.3,0,0,0,1.29-.93l1,1a4.42,4.42,0,0,1-1.73,1.3,5.91,5.91,0,0,1-2.37.45,5.15,5.15,0,0,1-2.59-.64,4.54,4.54,0,0,1-1.77-1.79,5.3,5.3,0,0,1-.63-2.62,5.36,5.36,0,0,1,.63-2.63,4.53,4.53,0,0,1,1.77-1.79,5.15,5.15,0,0,1,2.59-.64,6.32,6.32,0,0,1,2.28.39,4.41,4.41,0,0,1,1.69,1.12l-1,1.21A4,4,0,0,0,211.59,53.76Z"/><path class="18f95486-e71a-4f41-a72b-83de9e0868ef" d="M218.76,48.58a1.21,1.21,0,0,1,0,1.63,1.12,1.12,0,0,1-1.57,0,1.21,1.21,0,0,1,0-1.62,1.12,1.12,0,0,1,1.57,0Zm-1.65,3.67h1.76v10h-1.76Z"/><path class="18f95486-e71a-4f41-a72b-83de9e0868ef" d="M228.15,52.83A4.62,4.62,0,0,1,230,54.62a5.19,5.19,0,0,1,.65,2.62,5.24,5.24,0,0,1-.65,2.63,4.61,4.61,0,0,1-1.81,1.79,5.85,5.85,0,0,1-5.33,0A4.62,4.62,0,0,1,221,59.87a5.62,5.62,0,0,1,0-5.25,4.62,4.62,0,0,1,1.81-1.79,5.84,5.84,0,0,1,5.33,0Zm-4.4,1.34a3.14,3.14,0,0,0-1.19,1.26,3.84,3.84,0,0,0-.42,1.82,3.94,3.94,0,0,0,.42,1.85,3.06,3.06,0,0,0,1.19,1.26,3.42,3.42,0,0,0,1.75.44,3.38,3.38,0,0,0,1.73-.44,3.06,3.06,0,0,0,1.19-1.26,3.94,3.94,0,0,0,.42-1.85,3.84,3.84,0,0,0-.42-1.82,3.14,3.14,0,0,0-1.19-1.26,3.32,3.32,0,0,0-1.73-.45A3.36,3.36,0,0,0,223.75,54.17ZM226.54,48l1.81.79L226,50.68l-1.49-.19Z"/><path class="18f95486-e71a-4f41-a72b-83de9e0868ef" d="M240.44,53.22a3.91,3.91,0,0,1,1,2.84v6.18h-1.76V56.53a2.67,2.67,0,0,0-.71-2,2.65,2.65,0,0,0-2-.71,3,3,0,0,0-2.18.86,3.37,3.37,0,0,0-1,2.18v5.35h-1.76v-10h1.76v2.12a3.86,3.86,0,0,1,3.8-2.17A3.67,3.67,0,0,1,240.44,53.22Z"/><path class="18f95486-e71a-4f41-a72b-83de9e0868ef" d="M138.69,66.78a1.47,1.47,0,0,1,.4,1.06,1.45,1.45,0,0,1-.4,1,1.41,1.41,0,0,1-2,0,1.44,1.44,0,0,1-.4-1,1.47,1.47,0,0,1,.4-1.06,1.41,1.41,0,0,1,2,0Zm-2.21,3.93h2.46V80.82h-2.46Z"/><path class="18f95486-e71a-4f41-a72b-83de9e0868ef" d="M150.32,71.66a4,4,0,0,1,1,2.84v6.31h-2.47V75.22a2.28,2.28,0,0,0-.6-1.67,2.2,2.2,0,0,0-1.64-.61,2.49,2.49,0,0,0-1.94.83,3,3,0,0,0-.71,2.08v5H141.5V70.71H144V72.6a3.83,3.83,0,0,1,3.63-2A3.61,3.61,0,0,1,150.32,71.66Z"/><path class="18f95486-e71a-4f41-a72b-83de9e0868ef" d="M158.88,80.19a4.87,4.87,0,0,1-2.49.74,2.91,2.91,0,0,1-2.17-.87,3.37,3.37,0,0,1-.85-2.46V68.35h2.46v2.78h2.89v1.79h-2.89v4.25q0,1.59,1.08,1.59a3.5,3.5,0,0,0,1.42-.42Z"/><path class="18f95486-e71a-4f41-a72b-83de9e0868ef" d="M166.3,78.59a4,4,0,0,0,1.31-1.06L169,78.85a5.52,5.52,0,0,1-4.44,2.06,5.77,5.77,0,0,1-2.77-.64,4.65,4.65,0,0,1-1.87-1.8,5.29,5.29,0,0,1-.67-2.69,5.43,5.43,0,0,1,.64-2.67,4.55,4.55,0,0,1,1.82-1.81,5.6,5.6,0,0,1,2.75-.65,4.45,4.45,0,0,1,4.74,4.52l-7.2,2a2.85,2.85,0,0,0,1.07,1.29,3,3,0,0,0,1.65.46A3.39,3.39,0,0,0,166.3,78.59Zm-3.77-5.25a3.15,3.15,0,0,0-.76,2.21l5.08-1.46a2.27,2.27,0,0,0-2.31-1.53A2.66,2.66,0,0,0,162.53,73.33Z"/><path class="18f95486-e71a-4f41-a72b-83de9e0868ef" d="M173.3,78.4a.85.85,0,0,0,.68.28,2.37,2.37,0,0,0,1-.3l.28,2.06a4.25,4.25,0,0,1-1.91.49,2.58,2.58,0,0,1-2-.82,3.3,3.3,0,0,1-.77-2.35v-11h2.44V77.55A1.27,1.27,0,0,0,173.3,78.4Z"/><path class="18f95486-e71a-4f41-a72b-83de9e0868ef" d="M178.53,66.78a1.47,1.47,0,0,1,.4,1.06,1.45,1.45,0,0,1-.4,1,1.41,1.41,0,0,1-2,0,1.44,1.44,0,0,1-.4-1,1.47,1.47,0,0,1,.4-1.06,1.41,1.41,0,0,1,2,0Zm-2.21,3.93h2.46V80.82h-2.46Z"/><path class="18f95486-e71a-4f41-a72b-83de9e0868ef" d="M190.58,70.71v9.14a4.71,4.71,0,0,1-.65,2.5A4.29,4.29,0,0,1,188.08,84a6.37,6.37,0,0,1-2.79.58A7.42,7.42,0,0,1,181,83.23l1-1.78a5.2,5.2,0,0,0,3.16,1.06,3.18,3.18,0,0,0,2.16-.7,2.4,2.4,0,0,0,.8-1.91V78.72a3.35,3.35,0,0,1-1.32,1.18,4.17,4.17,0,0,1-1.89.41,4.45,4.45,0,0,1-2.34-.61A4.19,4.19,0,0,1,181,78a5.5,5.5,0,0,1-.57-2.54,5.34,5.34,0,0,1,.57-2.5,4.16,4.16,0,0,1,1.59-1.69,4.51,4.51,0,0,1,2.34-.6,4.11,4.11,0,0,1,1.88.42,3.46,3.46,0,0,1,1.33,1.17V70.71Zm-3.2,6.87a3.29,3.29,0,0,0,0-4.18,2.73,2.73,0,0,0-3.87,0,3.22,3.22,0,0,0,0,4.17,2.74,2.74,0,0,0,3.87,0Z"/><path class="18f95486-e71a-4f41-a72b-83de9e0868ef" d="M199.08,78.59a4,4,0,0,0,1.31-1.06l1.44,1.32a5.52,5.52,0,0,1-4.44,2.06,5.77,5.77,0,0,1-2.77-.64,4.65,4.65,0,0,1-1.87-1.8,5.29,5.29,0,0,1-.67-2.69,5.43,5.43,0,0,1,.64-2.67,4.55,4.55,0,0,1,1.82-1.81,5.6,5.6,0,0,1,2.75-.65A4.45,4.45,0,0,1,202,75.15l-7.2,2a2.85,2.85,0,0,0,1.07,1.29,3,3,0,0,0,1.65.46A3.39,3.39,0,0,0,199.08,78.59Zm-3.77-5.25a3.15,3.15,0,0,0-.76,2.21l5.08-1.46a2.27,2.27,0,0,0-2.31-1.53A2.66,2.66,0,0,0,195.31,73.33Z"/><path class="18f95486-e71a-4f41-a72b-83de9e0868ef" d="M212.39,71.66a4,4,0,0,1,1,2.84v6.31h-2.47V75.22a2.28,2.28,0,0,0-.6-1.67,2.2,2.2,0,0,0-1.64-.61,2.49,2.49,0,0,0-1.94.83,3,3,0,0,0-.71,2.08v5h-2.46V70.71H206V72.6a3.83,3.83,0,0,1,3.63-2A3.61,3.61,0,0,1,212.39,71.66Z"/><path class="18f95486-e71a-4f41-a72b-83de9e0868ef" d="M220.94,80.19a4.87,4.87,0,0,1-2.49.74,2.91,2.91,0,0,1-2.17-.87,3.37,3.37,0,0,1-.85-2.46V68.35h2.46v2.78h2.89v1.79h-2.89v4.25q0,1.59,1.08,1.59a3.5,3.5,0,0,0,1.42-.42Z"/><path class="18f95486-e71a-4f41-a72b-83de9e0868ef" d="M228.36,78.59a4,4,0,0,0,1.31-1.06l1.44,1.32a5.52,5.52,0,0,1-4.44,2.06,5.77,5.77,0,0,1-2.77-.64,4.65,4.65,0,0,1-1.87-1.8,5.29,5.29,0,0,1-.67-2.69A5.43,5.43,0,0,1,222,73.1a4.55,4.55,0,0,1,1.82-1.81,5.6,5.6,0,0,1,2.75-.65,4.45,4.45,0,0,1,4.74,4.52l-7.2,2a2.85,2.85,0,0,0,1.07,1.29,3,3,0,0,0,1.65.46A3.39,3.39,0,0,0,228.36,78.59Zm-3.77-5.25a3.15,3.15,0,0,0-.76,2.21l5.08-1.46a2.27,2.27,0,0,0-2.31-1.53A2.66,2.66,0,0,0,224.59,73.33Z"/><polygon class="a871e6d5-3439-4fbb-8ff7-92262c83399c" points="98.36 58.09 98.36 58.09 98.36 58.09 98.36 58.09"/><path class="18f95486-e71a-4f41-a72b-83de9e0868ef" d="M33,82.43V73.75l-.34.38-.29.32-.52.53-.26.26c-.22.21-.45.42-.69.62l-.13.12q-.43.36-.87.7l-.16.11-.74.53-.3.19-.63.39-.36.2-.6.33-.39.2-.6.28-.42.18-.6.24-.43.16-.61.21-.44.14L23,80l-.45.11-.64.14-.45.09-.67.1-.43.06-.75.07-.36,0c-.37,0-.74,0-1.12,0s-.75,0-1.12,0l-.43,0-.67-.06-.54-.08-.55-.08-.6-.12-.48-.1L13.15,80l-.42-.11-.65-.21-.38-.13L11,79.29l-.36-.14L10,78.85l-.33-.15-.18-.09A23.17,23.17,0,0,0,24.42,84h.33A24.82,24.82,0,0,0,33,82.43Z"/><path class="18f95486-e71a-4f41-a72b-83de9e0868ef" d="M58.52,42.76a12,12,0,0,1,3.39.47l-.06,0c-.27-.18-.55-.36-.84-.54l-.08,0c-.3-.18-.62-.36-.95-.53l0,0c-.33-.17-.67-.33-1-.48l-.12-.05c-.34-.14-.69-.28-1.05-.41l-.17-.06q-.54-.18-1.11-.33l-.19,0c-.38-.1-.78-.18-1.18-.25l-.18,0c-.42-.07-.85-.13-1.29-.17H53.5c-.47,0-.94-.06-1.43-.06s-.72,0-1.07,0l-.35,0-.71.09-.41.08-.63.13-.43.12-.59.17-.44.16-.57.22-.44.19-.55.26-.43.23-.53.31-.43.27-.22.15.13.16.56.7.24.31.53.72.21.3c.17.25.33.5.49.75l.18.29c.16.26.32.53.47.8l.15.26c.16.29.31.58.45.87l.11.21q.24.49.45,1l0,.1a22.8,22.8,0,0,1,.83,2.27A12.09,12.09,0,0,1,51.58,46,8.5,8.5,0,0,1,58.52,42.76Z"/><path class="18f95486-e71a-4f41-a72b-83de9e0868ef" d="M124,66.91a13.66,13.66,0,0,1-6.59,6.66l-.22.1-.62.27-.54.2-.41.14a13.7,13.7,0,0,1-8.27,0l-.41-.14-.54-.2-.62-.27-.22-.1A13.66,13.66,0,0,1,99,66.91v4.51a12.53,12.53,0,1,0,25.05,0Z"/><path class="18f95486-e71a-4f41-a72b-83de9e0868ef" d="M99,61.15h0c0,.4,0,.8.06,1.19,0,.1,0,.2,0,.3,0,.31.08.61.14.92l0,.24c.08.36.17.72.28,1.07h0a12.59,12.59,0,0,0,7,7.77l.16.07c.28.12.57.22.87.32l.28.1.07,0V54.9c0-6.07-1.76-11-5.24-14.63a18.9,18.9,0,0,0-12.82-5.91,16.68,16.68,0,0,0-14,5.2l.3-.06.48-.1.58-.1.48-.08.56-.07.48-.05.54,0,.48,0h1l.5,0,.46,0,.48,0,.46,0,.47.06.45.06.45.08.44.08.43.09.43.1.31.08.94.27.35.11.42.15.35.12.4.15.34.14.37.16.33.15.36.17.32.15.34.17.31.16.32.17.29.16.3.17.27.16.28.17.26.16.25.16.24.16.23.16.22.15.21.15.2.15.19.14.19.14.16.13.17.13.14.11.14.12.12.1.13.11.09.08.1.09.07.07.08.08,0,0,.06.05,0,0,0,0,0,.06.05.07h0a8.85,8.85,0,0,1,.92.94A12.51,12.51,0,0,1,99,54.19Z"/><path class="18f95486-e71a-4f41-a72b-83de9e0868ef" d="M74,80.19a4.52,4.52,0,0,0,4.52-4.52V52.83a9,9,0,0,1,3.21-7.13,11.11,11.11,0,0,1,7.74-2.94l.62,0c-.58-.31-1.2-.6-1.86-.87L88,41.83l-.51-.2-.2-.07-.9-.31-.31-.1L85.69,41l-.39-.1-.43-.11-.51-.11-.49-.1-.66-.11-.37,0-.57-.06-.36,0-.76,0H79.7l-.69,0-.33,0-.93.11h-.08c-.33,0-.67.11-1,.18l-.31.07-.77.19-.32.09c-.35.1-.7.21-1.06.33a.62.62,0,0,1-.22,0h-.07l-.15,0h0l0,0a.62.62,0,0,1-.18-.14l0,0h0a17,17,0,0,0-15.41-6.79,19.34,19.34,0,0,0-12.9,5.91q-.29.3-.56.63l.29-.15.36-.19.71-.34.31-.14c.34-.15.68-.28,1-.4l.1,0q.47-.16,1-.28l.34-.08.74-.15.38-.06.76-.09.34,0c.37,0,.74,0,1.11,0a19,19,0,0,1,15.57,8.22l0,0a9.26,9.26,0,0,1,1.81,5.67V75.67A4.52,4.52,0,0,0,74,80.19Z"/><path class="18f95486-e71a-4f41-a72b-83de9e0868ef" d="M9.38,77.13l.76.39.15.08.65.29.28.13.52.2.43.16.39.13.57.18.29.07.7.18.2,0,.79.16.17,0,.84.12.39,0,.64.05,1,0c.33,0,.67,0,1,0l.31,0,.69-.06.35,0,.67-.1.32-.05.86-.18.1,0,.94-.26.31-.1.63-.21.34-.13.6-.24.32-.14.71-.34.17-.08c.28-.15.56-.3.84-.46l.28-.17.56-.35.31-.21.51-.37.29-.22.58-.47L30,75c.22-.19.44-.39.65-.59a16,16,0,0,1-17.52-3.73A14.91,14.91,0,0,1,9.27,64l0-.15c0-.16-.08-.33-.13-.49l0-.06c0-.11,0-.22-.08-.34s-.07-.31-.11-.47-.08-.44-.12-.66-.05-.31-.07-.46-.06-.49-.08-.74,0-.26,0-.39c0-.38,0-.76,0-1.13s0-.91.05-1.36c0-.18,0-.36.07-.54s.05-.53.1-.8.09-.46.14-.68.08-.43.13-.64.14-.5.22-.75.1-.37.16-.55c0,0,0,0,0,0a.55.55,0,0,1,0-.16,15.1,15.1,0,0,1,4.94-7.13l.22-.17.11-.08c.31-.25.62-.48.94-.71l.26-.18.81-.54.17-.11a21.52,21.52,0,0,1,3.21-1.63l.85-.33a21.5,21.5,0,0,1,3.55-.94,21.82,21.82,0,0,1,2.83-.31l.93,0c.52,0,1,0,1.55.06l.35,0c.5,0,1,.1,1.49.18l.18,0c.45.07.89.16,1.33.26l.32.07q.71.17,1.4.39l.26.09q.61.2,1.2.44l.27.11q.66.27,1.3.59l.29.15q.57.29,1.12.61l.19.11c.41.24.8.5,1.19.77l.28.2c.37.26.73.54,1.09.82l.07.06c.37.3.72.62,1.07.94l.25.24c.34.33.67.66,1,1l.09.11c.29.33.57.66.85,1l.21.27c.29.37.56.75.83,1.14l.13.21q.34.52.66,1.07l.15.26q.35.62.65,1.26l.13.27q.27.58.5,1.17l.06.14c0-.11,0-.22,0-.33s0-.25-.05-.38-.07-.41-.1-.62l-.06-.33c0-.23-.1-.46-.15-.69l-.06-.25q-.11-.45-.24-.9v0q-.28-1-.65-1.89L47.3,50c-.1-.26-.21-.52-.33-.77l-.1-.22c-.1-.23-.21-.46-.33-.68l-.13-.25-.34-.64-.15-.26-.37-.63-.16-.26L45,45.65l-.16-.24-.46-.64-.15-.2-.55-.71-.1-.13q-.34-.42-.7-.83h0l-.26-.29-.11-.12h0l-.37-.4a24.46,24.46,0,0,0-16.38-7.76q-.77,0-1.54,0A23.3,23.3,0,0,0,7.45,41.45,23.85,23.85,0,0,0,0,59.62a23.45,23.45,0,0,0,4,13l.44.53.17.2a18.2,18.2,0,0,0,4.72,3.78Z"/><path class="18f95486-e71a-4f41-a72b-83de9e0868ef" d="M134.16,23.73h.13a4.59,4.59,0,1,0-4.07-5,.64.64,0,0,1,0,.15c-.83,4-4.82,9.25-10,8.54h0a6.89,6.89,0,0,0-2.87.42.63.63,0,0,1-.23,0c-3.65,0-6.53-2.2-7-5.34a.63.63,0,0,1,.17-.53,4.12,4.12,0,0,1,2.87-1.29l.66,0a5.83,5.83,0,0,1,2.8,1.11l.06,0a3.63,3.63,0,1,0,4.31-5.79A4.2,4.2,0,0,1,119.33,13a6.42,6.42,0,0,1,1.42-4.91l.07-.08a4.59,4.59,0,1,0-7.48-2.13c.32,1.28-.4,3.58-1.77,5.74-1.68,2.65-3.88,4.42-6.06,4.87l-.16,0a4.53,4.53,0,0,0-1.81.41,4.59,4.59,0,0,0,2.55,8.72h.09c3.87,0,7,3.65,7,8.13a6.38,6.38,0,0,0,.57,2.72,6.46,6.46,0,0,0,12.33-2.25C125.86,29.2,129.7,24.21,134.16,23.73ZM109.77,18a14.12,14.12,0,0,1,6.4-8.22A.63.63,0,0,1,117,10c1.17,2,1.08,5.05-.2,6.43l0,0a3.58,3.58,0,0,0-.95,1.3.62.62,0,0,1-.07.13,3.59,3.59,0,0,1-3,1.44,6.28,6.28,0,0,1-2.64-.65A.63.63,0,0,1,109.77,18Z"/><path class="18f95486-e71a-4f41-a72b-83de9e0868ef" d="M123.8,63.55c.06-.3.1-.61.14-.92,0-.1,0-.2,0-.3,0-.39.06-.79.06-1.19V44.71a8.7,8.7,0,0,1-8.95,0V73.14l.07,0,.28-.1c.29-.1.58-.2.87-.32l.16-.07a12.59,12.59,0,0,0,7-7.76h0c.11-.35.2-.71.28-1.07Z"/><path class="18f95486-e71a-4f41-a72b-83de9e0868ef" d="M48.85,70.6V63.81h-9V80.17A9.61,9.61,0,0,0,48.85,70.6Z"/><path class="18f95486-e71a-4f41-a72b-83de9e0868ef" d="M48.83,62.56c0-.14,0-.28,0-.42s0-.19,0-.29v-.18h0c0-.26,0-.52-.07-.79,0,0,0,0,0,0v0c0-.11,0-.23,0-.34v0q-.05-.37-.11-.73a.61.61,0,0,1,0-.06l-.05-.3v0c-.05-.26-.11-.51-.17-.77a.62.62,0,0,1,0-.09l0-.17v0l0,0c-.09-.36-.19-.71-.3-1.07h0c-.11-.36-.24-.72-.38-1.07a.6.6,0,0,1,0-.1v0h0a.62.62,0,0,1-.07-.12c-.1-.26-.21-.53-.33-.79a.6.6,0,0,1,0-.12l0,0a.63.63,0,0,1-.1-.15q-.17-.36-.35-.71h0a.56.56,0,0,0-.15-.29q-.2-.38-.42-.75a.63.63,0,0,1-.05-.12l-.07-.09a20.72,20.72,0,0,0-1.28-1.88l0-.05,0,0q-.31-.4-.64-.78a.61.61,0,0,1-.06-.11.59.59,0,0,1-.09-.07l-.61-.67A.31.31,0,0,0,43,49l-.68-.67a.59.59,0,0,1,0-.07l-.07,0a21.06,21.06,0,0,0-1.77-1.45h0a.6.6,0,0,1-.11-.13L40,46.45l-.37-.25-.45-.29-.38-.24-.46-.26-.4-.22-.48-.24-.41-.2-.49-.22-.41-.18-.51-.2L35.27,44l-.52-.17-.43-.14-.54-.15-.43-.12-.55-.13-.43-.1-.58-.1L31.36,43l-.62-.08-.41-.05-.68-.05-.36,0-1,0-.9,0-.47,0-.4,0h-.11A16.24,16.24,0,0,1,39.91,53.64a.63.63,0,0,1-.59.84H10.54c-.05.16-.1.32-.14.47s-.1.33-.14.5-.11.49-.16.74-.07.32-.09.48-.08.55-.11.83,0,.27,0,.41c0,.42-.05.83-.05,1.25s0,.67,0,1c0,.1,0,.21,0,.31s0,.48.08.71,0,.22,0,.33q.06.39.14.79l0,.21v0H48.83Z"/></g></g></svg>