<?xml version="1.0" encoding="utf-8"?>
<!-- Generator: Adobe Illustrator 16.0.0, SVG Export Plug-In . SVG Version: 6.00 Build 0)  -->
<!DOCTYPE svg PUBLIC "-//W3C//DTD SVG 1.1//EN" "http://www.w3.org/Graphics/SVG/1.1/DTD/svg11.dtd">
<svg version="1.1" id="Capa_1" xmlns="http://www.w3.org/2000/svg" xmlns:xlink="http://www.w3.org/1999/xlink" x="0px" y="0px"
	 width="78.179px" height="27.531px" viewBox="-145.589 -39.766 78.179 27.531"
	 enable-background="new -145.589 -39.766 78.179 27.531" xml:space="preserve">
<title>EMI h</title>
<g id="_x34_c36526a-72e2-4225-a26a-b3a9e752cbce" opacity="0.8">
	<g id="_x32_c48edaf-8dac-49e9-8a0f-24e7dc8b0043">
		<path d="M-98.887-26.389l0.349,0.305c-0.327,0.414-0.829,0.675-1.374,0.655c-0.306,0-0.601-0.066-0.873-0.207
			c-0.229-0.142-0.432-0.339-0.578-0.579c-0.147-0.261-0.225-0.546-0.213-0.851c0-0.294,0.055-0.589,0.203-0.838
			c0.135-0.229,0.332-0.448,0.589-0.579c0.262-0.153,0.545-0.218,0.85-0.218c0.765-0.044,1.418,0.544,1.462,1.309v0.011
			l-2.422,0.795c0.066,0.208,0.218,0.392,0.393,0.502c0.175,0.119,0.392,0.187,0.633,0.187
			C-99.486-25.897-99.116-26.072-98.887-26.389z M-100.696-27.928c-0.208,0.23-0.306,0.536-0.296,0.841v0.075l1.963-0.643
			c-0.14-0.371-0.513-0.61-0.905-0.578C-100.217-28.254-100.501-28.134-100.696-27.928L-100.696-27.928z"/>
		<path d="M-95.343-28.364c0.23,0.251,0.338,0.579,0.317,0.916v1.986h-0.567v-1.833c0.044-0.427-0.285-0.819-0.709-0.863
			c-0.056,0-0.12,0-0.163,0c-0.263,0-0.524,0.087-0.709,0.285c-0.207,0.195-0.294,0.448-0.294,0.697v1.734h-0.589v-3.239h0.589
			v0.677c0.228-0.459,0.708-0.742,1.221-0.698C-95.921-28.724-95.593-28.593-95.343-28.364z"/>
		<path d="M-92.78-25.67c-0.218,0.153-0.48,0.229-0.742,0.241c-0.239,0.021-0.48-0.088-0.632-0.262
			c-0.174-0.229-0.261-0.502-0.241-0.774v-2.978h0.59v0.872h0.98v0.437h-0.98v1.57c0,0.414,0.13,0.623,0.392,0.623
			c0.175,0,0.349-0.056,0.49-0.154L-92.78-25.67z"/>
		<path d="M-90.238-28.483c0.229,0.131,0.447,0.326,0.579,0.579c0.282,0.533,0.282,1.166,0,1.689
			c-0.132,0.25-0.329,0.457-0.579,0.588c-0.546,0.285-1.189,0.285-1.734,0c-0.241-0.151-0.436-0.349-0.579-0.588
			c-0.273-0.523-0.273-1.167,0-1.701c0.143-0.241,0.338-0.448,0.579-0.59C-91.428-28.777-90.785-28.777-90.238-28.483
			L-90.238-28.483z M-91.667-28.047c-0.154,0.099-0.285,0.229-0.383,0.392c-0.087,0.187-0.141,0.393-0.141,0.589
			c0,0.208,0.044,0.415,0.141,0.601c0.099,0.163,0.229,0.315,0.383,0.402c0.174,0.098,0.37,0.154,0.587,0.142
			c0.198,0,0.381-0.044,0.546-0.142c0.174-0.087,0.305-0.239,0.393-0.402c0.087-0.186,0.151-0.392,0.13-0.601
			c0-0.196-0.043-0.402-0.13-0.589c-0.088-0.163-0.219-0.293-0.393-0.392c-0.165-0.11-0.349-0.154-0.546-0.154
			C-91.297-28.201-91.492-28.157-91.667-28.047L-91.667-28.047z"/>
		<path d="M-87.938-28.506c0.218-0.13,0.458-0.195,0.697-0.195v0.544c-0.567-0.065-1.09,0.349-1.155,0.916c0,0.022,0,0.066,0,0.087
			v1.692h-0.589v-3.219h0.589v0.698C-88.308-28.201-88.134-28.385-87.938-28.506z"/>
		<path d="M-84.251-28.364c0.239,0.251,0.349,0.579,0.326,0.916v1.986h-0.567v-1.833c0.044-0.427-0.283-0.819-0.719-0.863
			c-0.044,0-0.11,0-0.153,0c-0.262,0-0.524,0.087-0.709,0.285c-0.164,0.195-0.271,0.436-0.271,0.697v1.723h-0.59v-3.228h0.59v0.677
			c0.228-0.459,0.708-0.742,1.222-0.698C-84.797-28.724-84.469-28.593-84.251-28.364z"/>
		<path d="M-81.013-28.483c0.229,0.131,0.448,0.326,0.578,0.579c0.285,0.533,0.285,1.166,0,1.689
			c-0.13,0.25-0.326,0.457-0.578,0.588c-0.556,0.285-1.188,0.285-1.734,0c-0.239-0.151-0.436-0.349-0.579-0.588
			c-0.282-0.523-0.282-1.167,0-1.701c0.143-0.241,0.339-0.448,0.579-0.59C-82.201-28.777-81.569-28.777-81.013-28.483
			L-81.013-28.483z M-82.442-28.047c-0.151,0.099-0.282,0.229-0.38,0.392c-0.1,0.187-0.143,0.393-0.143,0.589
			c0,0.197,0.043,0.415,0.143,0.601c0.087,0.163,0.229,0.315,0.38,0.402c0.175,0.087,0.372,0.142,0.59,0.131
			c0.195,0,0.381-0.043,0.544-0.14c0.175-0.099,0.305-0.23,0.392-0.404c0.088-0.198,0.154-0.393,0.131-0.611
			c0-0.198-0.043-0.393-0.131-0.568c-0.087-0.174-0.217-0.305-0.392-0.415c-0.163-0.087-0.349-0.131-0.544-0.131
			C-82.07-28.201-82.267-28.157-82.442-28.047L-82.442-28.047z"/>
		<path d="M-98.254-23.969v4.516h-0.567v-0.655c-0.11,0.207-0.273,0.37-0.48,0.501c-0.229,0.109-0.479,0.174-0.709,0.174
			c-0.273,0-0.579-0.064-0.818-0.218c-0.245-0.131-0.431-0.326-0.557-0.567c-0.136-0.271-0.202-0.577-0.202-0.873
			c0-0.293,0.066-0.587,0.202-0.849c0.126-0.23,0.312-0.437,0.546-0.567c0.25-0.153,0.535-0.218,0.806-0.218
			c0.252,0,0.502,0.043,0.731,0.174c0.196,0.108,0.37,0.273,0.48,0.479v-1.898H-98.254z M-99.344-20.064
			c0.175-0.087,0.306-0.241,0.393-0.404c0.108-0.186,0.152-0.382,0.152-0.579c0-0.207-0.044-0.414-0.152-0.587
			c-0.087-0.175-0.218-0.329-0.393-0.416c-0.174-0.108-0.372-0.163-0.567-0.152c-0.218,0-0.415,0.044-0.589,0.152
			c-0.152,0.087-0.283,0.241-0.381,0.416c-0.191,0.37-0.191,0.806,0,1.177c0.098,0.175,0.229,0.306,0.381,0.413
			c0.349,0.198,0.785,0.198,1.134,0L-99.344-20.064z"/>
		<path d="M-95.048-20.392l0.349,0.305c-0.326,0.416-0.829,0.666-1.373,0.654c-0.305,0-0.601-0.064-0.872-0.218
			c-0.241-0.131-0.437-0.326-0.567-0.567c-0.166-0.271-0.23-0.567-0.23-0.873c0-0.293,0.064-0.567,0.207-0.828
			c0.154-0.251,0.338-0.446,0.59-0.588c0.25-0.143,0.567-0.218,0.872-0.207c0.751-0.043,1.417,0.534,1.461,1.309v0.009l-2.421,0.809
			c0.064,0.206,0.207,0.37,0.381,0.5c0.187,0.131,0.404,0.186,0.643,0.175C-95.637-19.912-95.267-20.086-95.048-20.392z
			 M-96.858-21.939c-0.197,0.238-0.306,0.544-0.284,0.829v0.087l1.963-0.654c-0.143-0.349-0.513-0.599-0.894-0.567
			C-96.378-22.256-96.663-22.137-96.858-21.939z"/>
		<path d="M-87.851-22.365c0.218,0.251,0.328,0.577,0.305,0.916v1.996h-0.567v-1.843c0.022-0.23-0.064-0.469-0.218-0.643
			c-0.175-0.154-0.393-0.241-0.611-0.23c-0.282,0-0.544,0.12-0.718,0.329c-0.187,0.228-0.285,0.512-0.263,0.794v1.593h-0.589v-1.843
			c0.022-0.23-0.065-0.469-0.219-0.643c-0.151-0.154-0.381-0.25-0.611-0.23c-0.282,0-0.544,0.12-0.719,0.329
			c-0.197,0.228-0.284,0.5-0.262,0.794v1.593h-0.589v-3.229h0.589v0.675c0.218-0.457,0.708-0.73,1.199-0.698
			c0.261-0.021,0.523,0.055,0.741,0.219c0.197,0.142,0.349,0.348,0.393,0.589c0.197-0.523,0.709-0.852,1.265-0.817
			C-88.396-22.725-88.09-22.594-87.851-22.365z"/>
		<path d="M-84.448-20.392l0.328,0.305c-0.328,0.416-0.829,0.654-1.364,0.654c-0.294,0-0.599-0.064-0.861-0.218
			c-0.23-0.131-0.436-0.326-0.59-0.567c-0.131-0.262-0.218-0.567-0.195-0.85c-0.023-0.294,0.064-0.59,0.195-0.84
			c0.131-0.25,0.328-0.448,0.59-0.578c0.262-0.152,0.544-0.229,0.849-0.219c0.765-0.032,1.419,0.567,1.462,1.32c0,0,0,0,0,0.011
			l-2.442,0.786c0.087,0.206,0.218,0.392,0.393,0.5c0.195,0.131,0.414,0.197,0.631,0.186
			C-85.059-19.912-84.687-20.086-84.448-20.392z M-86.28-21.939c-0.195,0.238-0.305,0.544-0.283,0.829v0.087l1.963-0.654
			c-0.153-0.349-0.514-0.599-0.906-0.567C-85.801-22.256-86.083-22.137-86.28-21.939z"/>
		<path d="M-80.609-23.969v4.516h-0.567v-0.655c-0.108,0.207-0.273,0.37-0.48,0.501c-0.229,0.109-0.48,0.174-0.709,0.174
			c-0.293,0-0.577-0.064-0.817-0.218c-0.239-0.131-0.436-0.326-0.556-0.567c-0.142-0.271-0.207-0.577-0.186-0.873
			c-0.021-0.293,0.044-0.587,0.186-0.849c0.12-0.23,0.316-0.437,0.544-0.567c0.252-0.153,0.524-0.218,0.797-0.218
			c0.262,0,0.502,0.043,0.721,0.174c0.218,0.108,0.381,0.273,0.501,0.479v-1.898H-80.609z M-81.7-20.064
			c0.175-0.087,0.305-0.241,0.393-0.404c0.087-0.186,0.153-0.382,0.153-0.579c0-0.207-0.043-0.414-0.153-0.587
			c-0.088-0.175-0.218-0.329-0.393-0.416c-0.174-0.108-0.37-0.163-0.567-0.152c-0.218,0-0.414,0.044-0.588,0.152
			c-0.154,0.087-0.296,0.241-0.383,0.416c-0.185,0.37-0.185,0.806,0,1.177c0.087,0.175,0.229,0.306,0.383,0.413
			c0.349,0.198,0.785,0.198,1.134,0L-81.7-20.064z"/>
		<path d="M-79.234-23.859c0.14,0.152,0.14,0.37,0,0.524c-0.131,0.131-0.36,0.131-0.503,0c-0.142-0.154-0.142-0.381,0-0.524
			C-79.595-23.99-79.366-23.99-79.234-23.859z M-79.758-22.682h0.567v3.229h-0.567V-22.682z"/>
		<path d="M-77.054-22.19c-0.197,0-0.392,0.053-0.578,0.141c-0.163,0.087-0.294,0.229-0.381,0.392
			c-0.099,0.175-0.154,0.372-0.154,0.567c0,0.208,0.044,0.416,0.142,0.59c0.099,0.174,0.229,0.305,0.382,0.392
			c0.174,0.108,0.348,0.152,0.545,0.152c0.196,0,0.393-0.032,0.567-0.108c0.152-0.066,0.306-0.153,0.413-0.285l0.329,0.329
			c-0.154,0.195-0.349,0.326-0.567,0.414c-0.241,0.109-0.503,0.153-0.765,0.153c-0.283,0-0.579-0.066-0.829-0.218
			c-0.23-0.132-0.437-0.329-0.588-0.568c-0.261-0.535-0.261-1.166,0-1.701c0.152-0.241,0.349-0.437,0.588-0.567
			c0.262-0.143,0.545-0.218,0.851-0.207c0.239,0,0.501,0.032,0.719,0.12c0.218,0.087,0.393,0.195,0.556,0.37l-0.315,0.393
			C-76.378-22.071-76.704-22.202-77.054-22.19z"/>
		<path d="M-74.741-23.859c0.131,0.152,0.131,0.37,0,0.524c-0.131,0.131-0.349,0.131-0.502,0c-0.131-0.154-0.131-0.381,0-0.524
			C-75.09-23.99-74.872-23.99-74.741-23.859z M-75.265-22.682h0.568v3.229h-0.568V-22.682z"/>
		<path d="M-71.71-22.485c0.241,0.13,0.436,0.328,0.59,0.578c0.282,0.523,0.282,1.166,0,1.69c-0.154,0.241-0.328,0.436-0.59,0.567
			c-0.545,0.285-1.178,0.285-1.722,0c-0.241-0.131-0.448-0.315-0.589-0.567c-0.273-0.524-0.273-1.167,0-1.69
			c0.142-0.25,0.348-0.448,0.589-0.578C-72.888-22.78-72.255-22.78-71.71-22.485L-71.71-22.485z M-73.127-22.049
			c-0.153,0.087-0.295,0.229-0.383,0.392c-0.097,0.175-0.14,0.372-0.14,0.567c0,0.219,0.043,0.416,0.14,0.611
			c0.088,0.175,0.23,0.306,0.383,0.393c0.175,0.11,0.37,0.165,0.577,0.153c0.208,0,0.383-0.043,0.558-0.153
			c0.174-0.087,0.305-0.218,0.392-0.393c0.088-0.174,0.131-0.392,0.131-0.611c0-0.195-0.043-0.392-0.131-0.567
			c-0.087-0.163-0.218-0.305-0.392-0.392c-0.166-0.108-0.35-0.163-0.558-0.163C-72.757-22.212-72.953-22.169-73.127-22.049z
			 M-72.234-24.045l0.589,0.25l-0.764,0.602l-0.48-0.055L-72.234-24.045z"/>
		<path d="M-67.741-22.365c0.229,0.251,0.349,0.577,0.328,0.916v1.996h-0.589v-1.843c0.055-0.437-0.262-0.817-0.698-0.873
			c-0.055,0-0.108,0-0.151,0c-0.262,0-0.524,0.099-0.698,0.294c-0.186,0.197-0.296,0.447-0.329,0.698v1.745h-0.567v-3.249h0.567
			v0.675c0.229-0.479,0.742-0.75,1.244-0.708C-68.297-22.725-67.98-22.594-67.741-22.365z"/>
		<path d="M-100.609-17.993c0.097,0.11,0.151,0.218,0.141,0.349c0,0.121-0.044,0.241-0.141,0.328c-0.175,0.175-0.464,0.187-0.639,0
			l0,0c-0.082-0.087-0.125-0.207-0.125-0.328c0-0.131,0.043-0.239,0.135-0.349C-101.073-18.167-100.784-18.167-100.609-17.993
			L-100.609-17.993z M-101.319-16.727h0.818v3.271h-0.806L-101.319-16.727z"/>
		<path d="M-96.836-16.423c0.218,0.252,0.348,0.602,0.328,0.939v2.027h-0.808v-1.81c0-0.197-0.065-0.393-0.195-0.546
			c-0.143-0.131-0.329-0.195-0.524-0.195c-0.241,0-0.48,0.088-0.633,0.273c-0.152,0.185-0.239,0.425-0.218,0.665v1.625h-0.806
			v-3.283h0.806v0.61c0.218-0.413,0.677-0.675,1.157-0.632C-97.404-16.771-97.076-16.64-96.836-16.423z"/>
		<path d="M-94.089-13.651c-0.229,0.152-0.501,0.229-0.785,0.229c-0.262,0.01-0.524-0.099-0.698-0.295
			c-0.218-0.207-0.317-0.48-0.306-0.786v-2.987h0.808v0.904h0.916v0.579h-0.916v1.374c0,0.339,0.108,0.502,0.327,0.502
			c0.174,0,0.316-0.044,0.458-0.131L-94.089-13.651z"/>
		<path d="M-91.678-14.175c0.163-0.087,0.294-0.197,0.425-0.349l0.458,0.437c-0.349,0.436-0.896,0.686-1.462,0.666
			c-0.305,0.01-0.611-0.078-0.872-0.208c-0.273-0.131-0.48-0.338-0.611-0.588c-0.163-0.262-0.229-0.567-0.229-0.873
			c0-0.284,0.066-0.599,0.208-0.852c0.152-0.239,0.338-0.457,0.588-0.587c0.262-0.143,0.579-0.23,0.896-0.207
			c0.392-0.034,0.806,0.108,1.111,0.358c0.285,0.285,0.436,0.688,0.436,1.081l-2.312,0.665c0.067,0.185,0.198,0.328,0.328,0.436
			c0.175,0.087,0.349,0.153,0.545,0.131C-91.995-14.066-91.841-14.11-91.678-14.175z M-92.888-15.876
			c-0.175,0.196-0.262,0.458-0.262,0.719l1.646-0.48c-0.098-0.306-0.404-0.512-0.753-0.489
			C-92.486-16.138-92.737-16.05-92.888-15.876z"/>
		<path d="M-89.421-14.241c0.067,0.066,0.131,0.11,0.218,0.087c0.11,0,0.241-0.021,0.328-0.087l0.088,0.655
			c-0.197,0.121-0.393,0.174-0.611,0.174c-0.241,0-0.48-0.097-0.634-0.262c-0.186-0.218-0.272-0.501-0.262-0.774v-3.533h0.786v3.478
			C-89.508-14.416-89.486-14.317-89.421-14.241z"/>
		<path d="M-87.72-17.993c0.087,0.11,0.13,0.218,0.11,0.349c0,0.121-0.044,0.241-0.11,0.328c-0.196,0.175-0.48,0.187-0.654,0l0,0
			c-0.087-0.087-0.131-0.207-0.131-0.328c0-0.131,0.044-0.239,0.131-0.349C-88.2-18.167-87.916-18.167-87.72-17.993L-87.72-17.993z
			 M-88.438-16.727h0.785v3.271h-0.785V-16.727z"/>
		<path d="M-83.837-16.727v2.966c0,0.285-0.065,0.567-0.23,0.808c-0.119,0.218-0.338,0.414-0.577,0.524
			c-0.284,0.131-0.589,0.195-0.895,0.195c-0.5,0-0.98-0.152-1.384-0.436l0.316-0.588c0.305,0.229,0.655,0.349,1.024,0.349
			c0.241,0.011,0.502-0.066,0.698-0.241c0.186-0.152,0.262-0.37,0.262-0.611v-0.37c-0.108,0.163-0.262,0.294-0.436,0.393
			c-0.196,0.087-0.393,0.13-0.611,0.108c-0.262,0.022-0.523-0.044-0.753-0.195c-0.228-0.131-0.381-0.329-0.512-0.546
			c-0.119-0.261-0.175-0.544-0.175-0.829c0-0.262,0.056-0.544,0.175-0.806c0.131-0.218,0.305-0.416,0.524-0.546
			c0.218-0.131,0.479-0.196,0.752-0.196c0.207,0,0.426,0.044,0.6,0.131c0.174,0.088,0.328,0.219,0.436,0.393v-0.502H-83.837z
			 M-84.862-14.503c0.306-0.393,0.306-0.96,0-1.352c-0.339-0.349-0.895-0.349-1.233-0.021c0,0-0.011,0.021-0.022,0.021
			c-0.326,0.392-0.326,0.959,0,1.352C-85.778-14.154-85.211-14.154-84.862-14.503L-84.862-14.503L-84.862-14.503z"/>
		<path d="M-81.089-14.175c0.154-0.087,0.305-0.197,0.415-0.349l0.458,0.437c-0.349,0.436-0.873,0.675-1.44,0.654
			c-0.306,0.021-0.611-0.066-0.893-0.197c-0.23-0.131-0.459-0.338-0.602-0.588c-0.141-0.262-0.228-0.567-0.228-0.873
			c0-0.284,0.076-0.589,0.218-0.852c0.131-0.239,0.338-0.457,0.588-0.587c0.261-0.143,0.567-0.23,0.872-0.207
			c0.416-0.034,0.809,0.108,1.114,0.358c0.282,0.285,0.457,0.688,0.457,1.081l-2.333,0.665c0.087,0.174,0.195,0.328,0.349,0.436
			c0.184,0.087,0.349,0.153,0.544,0.131C-81.406-14.066-81.241-14.11-81.089-14.175z M-82.311-15.876
			c-0.174,0.196-0.238,0.458-0.238,0.719l1.646-0.48c-0.11-0.306-0.416-0.512-0.753-0.489
			C-81.896-16.138-82.136-16.05-82.311-15.876z"/>
		<path d="M-76.792-16.423c0.219,0.252,0.327,0.602,0.327,0.939v2.027h-0.806v-1.81c0.009-0.197-0.067-0.393-0.198-0.546
			c-0.142-0.131-0.326-0.195-0.523-0.195c-0.239,0-0.48,0.088-0.632,0.273c-0.154,0.185-0.241,0.425-0.241,0.665v1.625h-0.785
			v-3.283h0.808v0.61c0.218-0.413,0.675-0.675,1.155-0.632C-77.359-16.771-77.033-16.64-76.792-16.423z"/>
		<path d="M-74.034-13.651c-0.25,0.152-0.533,0.229-0.806,0.229c-0.25,0.01-0.512-0.099-0.709-0.295
			c-0.207-0.207-0.295-0.48-0.283-0.786v-2.987h0.786v0.904h0.937v0.579h-0.916v1.374c0,0.339,0.12,0.502,0.349,0.502
			c0.153,0,0.306-0.044,0.458-0.131L-74.034-13.651z"/>
		<path d="M-71.645-14.175c0.175-0.087,0.306-0.197,0.437-0.349l0.457,0.437c-0.349,0.436-0.884,0.675-1.44,0.654
			c-0.316,0.021-0.632-0.066-0.893-0.197c-0.262-0.131-0.459-0.338-0.611-0.588c-0.165-0.262-0.229-0.567-0.229-0.873
			c0-0.284,0.065-0.599,0.229-0.852c0.131-0.239,0.315-0.457,0.567-0.587c0.283-0.143,0.588-0.23,0.894-0.207
			c0.393-0.034,0.808,0.108,1.113,0.358c0.282,0.285,0.436,0.688,0.436,1.081l-2.312,0.665c0.064,0.185,0.195,0.328,0.349,0.436
			c0.141,0.087,0.349,0.153,0.524,0.131C-71.95-14.066-71.797-14.11-71.645-14.175z M-72.844-15.876
			c-0.175,0.196-0.262,0.458-0.251,0.719l1.647-0.48c-0.108-0.306-0.414-0.501-0.742-0.48
			C-72.429-16.138-72.691-16.05-72.844-15.876z"/>
		<path d="M-123.719-24.231c-1.107-1.591-2.918-2.53-4.848-2.551c-1.194,0-2.356,0.479-3.24,1.286
			c0.246-0.437,0.541-0.829,0.873-1.199c1.129-1.166,2.656-1.876,4.286-1.963c2.088-0.174,3.812,0.588,5.153,2.269
			c3.348-1.157,6.063,0.829,6.734,1.483v0.021c-0.474-0.437-1.107-0.675-1.756-0.664c-0.861-0.011-1.706,0.315-2.356,0.905
			c-0.637,0.535-0.992,1.33-0.959,2.159v7.372c0,0.916-0.742,1.647-1.652,1.657l0,0c-0.916,0-1.668-0.741-1.668-1.657v-7.372
			C-123.136-23.118-123.337-23.729-123.719-24.231L-123.719-24.231z"/>
		<path d="M-128.566-24.568c-0.567,0.709-0.862,1.603-0.834,2.519v5.3c0,1.81-1.478,3.293-3.299,3.293l0,0v-8.385
			c-0.032-1.288,0.284-2.542,0.894-3.676c0.884-0.808,2.034-1.288,3.24-1.288c1.93,0.023,3.74,0.96,4.858,2.553l0,0
			c-0.125-0.154-0.246-0.285-0.393-0.404c-0.643-0.6-1.505-0.917-2.388-0.905C-127.291-25.583-128.076-25.211-128.566-24.568z"/>
		<path d="M-113.626-19.825c0,1.985,1.363,3.708,3.282,4.155v-6.151c0-2.018-0.578-3.653-1.728-4.875
			c-1.118-1.177-2.645-1.876-4.275-1.963c-2.045-0.174-3.812,0.588-5.137,2.269l0,0c3.349-1.157,6.064,0.829,6.734,1.483v0.021
			c0.109,0.11,0.208,0.208,0.301,0.317c0.556,0.709,0.845,1.603,0.812,2.519L-113.626-19.825z"/>
		<path d="M-114.738-24.885L-114.738-24.885z"/>
		<path d="M-106.767-24.929c-0.605,0-1.183-0.195-1.641-0.577v9.815c1.908-0.427,3.282-2.149,3.282-4.134v-5.681
			C-105.594-25.124-106.178-24.929-106.767-24.929z"/>
		<path d="M-105.125-19.825c0,2.355-1.897,4.253-4.242,4.253s-4.249-1.898-4.249-4.253l0,0v3.337l0,0
			c0,2.356,1.904,4.253,4.249,4.253s4.242-1.897,4.242-4.253l0,0V-19.825z"/>
		<path d="M-139.521-13.717c-1.854,0-3.593-0.85-4.744-2.29c0.343,0.524,0.747,1.004,1.194,1.44c0.202,0.195,0.403,0.37,0.611,0.544
			c1.396,1.157,3.151,1.789,4.961,1.789h0.109c0.981-0.021,1.969-0.195,2.885-0.567v-3.49l-0.071,0.043
			C-135.726-14.655-137.553-13.717-139.521-13.717z"/>
		<path d="M-136.26-25.953c-0.393,0-0.791,0.032-1.173,0.108c-0.381,0.066-0.747,0.153-1.117,0.285l-0.268,0.099
			c-0.616,0.25-1.184,0.599-1.685,1.013c0.884-0.698,1.974-1.101,3.103-1.101c2.132,0.01,4.019,1.362,4.722,3.38h-9.433
			c-0.349,0.972-0.393,2.019-0.137,3.021h12.847C-129.45-22.922-132.498-25.941-136.26-25.953z"/>
		<path d="M-131.626-26.095c-1.406-1.516-3.348-2.432-5.415-2.563c-2.322-0.142-4.345,0.632-6.074,2.355
			c-1.658,1.548-2.546,3.752-2.47,6.021c0.011,1.526,0.47,3.031,1.342,4.296c2.099,2.617,5.916,3.032,8.528,0.938
			c0.436-0.328,0.807-0.73,1.128-1.178c-0.234,0.152-0.491,0.306-0.758,0.413c-1.909,0.884-4.177,0.459-5.627-1.067
			c-0.584-0.567-1.009-1.266-1.217-2.05v-0.023v-0.021c-0.315-1.047-0.283-2.16,0.077-3.185l0,0
			c0.289-0.873,0.813-1.637,1.527-2.204l0.104-0.087c1.205-0.96,2.705-1.493,4.243-1.493c3.74,0.021,6.778,3.042,6.837,6.793v-1.669
			C-129.401-22.757-130.153-24.545-131.626-26.095z"/>
		<path d="M-100.326-34.066c-0.37-0.84-1.38-1.211-2.23-0.829c-0.535,0.262-0.917,0.763-0.971,1.363l0,0
			c-0.247,1.254-1.511,2.846-3.016,2.628l0,0c-0.349-0.021-0.692,0.022-1.031,0.131l0,0c-1.161,0-1.93-0.697-2.061-1.548
			c0.207-0.218,0.49-0.349,0.779-0.349h0.202c0.289,0.044,0.556,0.153,0.791,0.327c0.55,0.523,1.417,0.501,1.946-0.065
			c0.387-0.393,0.48-1.003,0.256-1.505c-0.114-0.262-0.316-0.48-0.572-0.632l0,0c-0.557-0.371-0.579-1.636,0-2.291l0,0
			c0.693-0.611,0.736-1.68,0.125-2.377c-0.627-0.688-1.702-0.742-2.383-0.109c-0.48,0.436-0.665,1.091-0.49,1.712l0,0
			c0.18,0.709-0.938,2.89-2.389,3.185l0,0c-0.927,0.011-1.663,0.774-1.652,1.712c0.022,0.916,0.791,1.669,1.718,1.646
			c0.071,0,0.147-0.011,0.213-0.011l0,0c1.117,0,2.066,1.07,2.066,2.422l0,0c0,0.338,0.065,0.655,0.202,0.96
			c0.512,1.155,1.864,1.668,3.026,1.146c0.769-0.349,1.286-1.103,1.341-1.931l0,0c-0.081-1.603,1.141-3.054,2.411-3.174l0,0
			c0.928,0.099,1.761-0.578,1.871-1.494c0.021-0.305-0.022-0.61-0.153-0.894V-34.066z M-108.173-33.893L-108.173-33.893
			c-0.36,0.469-0.96,0.469-1.565,0.197c0.3-1.069,1.003-1.975,1.968-2.53c0.322,0.589,0.311,1.45-0.038,1.843l0,0
			C-107.961-34.241-108.097-34.088-108.173-33.893z"/>
		<path d="M-113.616-22.19L-113.616-22.19L-113.616-22.19z"/>
	</g>
</g>
</svg>
