<svg xmlns="http://www.w3.org/2000/svg" xmlns:xlink="http://www.w3.org/1999/xlink" viewBox="0 0 161.95 161.09"><defs><style>.\38 5e871b5-2819-4684-8f64-dff81640bfbe{fill:#005cb9;}.\32 637ea44-bf78-419b-9e06-164e6baa31f6{fill:url(#6d969f68-2c84-4338-89f6-0db47fc602ec);}.fbb3ba5a-62b9-4c4d-bc7e-5cd1e8a6ea5e{fill:url(#8ebdd9f3-383e-4295-9b7d-bc6699877c21);}.\39 66af2c4-1389-44ba-8aff-371a2d3b2122{fill:url(#4b179dc8-8aa0-4b20-ab55-d8bac46565a3);}.\31 6167189-1b75-4bf3-a78c-86772f59e6a5{fill:url(#41c2310a-f96c-4c4a-8023-2f4e3f86c6e4);}.\33 66ebef5-242d-4e96-b5d5-57c889f5ffb3{fill:url(#5974df63-569d-46b9-bb37-c1a75bab3f93);}.aa788966-3a7c-49f4-849e-5a147989e0c6{fill:url(#d13a23b1-7a50-4767-8808-f8ae02d21dde);}.\32 e78ec3f-011d-40d2-92a6-2e9067a68050{fill:url(#4892e608-e739-4373-be29-b3baa29052d0);}.c824bcae-fd79-42a8-80bf-9f6ab11579ef{fill:url(#74cc7a63-2358-4a86-8039-d23e34d60524);}.\37 4c09bfb-0ae9-4cf5-a7f5-3229842e684a{fill:#1d1d1b;}</style><linearGradient id="6d969f68-2c84-4338-89f6-0db47fc602ec" x1="45.8" y1="56.45" x2="101.41" y2="71.35" gradientUnits="userSpaceOnUse"><stop offset="0" stop-color="gold"/><stop offset="0.06" stop-color="#f9d601"/><stop offset="0.15" stop-color="#e9d205"/><stop offset="0.24" stop-color="#cfcd0b"/><stop offset="0.34" stop-color="#aac513"/><stop offset="0.44" stop-color="#7abb1d"/><stop offset="0.55" stop-color="#41ae29"/><stop offset="0.56" stop-color="#3fae2a"/><stop offset="0.81" stop-color="#157888"/><stop offset="0.96" stop-color="#005cb9"/></linearGradient><linearGradient id="8ebdd9f3-383e-4295-9b7d-bc6699877c21" x1="36.22" y1="76.56" x2="75.71" y2="53.76" gradientUnits="userSpaceOnUse"><stop offset="0" stop-color="gold"/><stop offset="0.29" stop-color="#fdd701"/><stop offset="0.44" stop-color="#f5d502"/><stop offset="0.55" stop-color="#e7d205"/><stop offset="0.65" stop-color="#d4ce09"/><stop offset="0.74" stop-color="#bcc90f"/><stop offset="0.83" stop-color="#9dc215"/><stop offset="0.9" stop-color="#79ba1d"/><stop offset="0.97" stop-color="#50b226"/><stop offset="1" stop-color="#3fae2a"/></linearGradient><linearGradient id="4b179dc8-8aa0-4b20-ab55-d8bac46565a3" x1="81.75" y1="55.55" x2="125.56" y2="63.27" gradientUnits="userSpaceOnUse"><stop offset="0" stop-color="gold"/><stop offset="0.3" stop-color="#3fae2a"/><stop offset="0.39" stop-color="#3cab30"/><stop offset="0.52" stop-color="#35a141"/><stop offset="0.67" stop-color="#28905e"/><stop offset="0.83" stop-color="#177a85"/><stop offset="0.99" stop-color="#015db7"/><stop offset="1" stop-color="#005cb9"/></linearGradient><linearGradient id="41c2310a-f96c-4c4a-8023-2f4e3f86c6e4" x1="106.73" y1="51.49" x2="106.74" y2="51.49" xlink:href="#4b179dc8-8aa0-4b20-ab55-d8bac46565a3"/><linearGradient id="5974df63-569d-46b9-bb37-c1a75bab3f93" x1="111.94" y1="86.75" x2="140.67" y2="70.17" gradientUnits="userSpaceOnUse"><stop offset="0" stop-color="#3fae2a"/><stop offset="0.15" stop-color="#2b9458"/><stop offset="0.31" stop-color="#187c82"/><stop offset="0.46" stop-color="#0b6aa0"/><stop offset="0.59" stop-color="#0360b2"/><stop offset="0.68" stop-color="#005cb9"/></linearGradient><linearGradient id="d13a23b1-7a50-4767-8808-f8ae02d21dde" x1="4.56" y1="88.22" x2="38.32" y2="88.22" gradientUnits="userSpaceOnUse"><stop offset="0.1" stop-color="#ff671b"/><stop offset="1" stop-color="gold"/></linearGradient><radialGradient id="4892e608-e739-4373-be29-b3baa29052d0" cx="11.3" cy="65.17" r="39.76" gradientUnits="userSpaceOnUse"><stop offset="0" stop-color="#e2231a"/><stop offset="0.11" stop-color="#e32b19"/><stop offset="0.28" stop-color="#e74116"/><stop offset="0.49" stop-color="#ed6510"/><stop offset="0.73" stop-color="#f59709"/><stop offset="1" stop-color="#ffd600"/><stop offset="1" stop-color="gold"/></radialGradient><linearGradient id="74cc7a63-2358-4a86-8039-d23e34d60524" y1="64.22" x2="56" y2="64.22" gradientUnits="userSpaceOnUse"><stop offset="0" stop-color="#e2231a"/><stop offset="1" stop-color="#ff671b"/></linearGradient></defs><title>EMI v2</title><g id="69e41f65-846f-4c3f-ab7f-ede389e2c6e8" data-name="Capa 2"><g id="87be6941-4320-4e0e-9c9f-fdfc384ca977" data-name="Líneas"><path class="85e871b5-2819-4684-8f64-dff81640bfbe" d="M53,112.12l1.18,1.06a5.8,5.8,0,0,1-4.75,2.26,6,6,0,0,1-3-.72,5.16,5.16,0,0,1-2-2,5.85,5.85,0,0,1-.73-2.95,6,6,0,0,1,.7-2.91,5,5,0,0,1,2-2,6,6,0,0,1,3-.72,4.8,4.8,0,0,1,5.07,4.58l-8.42,2.74a3.58,3.58,0,0,0,1.36,1.73,3.81,3.81,0,0,0,2.19.63A4.31,4.31,0,0,0,53,112.12Zm-6.31-5.31a4,4,0,0,0-1,2.88V110l6.8-2.22a3.06,3.06,0,0,0-3.12-2A3.52,3.52,0,0,0,46.74,106.81Z"/><path class="85e871b5-2819-4684-8f64-dff81640bfbe" d="M65.29,105.29a4.37,4.37,0,0,1,1.12,3.18v6.9h-2V109a2.74,2.74,0,0,0-3-3A3.37,3.37,0,0,0,59,107,3.77,3.77,0,0,0,58,109.4v6H56V104.2h2v2.36a4.31,4.31,0,0,1,4.24-2.43A4.1,4.1,0,0,1,65.29,105.29Z"/><path class="85e871b5-2819-4684-8f64-dff81640bfbe" d="M74.16,114.63a4.75,4.75,0,0,1-2.58.82,2.79,2.79,0,0,1-2.19-.93,3.88,3.88,0,0,1-.83-2.68V101.59h2v3H74v1.5H70.53v5.41q0,2.15,1.39,2.15a3.52,3.52,0,0,0,1.71-.53Z"/><path class="85e871b5-2819-4684-8f64-dff81640bfbe" d="M83,104.86a5.16,5.16,0,0,1,2,2,6.26,6.26,0,0,1,0,5.86,5.14,5.14,0,0,1-2,2,6.53,6.53,0,0,1-6,0,5.16,5.16,0,0,1-2-2,6.28,6.28,0,0,1,0-5.87,5.16,5.16,0,0,1,2-2,6.53,6.53,0,0,1,6,0ZM78,106.36a3.5,3.5,0,0,0-1.33,1.4,4.28,4.28,0,0,0-.48,2,4.39,4.39,0,0,0,.48,2.07,3.41,3.41,0,0,0,1.33,1.4,3.82,3.82,0,0,0,2,.5,3.78,3.78,0,0,0,1.93-.5,3.41,3.41,0,0,0,1.33-1.4,4.4,4.4,0,0,0,.48-2.07,4.29,4.29,0,0,0-.48-2,3.5,3.5,0,0,0-1.33-1.4,3.72,3.72,0,0,0-1.93-.51A3.76,3.76,0,0,0,78,106.36Z"/><path class="85e871b5-2819-4684-8f64-dff81640bfbe" d="M90.93,104.78a4.64,4.64,0,0,1,2.41-.64V106a3.59,3.59,0,0,0-4,3.44v5.89h-2V104.2h2v2.41A4,4,0,0,1,90.93,104.78Z"/><path class="85e871b5-2819-4684-8f64-dff81640bfbe" d="M103.7,105.29a4.37,4.37,0,0,1,1.12,3.18v6.9h-2V109a2.74,2.74,0,0,0-3-3,3.37,3.37,0,0,0-2.44,1,3.77,3.77,0,0,0-1.07,2.44v6h-2V104.2h2v2.36a4.31,4.31,0,0,1,4.24-2.43A4.1,4.1,0,0,1,103.7,105.29Z"/><path class="85e871b5-2819-4684-8f64-dff81640bfbe" d="M114.88,104.86a5.16,5.16,0,0,1,2,2,6.26,6.26,0,0,1,0,5.86,5.14,5.14,0,0,1-2,2,6.53,6.53,0,0,1-6,0,5.16,5.16,0,0,1-2-2,6.28,6.28,0,0,1,0-5.87,5.16,5.16,0,0,1,2-2,6.53,6.53,0,0,1,6,0Zm-4.92,1.5a3.5,3.5,0,0,0-1.33,1.4,4.29,4.29,0,0,0-.47,2,4.4,4.4,0,0,0,.47,2.07,3.41,3.41,0,0,0,1.33,1.4,3.82,3.82,0,0,0,2,.5,3.78,3.78,0,0,0,1.93-.5,3.41,3.41,0,0,0,1.33-1.4,4.39,4.39,0,0,0,.48-2.07,4.28,4.28,0,0,0-.48-2,3.5,3.5,0,0,0-1.33-1.4,3.72,3.72,0,0,0-1.93-.51A3.76,3.76,0,0,0,110,106.36Z"/><path class="85e871b5-2819-4684-8f64-dff81640bfbe" d="M55.27,120.47v15.67h-2v-2.22a4.44,4.44,0,0,1-1.7,1.72,5,5,0,0,1-2.48.6,5.33,5.33,0,0,1-2.8-.73,5,5,0,0,1-1.89-2,6.33,6.33,0,0,1-.68-3,6.16,6.16,0,0,1,.68-2.92,5,5,0,0,1,1.89-2,5.36,5.36,0,0,1,2.78-.72,5.14,5.14,0,0,1,2.51.59,4.2,4.2,0,0,1,1.69,1.71v-6.71ZM51.48,134a3.56,3.56,0,0,0,1.34-1.42,4.28,4.28,0,0,0,.49-2,4.32,4.32,0,0,0-.49-2.07,3.56,3.56,0,0,0-1.34-1.42,3.77,3.77,0,0,0-2-.51,3.7,3.7,0,0,0-2,.52,3.64,3.64,0,0,0-1.34,1.43,4.56,4.56,0,0,0,0,4.1A3.56,3.56,0,0,0,47.57,134a4,4,0,0,0,3.91,0Z"/><path class="85e871b5-2819-4684-8f64-dff81640bfbe" d="M66.35,132.88l1.18,1.06a5.8,5.8,0,0,1-4.75,2.26,6,6,0,0,1-3-.72,5.17,5.17,0,0,1-2-2,5.85,5.85,0,0,1-.73-2.95,6,6,0,0,1,.7-2.91,5,5,0,0,1,2-2,6,6,0,0,1,3-.72,4.8,4.8,0,0,1,5.07,4.58l-8.42,2.74A3.58,3.58,0,0,0,60.72,134a3.81,3.81,0,0,0,2.19.63A4.32,4.32,0,0,0,66.35,132.88ZM60,127.57a4,4,0,0,0-1,2.88v.27l6.8-2.22a3.06,3.06,0,0,0-3.13-2A3.52,3.52,0,0,0,60,127.57Z"/><path class="85e871b5-2819-4684-8f64-dff81640bfbe" d="M91.22,126.06a4.43,4.43,0,0,1,1.1,3.17v6.9h-2v-6.38a3.07,3.07,0,0,0-.77-2.22,2.8,2.8,0,0,0-2.12-.8A3.21,3.21,0,0,0,85,127.86a4.14,4.14,0,0,0-.91,2.77v5.51h-2v-6.38a3.1,3.1,0,0,0-.76-2.22,2.8,2.8,0,0,0-2.13-.8,3.24,3.24,0,0,0-2.5,1.12,4.11,4.11,0,0,0-.92,2.77v5.51h-2V125h2v2.34a4.22,4.22,0,0,1,4.16-2.41,4.27,4.27,0,0,1,2.57.74,3.62,3.62,0,0,1,1.38,2.07,4.24,4.24,0,0,1,4.35-2.81A4,4,0,0,1,91.22,126.06Z"/><path class="85e871b5-2819-4684-8f64-dff81640bfbe" d="M103,132.88l1.18,1.06a5.8,5.8,0,0,1-4.75,2.26,6,6,0,0,1-3-.72,5.15,5.15,0,0,1-2-2,5.84,5.84,0,0,1-.73-2.95,6,6,0,0,1,.7-2.91,5,5,0,0,1,2-2,6,6,0,0,1,3-.72,4.8,4.8,0,0,1,5.07,4.58L96,132.23A3.59,3.59,0,0,0,97.33,134a3.81,3.81,0,0,0,2.19.63A4.32,4.32,0,0,0,103,132.88Zm-6.31-5.31a4,4,0,0,0-1,2.88v.27l6.8-2.22a3.06,3.06,0,0,0-3.12-2A3.52,3.52,0,0,0,96.65,127.57Z"/><path class="85e871b5-2819-4684-8f64-dff81640bfbe" d="M116.33,120.47v15.67h-2v-2.22a4.44,4.44,0,0,1-1.7,1.72,5,5,0,0,1-2.48.6,5.34,5.34,0,0,1-2.8-.73,5,5,0,0,1-1.89-2,6.34,6.34,0,0,1-.68-3,6.16,6.16,0,0,1,.68-2.92,5,5,0,0,1,1.89-2,5.36,5.36,0,0,1,2.78-.72,5.14,5.14,0,0,1,2.51.59,4.21,4.21,0,0,1,1.69,1.71v-6.71ZM112.54,134a3.55,3.55,0,0,0,1.34-1.42,4.27,4.27,0,0,0,.49-2,4.31,4.31,0,0,0-.49-2.07,3.55,3.55,0,0,0-1.34-1.42,3.76,3.76,0,0,0-2-.51,3.7,3.7,0,0,0-2,.52,3.63,3.63,0,0,0-1.34,1.43,4.56,4.56,0,0,0,0,4.1,3.55,3.55,0,0,0,1.34,1.42,4,4,0,0,0,3.91,0Z"/><path class="85e871b5-2819-4684-8f64-dff81640bfbe" d="M121.06,120.87a1.36,1.36,0,0,1,0,1.82,1.25,1.25,0,0,1-1.75,0,1.36,1.36,0,0,1,0-1.82,1.25,1.25,0,0,1,1.75,0Zm-1.85,4.1h2v11.17h-2Z"/><path class="85e871b5-2819-4684-8f64-dff81640bfbe" d="M128.59,126.65a3.88,3.88,0,0,0-2,.49,3.45,3.45,0,0,0-1.34,1.37,4.19,4.19,0,0,0-.49,2,4.27,4.27,0,0,0,.47,2A3.49,3.49,0,0,0,126.6,134a3.67,3.67,0,0,0,1.91.5,5,5,0,0,0,1.94-.36,3.7,3.7,0,0,0,1.44-1l1.12,1.14a4.94,4.94,0,0,1-1.93,1.46,6.61,6.61,0,0,1-2.65.51,5.76,5.76,0,0,1-2.89-.72,5.08,5.08,0,0,1-2-2,6.42,6.42,0,0,1,0-5.86,5.06,5.06,0,0,1,2-2,5.76,5.76,0,0,1,2.89-.72,7.08,7.08,0,0,1,2.54.43,4.92,4.92,0,0,1,1.89,1.26l-1.08,1.35A4.42,4.42,0,0,0,128.59,126.65Z"/><path class="85e871b5-2819-4684-8f64-dff81640bfbe" d="M136.6,120.87a1.36,1.36,0,0,1,0,1.82,1.25,1.25,0,0,1-1.75,0,1.36,1.36,0,0,1,0-1.82,1.25,1.25,0,0,1,1.75,0Zm-1.85,4.1h2v11.17h-2Z"/><path class="85e871b5-2819-4684-8f64-dff81640bfbe" d="M147.1,125.62a5.16,5.16,0,0,1,2,2,6.26,6.26,0,0,1,0,5.86,5.14,5.14,0,0,1-2,2,6.53,6.53,0,0,1-6,0,5.16,5.16,0,0,1-2-2,6.28,6.28,0,0,1,0-5.87,5.16,5.16,0,0,1,2-2,6.53,6.53,0,0,1,6,0Zm-4.92,1.5a3.5,3.5,0,0,0-1.33,1.4,4.29,4.29,0,0,0-.47,2,4.4,4.4,0,0,0,.47,2.07,3.41,3.41,0,0,0,1.33,1.4,3.82,3.82,0,0,0,2,.5,3.78,3.78,0,0,0,1.93-.5,3.41,3.41,0,0,0,1.33-1.4,4.39,4.39,0,0,0,.48-2.07,4.28,4.28,0,0,0-.48-2,3.5,3.5,0,0,0-1.33-1.4,3.72,3.72,0,0,0-1.93-.51A3.76,3.76,0,0,0,142.18,127.12Zm3.11-6.86,2,.89-2.62,2.07L143,123Z"/><path class="85e871b5-2819-4684-8f64-dff81640bfbe" d="M160.83,126a4.37,4.37,0,0,1,1.12,3.18v6.9h-2v-6.38a2.74,2.74,0,0,0-3-3,3.37,3.37,0,0,0-2.44,1,3.77,3.77,0,0,0-1.07,2.44v6h-2V125h2v2.36a4.31,4.31,0,0,1,4.24-2.43A4.1,4.1,0,0,1,160.83,126Z"/><path class="85e871b5-2819-4684-8f64-dff81640bfbe" d="M47.12,141.2a1.64,1.64,0,0,1,.44,1.18,1.62,1.62,0,0,1-.44,1.16,1.58,1.58,0,0,1-2.24,0,1.62,1.62,0,0,1-.44-1.16,1.64,1.64,0,0,1,.44-1.18,1.58,1.58,0,0,1,2.24,0Zm-2.47,4.39h2.74v11.3H44.65Z"/><path class="85e871b5-2819-4684-8f64-dff81640bfbe" d="M60.12,146.66a4.41,4.41,0,0,1,1.12,3.18v7.05H58.47v-6.25a2.55,2.55,0,0,0-.68-1.87,2.46,2.46,0,0,0-1.84-.69,2.79,2.79,0,0,0-2.16.93,3.4,3.4,0,0,0-.79,2.32v5.55H50.26v-11.3H53v2.11a4.28,4.28,0,0,1,4.05-2.22A4,4,0,0,1,60.12,146.66Z"/><path class="85e871b5-2819-4684-8f64-dff81640bfbe" d="M69.69,156.19a5.44,5.44,0,0,1-2.79.82,3.25,3.25,0,0,1-2.43-1,3.76,3.76,0,0,1-1-2.74V143h2.75v3.1H69.5v2H66.26v4.75q0,1.77,1.2,1.77a3.91,3.91,0,0,0,1.58-.46Z"/><path class="85e871b5-2819-4684-8f64-dff81640bfbe" d="M78,154.4a4.55,4.55,0,0,0,1.47-1.18l1.6,1.48a6.16,6.16,0,0,1-5,2.3,6.45,6.45,0,0,1-3.09-.72,5.19,5.19,0,0,1-2.09-2,5.91,5.91,0,0,1-.75-3,6.07,6.07,0,0,1,.72-3,5.09,5.09,0,0,1,2-2,6.24,6.24,0,0,1,3.07-.73,5.24,5.24,0,0,1,3.76,1.36,5.18,5.18,0,0,1,1.54,3.68l-8,2.28a3.19,3.19,0,0,0,1.19,1.45,3.3,3.3,0,0,0,1.85.52A3.79,3.79,0,0,0,78,154.4Zm-4.21-5.87a3.52,3.52,0,0,0-.84,2.47l5.68-1.63A2.54,2.54,0,0,0,76,147.66,3,3,0,0,0,73.76,148.53Z"/><path class="85e871b5-2819-4684-8f64-dff81640bfbe" d="M85.8,154.19a1,1,0,0,0,.76.32,2.64,2.64,0,0,0,1.12-.34l.32,2.3a4.76,4.76,0,0,1-2.13.55,2.89,2.89,0,0,1-2.2-.92,3.69,3.69,0,0,1-.87-2.63V141.22h2.72v12A1.42,1.42,0,0,0,85.8,154.19Z"/><path class="85e871b5-2819-4684-8f64-dff81640bfbe" d="M91.64,141.2a1.65,1.65,0,0,1,.44,1.18,1.62,1.62,0,0,1-.44,1.16,1.58,1.58,0,0,1-2.24,0,1.61,1.61,0,0,1-.44-1.16,1.64,1.64,0,0,1,.44-1.18,1.58,1.58,0,0,1,2.24,0Zm-2.47,4.39h2.75v11.3H89.17Z"/><path class="85e871b5-2819-4684-8f64-dff81640bfbe" d="M105.11,145.59v10.22a5.26,5.26,0,0,1-.73,2.8,4.8,4.8,0,0,1-2.07,1.84,7.11,7.11,0,0,1-3.11.64,8.29,8.29,0,0,1-4.77-1.5l1.1-2a5.81,5.81,0,0,0,3.53,1.18,3.56,3.56,0,0,0,2.42-.78,2.68,2.68,0,0,0,.9-2.13v-1.33a3.75,3.75,0,0,1-1.48,1.32,4.65,4.65,0,0,1-2.11.45,5,5,0,0,1-2.62-.69,4.69,4.69,0,0,1-1.77-1.92,6.14,6.14,0,0,1-.63-2.84,6,6,0,0,1,.63-2.8,4.65,4.65,0,0,1,1.77-1.89,5,5,0,0,1,2.62-.67,4.59,4.59,0,0,1,2.1.46,3.87,3.87,0,0,1,1.49,1.31v-1.69Zm-3.58,7.67a3.68,3.68,0,0,0,0-4.67,3,3,0,0,0-4.33,0,3.59,3.59,0,0,0,0,4.66,3.06,3.06,0,0,0,4.33,0Z"/><path class="85e871b5-2819-4684-8f64-dff81640bfbe" d="M114.6,154.4a4.55,4.55,0,0,0,1.47-1.18l1.6,1.48a6.16,6.16,0,0,1-5,2.3,6.45,6.45,0,0,1-3.09-.72,5.19,5.19,0,0,1-2.09-2,5.91,5.91,0,0,1-.75-3,6.07,6.07,0,0,1,.72-3,5.09,5.09,0,0,1,2-2,6.25,6.25,0,0,1,3.07-.73,5.24,5.24,0,0,1,3.76,1.36,5.18,5.18,0,0,1,1.54,3.68l-8,2.28a3.19,3.19,0,0,0,1.19,1.45,3.3,3.3,0,0,0,1.85.52A3.79,3.79,0,0,0,114.6,154.4Zm-4.21-5.87a3.52,3.52,0,0,0-.84,2.47l5.68-1.63a2.54,2.54,0,0,0-2.58-1.71A3,3,0,0,0,110.39,148.53Z"/><path class="85e871b5-2819-4684-8f64-dff81640bfbe" d="M129.48,146.66a4.41,4.41,0,0,1,1.12,3.18v7.05h-2.77v-6.25a2.55,2.55,0,0,0-.68-1.87,2.46,2.46,0,0,0-1.84-.69,2.78,2.78,0,0,0-2.16.93,3.4,3.4,0,0,0-.79,2.32v5.55h-2.75v-11.3h2.75v2.11a4.28,4.28,0,0,1,4.05-2.22A4,4,0,0,1,129.48,146.66Z"/><path class="85e871b5-2819-4684-8f64-dff81640bfbe" d="M139,156.19a5.44,5.44,0,0,1-2.79.82,3.25,3.25,0,0,1-2.43-1,3.76,3.76,0,0,1-1-2.74V143h2.75v3.1h3.23v2h-3.23v4.75q0,1.77,1.2,1.77a3.91,3.91,0,0,0,1.58-.46Z"/><path class="85e871b5-2819-4684-8f64-dff81640bfbe" d="M147.33,154.4a4.55,4.55,0,0,0,1.47-1.18l1.6,1.48a6.16,6.16,0,0,1-5,2.3,6.45,6.45,0,0,1-3.09-.72,5.19,5.19,0,0,1-2.09-2,5.91,5.91,0,0,1-.75-3,6.07,6.07,0,0,1,.72-3,5.09,5.09,0,0,1,2-2,6.25,6.25,0,0,1,3.07-.73,5.24,5.24,0,0,1,3.76,1.36,5.18,5.18,0,0,1,1.54,3.68l-8,2.28a3.19,3.19,0,0,0,1.19,1.45,3.3,3.3,0,0,0,1.85.52A3.79,3.79,0,0,0,147.33,154.4Zm-4.21-5.87a3.52,3.52,0,0,0-.84,2.47l5.68-1.63a2.54,2.54,0,0,0-2.58-1.71A3,3,0,0,0,143.12,148.53Z"/><path class="2637ea44-bf78-419b-9e06-164e6baa31f6" d="M75.7,53.73a20.77,20.77,0,0,0-16.8-8.86A16.69,16.69,0,0,0,47.7,49.36a21,21,0,0,1,3-4.14A22.3,22.3,0,0,1,65.56,38.4c7.23-.6,13.19,2,17.83,7.85,11.59-4,21,2.88,23.31,5.15,0,0,0,.07,0,.09a8.58,8.58,0,0,0-6.06-2.3,11.73,11.73,0,0,0-8.19,3.11,9.35,9.35,0,0,0-3.35,7.44V85.27A5.75,5.75,0,0,1,83.39,91h0a5.75,5.75,0,0,1-5.75-5.75V59.74a9.58,9.58,0,0,0-1.95-6Z"/><path class="fbb3ba5a-62b9-4c4d-bc7e-5cd1e8a6ea5e" d="M58.89,52.56a13.48,13.48,0,0,0-2.9,8.7V79.6A11.42,11.42,0,0,1,44.57,91h0v-29a25.22,25.22,0,0,1,3.13-12.7,16.69,16.69,0,0,1,11.19-4.49,20.77,20.77,0,0,1,16.8,8.86h0a10.88,10.88,0,0,0-1.32-1.44,12.1,12.1,0,0,0-8.27-3.11A8.84,8.84,0,0,0,58.89,52.56Z"/><path class="966af2c4-1389-44ba-8aff-371a2d3b2122" d="M110.62,69A14.7,14.7,0,0,0,122,83.35V62.06c0-7-2-12.63-6-16.84A21.81,21.81,0,0,0,101.2,38.4c-7.11-.61-13.19,2.05-17.82,7.85h0c11.59-4,21,2.88,23.31,5.15,0,0,0,.07,0,.09a10.27,10.27,0,0,1,1.06,1.07,13.31,13.31,0,0,1,2.81,8.7Z"/><path class="16167189-1b75-4bf3-a78c-86772f59e6a5" d="M106.74,51.49h0Z"/><path class="85e871b5-2819-4684-8f64-dff81640bfbe" d="M134.32,51.34a9.09,9.09,0,0,1-5.7-2v34A14.7,14.7,0,0,0,140,69V49.32A9.09,9.09,0,0,1,134.32,51.34Z"/><path class="366ebef5-242d-4e96-b5d5-57c889f5ffb3" d="M140,69a14.7,14.7,0,0,1-29.4,0V80.52h0a14.7,14.7,0,1,0,29.4,0h0Z"/><path class="aa788966-3a7c-49f4-849e-5a147989e0c6" d="M21,90.12A21,21,0,0,1,4.56,82.18a31.57,31.57,0,0,0,4.15,5q1,1,2.13,1.89A26.56,26.56,0,0,0,28,95.23h.38a28.29,28.29,0,0,0,9.95-1.93V81.21l-.24.17A21,21,0,0,1,21,90.12Z"/><path class="2e78ec3f-011d-40d2-92a6-2e9067a68050" d="M32.27,47.78a23.62,23.62,0,0,0-4.08.35,23.27,23.27,0,0,0-3.85,1l-.92.35A23.35,23.35,0,0,0,17.57,53,17.11,17.11,0,0,1,28.3,49.18,17.38,17.38,0,0,1,44.65,60.88H12a17.93,17.93,0,0,0-.44,10.43H56A23.78,23.78,0,0,0,32.27,47.78Z"/><path class="c824bcae-fd79-42a8-80bf-9f6ab11579ef" d="M48.3,47.26a28,28,0,0,0-18.77-8.89c-8-.48-15,2.27-21,8.15A27.35,27.35,0,0,0,0,67.35,26.82,26.82,0,0,0,4.63,82.26a21,21,0,0,0,33.44-.86,14.26,14.26,0,0,1-2.63,1.48,17.14,17.14,0,0,1-19.5-3.7,15.94,15.94,0,0,1-4.2-7.09l0-.08,0-.09a17.93,17.93,0,0,1,.27-11h0a16.25,16.25,0,0,1,5.3-7.65l.36-.27a23.31,23.31,0,0,1,14.7-5.18A23.78,23.78,0,0,1,56,71.31V65.57C56,58.81,53.41,52.65,48.3,47.26Z"/><path class="85e871b5-2819-4684-8f64-dff81640bfbe" d="M156.64,19.72a5.83,5.83,0,0,0-11.1,1.81h0c-.85,4.35-5.22,9.84-10.42,9.08h0a8.38,8.38,0,0,0-3.56.51h0c-4,0-6.7-2.44-7.14-5.37a3.88,3.88,0,0,1,2.72-1.22l.68,0a5.8,5.8,0,0,1,2.74,1.1,4.77,4.77,0,0,0,7.63-5.42,4.71,4.71,0,0,0-2-2.17h0c-1.92-1.32-2-5.7,0-7.91h0a5.83,5.83,0,1,0-9.51-2.71h0c.61,2.46-3.24,10-8.26,11h0a5.83,5.83,0,1,0,.94,11.6h0c3.87,0,7.15,3.71,7.15,8.38h0a7.82,7.82,0,0,0,.7,3.33A7.92,7.92,0,0,0,142.33,39h0c-.28-5.52,3.94-10.56,8.38-11h0a5.82,5.82,0,0,0,5.93-8.2Zm-27.16.58h0c-1.23,1.64-3.35,1.64-5.43.66a15,15,0,0,1,6.8-8.73c1.14,2,1.09,5.05-.13,6.36h0A4.71,4.71,0,0,0,129.48,20.3Z"/><polygon class="74c09bfb-0ae9-4cf5-a7f5-3229842e684a" points="110.63 60.78 110.63 60.78 110.63 60.78 110.63 60.78"/></g></g></svg>