<svg xmlns="http://www.w3.org/2000/svg" xmlns:xlink="http://www.w3.org/1999/xlink" viewBox="0 0 140.1 106.37"><defs><style>.\36 c43ccd5-3663-41d3-8b3e-d0cdb0b4c06e{fill:#55565a;stroke:#fff;stroke-linejoin:round;stroke-width:2px;}.a1e81e15-9d39-4a29-bb8f-0c78fcb020a1{fill:#005cb9;}.\38 043e7c3-86f7-44ff-9070-6dd3c9d48813{fill:url(#7f434da3-6558-448b-9135-09a083786b2f);}.\32 1625708-cbf4-422c-bbfe-550845e0fb7d{fill:url(#1ba54a8e-5b9f-4827-a214-2e7e277ec31a);}.\33 b2678db-00d6-4025-9b20-49de55651101{fill:url(#1b4174c7-866a-4aa2-bd31-5779898d635e);}.deed6186-7719-4d51-b229-75f43a878a8f{fill:url(#39c90931-54c6-483d-9ff7-072f2ab7ec5d);}.dd0d6881-51c0-49e6-821a-29728f19b717{fill:url(#bc8a623c-4e15-4fc1-aaf2-f044f09e1d0e);}.a6cb4944-7a50-4b72-8ee4-6c60319e8620{fill:url(#9b61e05b-dfd3-478d-b5a2-20ee94bbc618);}.f6274aaa-1214-4429-96e5-9d62207aef9a{fill:url(#504a235a-a457-4f01-aeec-aebdb9dd7b44);}.\30 577d8cd-00c3-46c1-b06b-13cf8021c328{fill:url(#0a264242-41d4-491b-955f-c107cf82ea48);}.e0aee8d7-e0d6-41f1-8376-b4d44e706004{fill:#1d1d1b;}</style><linearGradient id="7f434da3-6558-448b-9135-09a083786b2f" x1="40.83" y1="50.32" x2="90.4" y2="63.61" gradientUnits="userSpaceOnUse"><stop offset="0" stop-color="gold"/><stop offset="0.06" stop-color="#f9d601"/><stop offset="0.15" stop-color="#e9d205"/><stop offset="0.24" stop-color="#cfcd0b"/><stop offset="0.34" stop-color="#aac513"/><stop offset="0.44" stop-color="#7abb1d"/><stop offset="0.55" stop-color="#41ae29"/><stop offset="0.56" stop-color="#3fae2a"/><stop offset="0.81" stop-color="#157888"/><stop offset="0.96" stop-color="#005cb9"/></linearGradient><linearGradient id="1ba54a8e-5b9f-4827-a214-2e7e277ec31a" x1="32.29" y1="68.25" x2="67.49" y2="47.92" gradientUnits="userSpaceOnUse"><stop offset="0" stop-color="gold"/><stop offset="0.29" stop-color="#fdd701"/><stop offset="0.44" stop-color="#f5d502"/><stop offset="0.55" stop-color="#e7d205"/><stop offset="0.65" stop-color="#d4ce09"/><stop offset="0.74" stop-color="#bcc90f"/><stop offset="0.83" stop-color="#9dc215"/><stop offset="0.9" stop-color="#79ba1d"/><stop offset="0.97" stop-color="#50b226"/><stop offset="1" stop-color="#3fae2a"/></linearGradient><linearGradient id="1b4174c7-866a-4aa2-bd31-5779898d635e" x1="72.87" y1="49.52" x2="111.93" y2="56.4" gradientUnits="userSpaceOnUse"><stop offset="0" stop-color="gold"/><stop offset="0.3" stop-color="#3fae2a"/><stop offset="0.39" stop-color="#3cab30"/><stop offset="0.52" stop-color="#35a141"/><stop offset="0.67" stop-color="#28905e"/><stop offset="0.83" stop-color="#177a85"/><stop offset="0.99" stop-color="#015db7"/><stop offset="1" stop-color="#005cb9"/></linearGradient><linearGradient id="39c90931-54c6-483d-9ff7-072f2ab7ec5d" x1="95.14" y1="45.9" x2="95.15" y2="45.9" xlink:href="#1b4174c7-866a-4aa2-bd31-5779898d635e"/><linearGradient id="bc8a623c-4e15-4fc1-aaf2-f044f09e1d0e" x1="99.79" y1="77.34" x2="125.4" y2="62.55" gradientUnits="userSpaceOnUse"><stop offset="0" stop-color="#3fae2a"/><stop offset="0.15" stop-color="#2b9458"/><stop offset="0.31" stop-color="#187c82"/><stop offset="0.46" stop-color="#0b6aa0"/><stop offset="0.59" stop-color="#0360b2"/><stop offset="0.68" stop-color="#005cb9"/></linearGradient><linearGradient id="9b61e05b-dfd3-478d-b5a2-20ee94bbc618" x1="4.06" y1="78.64" x2="34.16" y2="78.64" gradientUnits="userSpaceOnUse"><stop offset="0.1" stop-color="#ff671b"/><stop offset="1" stop-color="gold"/></linearGradient><radialGradient id="504a235a-a457-4f01-aeec-aebdb9dd7b44" cx="10.08" cy="58.1" r="35.44" gradientUnits="userSpaceOnUse"><stop offset="0" stop-color="#e2231a"/><stop offset="0.11" stop-color="#e32b19"/><stop offset="0.28" stop-color="#e74116"/><stop offset="0.49" stop-color="#ed6510"/><stop offset="0.73" stop-color="#f59709"/><stop offset="1" stop-color="#ffd600"/><stop offset="1" stop-color="gold"/></radialGradient><linearGradient id="0a264242-41d4-491b-955f-c107cf82ea48" y1="57.25" x2="49.92" y2="57.25" gradientUnits="userSpaceOnUse"><stop offset="0" stop-color="#e2231a"/><stop offset="1" stop-color="#ff671b"/></linearGradient></defs><title>EMI telegestion v</title><g id="06a4445b-a787-43d8-96f8-9d3ad81af2d8" data-name="Capa 2"><g id="6d361dc1-cb80-42c0-a3db-fa8aa4bc023e" data-name="Líneas"><polygon class="6c43ccd5-3663-41d3-8b3e-d0cdb0b4c06e" points="98.36 59.81 98.36 59.81 98.36 59.81 98.36 59.81"/><path class="a1e81e15-9d39-4a29-bb8f-0c78fcb020a1" d="M45.26,102a4.87,4.87,0,0,1-2.49.74,2.91,2.91,0,0,1-2.17-.87,3.37,3.37,0,0,1-.85-2.46V90.14H42.2v2.78h2.89v1.79H42.2V99q0,1.59,1.08,1.59a3.5,3.5,0,0,0,1.42-.42Z"/><path class="a1e81e15-9d39-4a29-bb8f-0c78fcb020a1" d="M52.68,100.38A4,4,0,0,0,54,99.32l1.44,1.32A5.52,5.52,0,0,1,51,102.71a5.77,5.77,0,0,1-2.77-.64,4.65,4.65,0,0,1-1.87-1.8,5.29,5.29,0,0,1-.67-2.69,5.43,5.43,0,0,1,.64-2.67,4.55,4.55,0,0,1,1.82-1.81,5.6,5.6,0,0,1,2.75-.65,4.45,4.45,0,0,1,4.74,4.52l-7.2,2a2.85,2.85,0,0,0,1.07,1.29,3,3,0,0,0,1.65.46A3.39,3.39,0,0,0,52.68,100.38Zm-3.77-5.25a3.15,3.15,0,0,0-.76,2.21l5.08-1.46a2.27,2.27,0,0,0-2.31-1.53A2.66,2.66,0,0,0,48.91,95.13Z"/><path class="a1e81e15-9d39-4a29-bb8f-0c78fcb020a1" d="M59.68,100.19a.85.85,0,0,0,.68.28,2.37,2.37,0,0,0,1-.3l.28,2.06a4.25,4.25,0,0,1-1.91.49,2.58,2.58,0,0,1-2-.82A3.3,3.3,0,0,1,57,99.55v-11h2.44V99.34A1.27,1.27,0,0,0,59.68,100.19Z"/><path class="a1e81e15-9d39-4a29-bb8f-0c78fcb020a1" d="M68.78,100.38a4,4,0,0,0,1.31-1.06l1.44,1.32a5.52,5.52,0,0,1-4.44,2.06,5.77,5.77,0,0,1-2.77-.64,4.65,4.65,0,0,1-1.87-1.8,5.29,5.29,0,0,1-.67-2.69,5.43,5.43,0,0,1,.64-2.67,4.55,4.55,0,0,1,1.82-1.81A5.6,5.6,0,0,1,67,92.43a4.45,4.45,0,0,1,4.74,4.52l-7.2,2a2.85,2.85,0,0,0,1.07,1.29,3,3,0,0,0,1.65.46A3.39,3.39,0,0,0,68.78,100.38ZM65,95.13a3.15,3.15,0,0,0-.76,2.21l5.08-1.46A2.27,2.27,0,0,0,67,94.36,2.66,2.66,0,0,0,65,95.13Z"/><path class="a1e81e15-9d39-4a29-bb8f-0c78fcb020a1" d="M82.5,92.5v9.14a4.71,4.71,0,0,1-.65,2.5A4.29,4.29,0,0,1,80,105.8a6.37,6.37,0,0,1-2.79.58A7.42,7.42,0,0,1,72.94,105l1-1.78a5.2,5.2,0,0,0,3.16,1.06,3.18,3.18,0,0,0,2.16-.7,2.4,2.4,0,0,0,.8-1.91v-1.19a3.35,3.35,0,0,1-1.32,1.18,4.17,4.17,0,0,1-1.89.41,4.45,4.45,0,0,1-2.34-.61,4.19,4.19,0,0,1-1.59-1.72,5.5,5.5,0,0,1-.57-2.54,5.34,5.34,0,0,1,.57-2.5A4.16,4.16,0,0,1,74.49,93a4.51,4.51,0,0,1,2.34-.6,4.11,4.11,0,0,1,1.88.42A3.46,3.46,0,0,1,80,94V92.5Zm-3.2,6.87a3.29,3.29,0,0,0,0-4.18,2.73,2.73,0,0,0-3.87,0,3.22,3.22,0,0,0,0,4.17,2.74,2.74,0,0,0,3.87,0Z"/><path class="a1e81e15-9d39-4a29-bb8f-0c78fcb020a1" d="M91,100.38a4,4,0,0,0,1.31-1.06l1.44,1.32a5.52,5.52,0,0,1-4.44,2.06,5.77,5.77,0,0,1-2.77-.64,4.65,4.65,0,0,1-1.87-1.8A5.29,5.29,0,0,1,84,97.57a5.43,5.43,0,0,1,.64-2.67,4.55,4.55,0,0,1,1.82-1.81,5.6,5.6,0,0,1,2.75-.65A4.45,4.45,0,0,1,94,96.94l-7.2,2a2.85,2.85,0,0,0,1.07,1.29,3,3,0,0,0,1.65.46A3.39,3.39,0,0,0,91,100.38Zm-3.77-5.25a3.15,3.15,0,0,0-.76,2.21l5.08-1.46a2.27,2.27,0,0,0-2.31-1.53A2.66,2.66,0,0,0,87.23,95.13Z"/><path class="a1e81e15-9d39-4a29-bb8f-0c78fcb020a1" d="M99.95,94.56a4.86,4.86,0,0,0-1.45-.25,2,2,0,0,0-1,.22.72.72,0,0,0-.37.67.79.79,0,0,0,.46.73,7.42,7.42,0,0,0,1.46.54,14.16,14.16,0,0,1,1.74.63A3.28,3.28,0,0,1,102,98a2.48,2.48,0,0,1,.5,1.62,2.6,2.6,0,0,1-1.13,2.27,4.86,4.86,0,0,1-2.85.79,7.23,7.23,0,0,1-2.29-.37,5.38,5.38,0,0,1-1.89-1l.85-1.72a5,5,0,0,0,1.62.92,5.43,5.43,0,0,0,1.79.33,2.16,2.16,0,0,0,1.09-.24.77.77,0,0,0,.41-.71.86.86,0,0,0-.47-.79,8.43,8.43,0,0,0-1.53-.59,13,13,0,0,1-1.66-.6A3,3,0,0,1,95.31,97a2.43,2.43,0,0,1-.47-1.56,2.63,2.63,0,0,1,1.09-2.28,4.54,4.54,0,0,1,2.73-.78,7,7,0,0,1,2,.28,6.13,6.13,0,0,1,1.73.79l-.89,1.78A7.25,7.25,0,0,0,99.95,94.56Z"/><path class="a1e81e15-9d39-4a29-bb8f-0c78fcb020a1" d="M109.39,102a4.87,4.87,0,0,1-2.49.74,2.91,2.91,0,0,1-2.17-.87,3.37,3.37,0,0,1-.85-2.46V90.14h2.46v2.78h2.89v1.79h-2.89V99q0,1.59,1.08,1.59a3.5,3.5,0,0,0,1.42-.42Z"/><path class="a1e81e15-9d39-4a29-bb8f-0c78fcb020a1" d="M113,88.57a1.47,1.47,0,0,1,.4,1.06,1.45,1.45,0,0,1-.4,1,1.41,1.41,0,0,1-2,0,1.44,1.44,0,0,1-.4-1,1.47,1.47,0,0,1,.4-1.06,1.41,1.41,0,0,1,2,0Zm-2.21,3.93h2.46v10.11h-2.46Z"/><path class="a1e81e15-9d39-4a29-bb8f-0c78fcb020a1" d="M123,93.07a4.65,4.65,0,0,1,1.87,1.8,5.26,5.26,0,0,1,.67,2.67,5.35,5.35,0,0,1-.67,2.7,4.63,4.63,0,0,1-1.87,1.81,5.77,5.77,0,0,1-2.77.64,5.87,5.87,0,0,1-2.8-.64,4.61,4.61,0,0,1-1.88-1.81,5.34,5.34,0,0,1-.67-2.7,5.25,5.25,0,0,1,.67-2.67,4.63,4.63,0,0,1,1.88-1.8,5.88,5.88,0,0,1,2.8-.64A5.78,5.78,0,0,1,123,93.07Zm-4.85,2.31a3.47,3.47,0,0,0,0,4.42,2.71,2.71,0,0,0,2.08.85,2.67,2.67,0,0,0,2-.85,3.48,3.48,0,0,0,0-4.42,2.67,2.67,0,0,0-2-.85A2.71,2.71,0,0,0,118.19,95.38Zm2.8-7.12,2.36,1-2.42,1.95L119,91Z"/><path class="a1e81e15-9d39-4a29-bb8f-0c78fcb020a1" d="M136.06,93.46a4,4,0,0,1,1,2.84v6.31h-2.47V97a2.28,2.28,0,0,0-.6-1.67,2.2,2.2,0,0,0-1.64-.61,2.49,2.49,0,0,0-1.94.83,3,3,0,0,0-.71,2.08v5h-2.46V92.5h2.46v1.89a3.83,3.83,0,0,1,3.63-2A3.61,3.61,0,0,1,136.06,93.46Z"/><path class="8043e7c3-86f7-44ff-9070-6dd3c9d48813" d="M67.48,47.9a18.52,18.52,0,0,0-15-7.9,14.87,14.87,0,0,0-10,4,18.71,18.71,0,0,1,2.68-3.69,19.88,19.88,0,0,1,13.25-6.08c6.45-.54,11.76,1.83,15.89,7,10.33-3.6,18.76,2.57,20.78,4.59,0,0,0,.06,0,.08a7.65,7.65,0,0,0-5.4-2.05,10.46,10.46,0,0,0-7.3,2.78,8.34,8.34,0,0,0-3,6.63V76a5.13,5.13,0,0,1-5.13,5.13h0A5.13,5.13,0,0,1,69.21,76V53.26a8.54,8.54,0,0,0-1.73-5.35Z"/><path class="21625708-cbf4-422c-bbfe-550845e0fb7d" d="M52.5,46.85a12,12,0,0,0-2.58,7.75V71A10.18,10.18,0,0,1,39.73,81.14h0V55.32A22.48,22.48,0,0,1,42.52,44a14.87,14.87,0,0,1,10-4,18.52,18.52,0,0,1,15,7.9h0a9.69,9.69,0,0,0-1.17-1.28,10.79,10.79,0,0,0-7.37-2.78A7.88,7.88,0,0,0,52.5,46.85Z"/><path class="3b2678db-00d6-4025-9b20-49de55651101" d="M98.62,61.54A13.11,13.11,0,0,0,108.78,74.3v-19c0-6.21-1.81-11.26-5.39-15a19.44,19.44,0,0,0-13.17-6.08,17.55,17.55,0,0,0-15.88,7h0c10.33-3.6,18.76,2.57,20.78,4.59,0,0,0,.06,0,.08a9.16,9.16,0,0,1,.95,1,11.87,11.87,0,0,1,2.51,7.75Z"/><path class="deed6186-7719-4d51-b229-75f43a878a8f" d="M95.15,45.9h0Z"/><path class="a1e81e15-9d39-4a29-bb8f-0c78fcb020a1" d="M119.74,45.77a8.1,8.1,0,0,1-5.08-1.8V74.3a13.11,13.11,0,0,0,10.16-12.76V44A8.1,8.1,0,0,1,119.74,45.77Z"/><path class="dd0d6881-51c0-49e6-821a-29728f19b717" d="M124.82,61.54a13.1,13.1,0,0,1-26.21,0V71.78h0a13.1,13.1,0,1,0,26.21,0h0Z"/><path class="a6cb4944-7a50-4b72-8ee4-6c60319e8620" d="M18.74,80.34A18.71,18.71,0,0,1,4.06,73.26a28.15,28.15,0,0,0,3.7,4.45q.93.9,1.9,1.69a23.68,23.68,0,0,0,15.28,5.5h.34a25.22,25.22,0,0,0,8.87-1.72V72.4l-.21.15A18.72,18.72,0,0,1,18.74,80.34Z"/><path class="f6274aaa-1214-4429-96e5-9d62207aef9a" d="M28.77,42.59a21.06,21.06,0,0,0-3.64.32,20.74,20.74,0,0,0-3.43.91l-.82.31a20.82,20.82,0,0,0-5.22,3.08,15.25,15.25,0,0,1,9.57-3.37A15.49,15.49,0,0,1,39.8,54.27H10.66a16,16,0,0,0-.39,9.3H49.92A21.2,21.2,0,0,0,28.77,42.59Z"/><path class="0577d8cd-00c3-46c1-b06b-13cf8021c328" d="M43.05,42.13A25,25,0,0,0,26.32,34.2,23.78,23.78,0,0,0,7.61,41.47,24.38,24.38,0,0,0,0,60,23.91,23.91,0,0,0,4.12,73.33a18.73,18.73,0,0,0,29.81-.77,12.71,12.71,0,0,1-2.35,1.32,15.28,15.28,0,0,1-17.39-3.3,14.21,14.21,0,0,1-3.74-6.32l0-.07,0-.08a16,16,0,0,1,.24-9.84h0a14.48,14.48,0,0,1,4.72-6.82l.32-.24a20.78,20.78,0,0,1,13.11-4.62,21.2,21.2,0,0,1,21.15,21V58.45A23.25,23.25,0,0,0,43.05,42.13Z"/><path class="a1e81e15-9d39-4a29-bb8f-0c78fcb020a1" d="M139.64,17.58a5.19,5.19,0,0,0-9.9,1.62h0c-.76,3.88-4.65,8.77-9.29,8.1h0a7.47,7.47,0,0,0-3.17.46h0c-3.58,0-6-2.18-6.37-4.79a3.46,3.46,0,0,1,2.43-1.09l.61,0a5.17,5.17,0,0,1,2.44,1,4.25,4.25,0,0,0,6.8-4.83,4.2,4.2,0,0,0-1.77-1.93h0c-1.71-1.17-1.82-5.08,0-7h0a5.2,5.2,0,1,0-8.48-2.41h0c.54,2.19-2.89,8.9-7.37,9.8h0a5.2,5.2,0,1,0,.84,10.34h0c3.45,0,6.37,3.31,6.37,7.47h0a7,7,0,0,0,.62,3,7.06,7.06,0,0,0,13.47-2.49h0c-.25-4.92,3.51-9.41,7.47-9.84h0a5.19,5.19,0,0,0,5.29-7.31Zm-24.22.52h0c-1.1,1.47-3,1.46-4.84.59a13.39,13.39,0,0,1,6.06-7.78c1,1.78,1,4.5-.12,5.67h0A4.2,4.2,0,0,0,115.42,18.09Z"/><polygon class="e0aee8d7-e0d6-41f1-8376-b4d44e706004" points="98.62 54.18 98.62 54.18 98.62 54.18 98.62 54.18"/></g></g></svg>