<?xml version="1.0" encoding="utf-8"?>
<!-- Generator: Adobe Illustrator 16.0.0, SVG Export Plug-In . SVG Version: 6.00 Build 0)  -->
<!DOCTYPE svg PUBLIC "-//W3C//DTD SVG 1.1//EN" "http://www.w3.org/Graphics/SVG/1.1/DTD/svg11.dtd">
<svg version="1.1" id="Capa_1" xmlns="http://www.w3.org/2000/svg" xmlns:xlink="http://www.w3.org/1999/xlink" x="0px" y="0px"
	 width="128px" height="128px" viewBox="0 0 128 128" enable-background="new 0 0 128 128" xml:space="preserve">
<path d="M71.43,19.746c-0.696-0.802-1.907-0.897-2.721-0.218L9.82,81.838c-0.699,0.749-1.161,1.687-1.325,2.697l-3.976,22.844
	c-0.061,0.742,0.492,1.395,1.233,1.454c0.104,0.009,0.207,0.007,0.308-0.009l22.578-5.229c1.002-0.218,1.915-0.73,2.626-1.47
	l58.911-62.334c0.632-0.849,0.471-2.045-0.358-2.699L71.43,19.746z"/>
<path d="M108.127,17.962L89.792,0.613c-0.82-0.818-2.146-0.818-2.964,0l-11.64,12.313c-0.932,0.939-0.932,2.457,0,3.397
	L93.117,33.19c0.94,0.934,2.459,0.934,3.396,0l11.638-12.313C108.931,20.058,108.922,18.769,108.127,17.962z"/>
<rect x="4.515" y="118.333" width="119.152" height="9.667"/>
</svg>
